<svg xmlns="http://www.w3.org/2000/svg" viewBox="0 0 597.34 450.38"><defs><style>.cls-1{fill:#f6bd60;}.cls-2{fill:#3d405d;}</style></defs><title>digitalarticon</title><g id="Layer_2" data-name="Layer 2"><rect class="cls-1" width="597.34" height="450.38" rx="18.02"/></g><g id="Layer_3" data-name="Layer 3"><path class="cls-2" d="M72.79,363.3c38.66.78,77.18,3.08,115.75,5.59a702.79,702.79,0,0,0,87.08-.11c35.52-2.07,71-4.3,106.56-6.47,13.71-.84,27.63-2.45,41.38-2.51l-.71-5.25c1.62-.23-.64,0-1,0-1.66.09-3.32.21-5,.32a2.7,2.7,0,0,0,0,5.4c10.5.84,21.39-.22,30.95-4.9,11.69-5.74,18.77-16.75,21-29.37,2.55-14.59.89-30-.63-44.65a331.91,331.91,0,0,0-6.58-39.49c-6.19-27.23-13.5-54-17.39-81.7-1.79-12.77-3-25.62-4.51-38.42-1-8.37-2-17-5.07-24.93-2.35-6.08-6.09-11.39-11.77-14.77-7-4.14-15.87-4-23.71-4.11-21.25-.36-42.16,1-63.33,2.51C301.88,83,268,85.07,234,86c-44.63,1.17-89.48,1.39-134,5.4-8,.72-16.06,1.58-24,3-5.47,1-11.47,2-16.32,4.9-16.79,10-8.83,33.38-5.49,48.28,2.12,9.49,3.1,19.29,4.64,28.89,3.39,21.11,6.08,42.31,8.8,63.52q3,23,5.89,46.07c1.56,12.25,2,25.25,6.08,37,3.68,10.59,11.29,26.31,23.41,29.19,13.5,3.21,22.6-10.23,24.85-21.67,1.15-5.82,1-11.92,2.64-17.63a71.49,71.49,0,0,0,2.23-13.83,232.87,232.87,0,0,0-.18-38.36c-1.59-20.33.15-40.61-4.68-60.69a57.28,57.28,0,0,0-18.58-30.85c-8.32-6.94-18.22-7.43-24.73,2.16-6.33,9.33-9,21-9,32.12,0,14.65,2.25,29.31,3.9,43.84.78,6.76,1.24,14.14,3.66,20.58,6,16.08,29.43,4.38,35.11-6.3a27,27,0,0,0-6-32.47c-7.82-6.77-20.4-3.94-24.22,5.72-4.82,12.17,2,22.42,4.18,34.22.85,4.55.25,9.1.47,13.69a133.82,133.82,0,0,0,2.73,19.82c2.69,13.31,9,24.79,21.05,31.66,8.6,4.88,18.39,6.8,28.1,8,16.9,2.1,34.07,2.06,51.07,1.7,43-.92,85.93-4.91,128.7-9.2,18.37-1.85,36.72-3.83,55.08-5.74,11.24-1.17,22.54-2.59,33.84-3a38.41,38.41,0,0,1,3.87,0c1,.06,0,0,.34,0a40.23,40.23,0,0,0,6.38.65c4.84-.14,10.28-1.47,13.15-5.71,3.68-5.43,2.48-12.81,2-18.93-1.15-15-3.14-30.69-8.72-44.49-7.37-18.24-9.27-38.9-11.92-58.2Q415,175,412.1,150.65c-1.22-10.19-2-21-5.59-30.72-10.39-27.6-46.15-20.51-68.66-17.43-23.48,3.22-47,6.32-70.62,7.86-30.39,2-60.86,1.53-91.29,1.33-20.88-.13-41.85-.75-62.71.27-8.85.43-19.65.6-27.31,5.73-13.33,8.92-7.15,27.3-1.32,38.86,2.33,4.63,9.29.55,7-4.07-3.63-7.2-8.61-17.76-3.77-25.56.6-1-.2.06.57-.78a14.13,14.13,0,0,1,1.36-1.32,4.5,4.5,0,0,1,.92-.61,19.33,19.33,0,0,1,1.91-1c-.29.14.85-.34,1.45-.53.86-.27,1.72-.52,2.6-.74a55,55,0,0,1,5.84-1.07,172.71,172.71,0,0,1,17.61-1.12c48.79-1.33,97.64,1.92,146.38-1.59,22.18-1.6,44.2-4.48,66.19-7.73,13.74-2,27.9-4.78,41.85-4.06,9.39.48,19.52,3.72,24.26,12.52,4.15,7.72,4.93,17.46,6,26,1.81,14,3.52,28,5.42,42,2.82,20.83,5,42.24,10.78,62.52C424,260.19,427.92,268,430,279.49c1.11,6,1.88,12.06,2.46,18.13.52,5.54,3.34,17.26-1.93,21.15-4.44,3.27-10,1.11-15,1.1-8.85,0-17.82,1.25-26.61,2.14-34.8,3.5-69.55,7.42-104.39,10.48-38,3.33-76.27,6.4-114.43,5.45-15.34-.38-32.63-.59-46.87-7-13.18-5.9-19.58-17-22.25-30.73a111.34,111.34,0,0,1-2.43-19.31c-.07-3.93.2-7.78-.43-11.68-1.76-10.86-10-22.38-4.52-33.4,3.21-6.42,11.55-6.14,16.14-1.62a21.37,21.37,0,0,1,5.72,19.08c-1.86,9.5-15.37,22.08-25.62,15.6A4.27,4.27,0,0,1,88.44,267a25,25,0,0,1-1.58-5.44c-2-9.45-2.66-19.21-3.39-28.82-1-12.74-3.22-26.44-1.08-39.16,1.36-8,7.16-28,18.45-22.66,7.29,3.43,13.06,11.76,16.86,18.68a36,36,0,0,1,3.37,9,133.33,133.33,0,0,1,4.12,25c.85,10.58-.39,21.35.67,31.83a262.6,262.6,0,0,1,1.32,28.73A169.4,169.4,0,0,1,126,303.78c-.46,3.62-1.54,6.79-2.22,10.3-1.24,6.52-1.06,13.26-3.2,19.62-2.19,6.54-8.06,14.11-15.93,12.46-6.58-1.37-11-8.91-14.15-14.26a61.76,61.76,0,0,1-6.85-17.64c-2.62-11.73-3.44-25.41-5-38q-4.62-36.54-9.3-73.06c-1.9-14.68-3.2-29.42-5.22-44.08a208.83,208.83,0,0,0-4.22-21.81c-2.08-8.44-5.23-22.11,1.71-29.18,3.53-3.6,9.62-4.5,14.83-5.48,15.78-3,32-3.78,48-4.67,21.13-1.18,42.28-1.81,63.43-2.39,40.41-1.09,80.63-2.51,120.94-5.62,30.08-2.32,60.1-5.77,90.3-5.34,7,.09,15.2-.32,21.25,3.71,5,3.32,7.63,8.74,9.27,14.34,2.37,8.09,3.23,16.6,4.18,25,1.35,12,2.62,24,4.36,35.95,3.72,25.58,10.23,50.37,16.23,75.47a350.92,350.92,0,0,1,6.73,35.39c1.89,14.23,3.56,29,2.69,43.4-.78,12.83-5.27,25-16.93,31.71-9,5.17-19.84,6.11-30,5.37v5.4c2.47-.17,5-.22,7.42-.57,3-.44,2.25-5.29-.71-5.26-11.32.13-22.77,1.54-34.06,2.31l-63.22,4.34c-41.81,2.87-83.79,7.3-125.72,5.26-42.63-2.06-85.07-5-127.77-5.4a1.17,1.17,0,0,0,0,2.34Z" transform="translate(-1.55 0.02)"/><path class="cls-2" d="M502.27,271.92c5.91-.22,11.82-.47,17.72-.65,3.67-.11,6.77.15,7.87,4.6.64,2.56-1.34,6.81-2.08,9.26l-10.35,34.71,3.32-.43c-6.45-12.88-11.9-26.19-13.61-40.6-1.64-13.83,1.67-27,3.53-40.58,3.62-26.38,1.79-53.09-2.21-79.32-1-6.62-2.16-13.21-3.41-19.79-1.32-6.92-2.25-14.33-4.33-21.07-2-6.44-9.28-8-13-1.78-2.23,3.71-1.54,8.48-.57,12.47,1.65,6.8,4.22,13.44,6.38,20.09q6.78,20.91,13.55,41.81,7.38,22.83,15,45.55c5.14,15.37,8.87,30,7.84,46.32-.13,2,2.9,2.32,3.4.46,3-11,.52-22.9-2.46-33.68-3.46-12.5-8-24.75-12.07-37-8.45-25.28-17.37-50.42-26-75.63-1.75-5.1-5.17-12.19-3.14-17.63.94-2.51,2.61-3.9,5.2-3.37s2.73,2.24,3.38,4.65c.91,3.35,1.43,6.87,2.11,10.27,2.52,12.68,4.76,25.42,6.38,38.25,3.21,25.37,4,51.12-.26,76.41-2.15,12.67-3.85,24.79-1.78,37.61,2.15,13.34,7.07,26.33,13,38.43.72,1.48,2.89,1,3.32-.43l7.34-23.68c2.05-6.61,5.82-14.25,5.73-21.26a8.36,8.36,0,0,0-7.46-8.63c-7-1-15.25.93-22.27,1.49-2,.16-2.07,3.27,0,3.19Z" transform="translate(-1.55 0.02)"/></g></svg>