<svg id="Layer_1" data-name="Layer 1" xmlns="http://www.w3.org/2000/svg" xmlns:xlink="http://www.w3.org/1999/xlink" viewBox="0 0 1751 1124.77"><defs><style>.cls-1{fill:#fff;}.cls-2{fill:#ead8ce;stroke:#fff;}.cls-16,.cls-2,.cls-4,.cls-6{stroke-miterlimit:10;}.cls-3{fill:#e84700;opacity:0.3;}.cls-16,.cls-4,.cls-6{fill:none;}.cls-4{stroke:#fffff8;}.cls-5{clip-path:url(#clip-path);}.cls-16,.cls-6{stroke:#000;}.cls-6{stroke-width:9px;}.cls-7{font-size:19.77px;fill:#f6d13f;font-family:LucidaSans-TypewriterOblique, Lucida Sans Typewriter;font-style:italic;}.cls-8{fill:#000;}.cls-9{fill:#71d955;}.cls-10{fill:#ff2afc;}.cls-11{fill:#3f58ed;}.cls-12{fill:#bf2012;}.cls-13{fill:#1592ff;opacity:0.28;}.cls-14{fill:#c9c9c9;opacity:0.47;}.cls-15{fill:#3f60ff;opacity:0.34;}.cls-17{fill:#ffb742;}</style><clipPath id="clip-path" transform="translate(3 71.44)"><path class="cls-1" d="M792.23,357.82s200.43,44.18,279.33-9.47c0,0,22.1-135.72-113.62-296.7l-123.1-6.31S882.19,272.59,792.23,357.82Z"/></clipPath></defs><title>headerImg</title><rect class="cls-2" x="0.5" y="68.94" width="1750" height="679"/><path class="cls-3" d="M632.85,156.5a124.84,124.84,0,0,0-56.44,39.56c-18.48,23.12-31.72,57.16-26.11,85.69,9.74,49.6,78.48,93,166.06,83,0,0,215.51,16.57,193.65-69.25s-33.14-129.73-94.8-153.35c-9.48-3.63-17.45-3.26-24.65-3.58-43.85-1.91-65.78-2.87-87.9.15A319.45,319.45,0,0,0,632.85,156.5Z" transform="translate(3 71.44)"/><path class="cls-4" d="M808,207.89" transform="translate(3 71.44)"/><path class="cls-1" d="M792.23,357.82s200.43,44.18,279.33-9.47c0,0,22.1-135.72-113.62-296.7l-123.1-6.31S882.19,272.59,792.23,357.82Z" transform="translate(3 71.44)"/><g class="cls-5"><image width="514" height="768" transform="translate(519.05) scale(1.46)" xlink:href="../../srednja%202019/srednja/2019-04-06/DSC_4780.JPG"/></g><path class="cls-6" d="M679.39,169.23s22.1-131,99.43-142c0,0,45.76,0,53.65,18.94,16.55,39.72,37,221.73-41,315.63-7.1,8.54-29.89,34.31-22.09,52.08,6.23,14.2,29.46,17.56,33,18.07,7.69,1.11,23.19,3.36,33.32-7,6.44-6.6,10.85-18.45,6.31-26.83-5.78-10.69-24.88-13.44-34.72-7.89C782,404.41,802.31,482,805.65,494.33c0,0,17.35-12.63,33.14-3.16s58.39,9.47,58.39,9.47S857.72,552.72,812,549.56c0,0-30,86.8,11,83.64s213.06-45.76,241.46-203.58c22.83-126.8.24-268.36-107.31-378.76" transform="translate(3 71.44)"/><path class="cls-6" d="M648.23,324c156.39,64.16,334,59,492,7.76" transform="translate(3 71.44)"/><text class="cls-7" transform="translate(809.45 475.9) scale(0.87 1)">.section4 <tspan class="cls-8" x="119.12" y="0">{</tspan><tspan class="cls-8"><tspan x="0" y="23.72" xml:space="preserve">    </tspan><tspan class="cls-9" x="47.65" y="23.72">grid-column</tspan><tspan x="178.69" y="23.72">: span 3;</tspan><tspan x="0.01" y="47.45" xml:space="preserve">    </tspan><tspan class="cls-9" x="47.66" y="47.45">grid-row</tspan><tspan x="142.96" y="47.45">: span 3;</tspan><tspan x="0.01" y="71.17" xml:space="preserve">    </tspan><tspan class="cls-10" x="47.66" y="71.17">background-color</tspan><tspan x="238.26" y="71.17">:rgba(206, 121, 107, 1);</tspan><tspan x="0.02" y="94.9" xml:space="preserve">    </tspan><tspan class="cls-11" x="47.67" y="94.9">outline-style</tspan><tspan x="202.53" y="94.9">: solid;</tspan><tspan x="0.02" y="118.62" xml:space="preserve">    </tspan><tspan class="cls-11" x="47.67" y="118.62">outline-color</tspan><tspan x="202.53" y="118.62">: rgb(143,87,80);</tspan><tspan x="0.03" y="142.34" xml:space="preserve">    </tspan><tspan class="cls-12" x="47.68" y="142.34">font-size</tspan><tspan x="154.89" y="142.34">: 20pt;</tspan><tspan x="0.03" y="166.07" xml:space="preserve">    </tspan><tspan class="cls-12" x="47.68" y="166.07">font-family</tspan><tspan x="178.71" y="166.07">: &apos;Shadows Into Light Two&apos;;</tspan><tspan x="0.04" y="189.79">}</tspan></tspan></text><rect class="cls-13" x="772.79" y="441.06" width="227.12" height="260.2"/><rect class="cls-14" x="918.33" y="551.47" width="368.67" height="138.43"/><rect class="cls-15" x="985.5" y="437.96" width="159.01" height="128.3"/><rect class="cls-16" x="804.8" y="452.65" width="464.88" height="222.01"/><path class="cls-17" d="M802.39,40.55c2.19.68,4.21,1.51,4.21,1.51a.74.74,0,0,0,0-.21c-.77-.25-1.48-.52-2.18-.73Z" transform="translate(3 71.44)"/><path class="cls-17" d="M797.62,41.61l1.31.36c-.13-.09-.14-.15-.21-.22Z" transform="translate(3 71.44)"/><path class="cls-17" d="M806.6,41.85c0-.79-1.58-2.16.86-2,1.21.44,2.95,1.25,4.69,2.06l2.5,1.29c.78.41,1.47.85,2,1.16,2.42,1,.41-.66.6-1,1.14.65,2.23,1.37,3.06,1.9s1.41.84,1.47.76c.37.11.54.09.53,0s-.18-.38-.63-.77A31.69,31.69,0,0,0,817,41.88c-2.76-1-6.48-2.31-10.16-3.23a57.51,57.51,0,0,0-9.61-1.77c-2.35-.21-3.44,0-2.17.5S800,38.87,806.6,41.85Z" transform="translate(3 71.44)"/><path class="cls-17" d="M787.29,38.94A64.92,64.92,0,0,1,799.8,41.2c1.4-.11,3.27.08,2.16-.77a49.77,49.77,0,0,0-8.3-1.46A37.75,37.75,0,0,0,787.29,38.94Z" transform="translate(3 71.44)"/><path class="cls-17" d="M787.12,227.13c0,.12-.23.15-2.27-.32l2.27.32c0-.11-.06-.29,1-.21-8-1-17.34-1.73-26.43-2.09-1.19.15-2.34.31-3.39.49a284.77,284.77,0,0,1,33.05,3c5.24.76,10.69,1.63,15.73,3.68a24.71,24.71,0,0,1,7.14,4.28,17.12,17.12,0,0,1,4.89,7.07,17.49,17.49,0,0,0-2.71-5.18,19.53,19.53,0,0,0-3.82-3.65,29.94,29.94,0,0,0-8.28-4.06,58.11,58.11,0,0,0-8.39-2C793.1,228,790.23,227.57,787.12,227.13Z" transform="translate(3 71.44)"/><path class="cls-17" d="M756.5,226.44l-2.27-.05C756.27,226.62,756.48,226.56,756.5,226.44Z" transform="translate(3 71.44)"/><path class="cls-17" d="M825.13,222.22A76,76,0,0,1,829.94,243a94,94,0,0,1-.31,19.8,93.65,93.65,0,0,0,.82-20.92,67.78,67.78,0,0,0-4.74-20.32,60.31,60.31,0,0,0-10.38-16.8l-3.2-3.37c-1.11-1-2.24-2-3.34-3a40.55,40.55,0,0,0-3.38-2.63l-1.68-1.22c-.55-.41-1.14-.73-1.7-1.09a66.91,66.91,0,0,1,13.74,12.45A59.47,59.47,0,0,1,825.13,222.22Z" transform="translate(3 71.44)"/><path class="cls-17" d="M805.67,322.59A97.6,97.6,0,0,0,819.56,301a125.27,125.27,0,0,0,7.7-20.92,145,145,0,0,1-7.94,20.22,116,116,0,0,1-11.26,18.83Z" transform="translate(3 71.44)"/><path class="cls-17" d="M816.14,304.87a116.9,116.9,0,0,0,9.06-21.34,113.7,113.7,0,0,0,4.43-20.76A130.3,130.3,0,0,1,824.24,285,161.89,161.89,0,0,1,816.14,304.87Z" transform="translate(3 71.44)"/><path class="cls-17" d="M730.82,262.59a26.51,26.51,0,0,0,4.28.36l5.41.12,7.33.2,6.23-.75-1.74-.06c-5.07,0-10.28-.21-15.61-.43a30.15,30.15,0,0,1-5.33-.48l-.39-.09a2,2,0,0,1-.28-.11l-.26-.15a3.06,3.06,0,0,1-.41-.41,13.52,13.52,0,0,1-2.13-3.26c-.38-.74-.76-1.53-1.14-2.38l-1.1-2.37.77,2.19c.26.74.51,1.47.77,2.11a24.19,24.19,0,0,0,1.47,3.26,9.36,9.36,0,0,0,.66,1.05,4.91,4.91,0,0,0,.5.59A2.86,2.86,0,0,0,730.82,262.59Z" transform="translate(3 71.44)"/><path class="cls-17" d="M747.84,263.27c-6.57.8-3.21.93.12.8S754.5,263.47,747.84,263.27Z" transform="translate(3 71.44)"/><path class="cls-17" d="M708.05,230.71l-.25-1.57c-.28-1.5-.61-3-.83-4.54C707.28,226.69,707.69,228.66,708.05,230.71Z" transform="translate(3 71.44)"/><path class="cls-17" d="M778.65,191.78a157.27,157.27,0,0,0-25.38-6.62c4.43.85,8.8,1.87,13.1,2.93s8.49,2.34,12.47,3.82c2,.67,3.95,1.5,5.87,2.27,1,.36,1.87.83,2.8,1.25s1.84.84,2.73,1.29a75.48,75.48,0,0,1,9.77,5.89c-1.65-1.39-3.43-2.68-5.22-3.91-1-.5-2.11-1-3.31-1.59s-2.51-1.16-3.89-1.76l-2.11-.92-2.23-.87-2.26-.92Z" transform="translate(3 71.44)"/><path class="cls-17" d="M752.05,274c-6.19-.13-12.34-.42-18.47-.75-3.05-.22-6.26-.68-9-2.41a17.42,17.42,0,0,1-6-7.21c-1.39-2.78-2.38-5.63-3.5-8.45-.51-1.43-1-2.85-1.51-4.28s-.93-2.87-1.4-4.3a169.91,169.91,0,0,1-4.39-17.41,168.1,168.1,0,0,1-2.16-35.74c.08-1.47.12-3,.26-4.42l.17-2.2c.06-.72.12-1.62.24-2.43l.63-5a11.2,11.2,0,0,1,1.62-4.54,6.41,6.41,0,0,1,4-2.53,15.25,15.25,0,0,1,4.82-.1c1.63.19,3.28.49,4.93.76l4.34.72,16.63,2.7c5.51.88,11,1.83,16.37,2.93s10.74,2.34,16,3.87c2.63.72,5.2,1.62,7.76,2.48s5.08,1.88,7.53,3a70.78,70.78,0,0,1,13.58,7.77l1.72,1.28.87.65.83.72c1.1,1,2.22,2,3.33,3l3.16,3.34a18.71,18.71,0,0,1,1.5,1.81l1.46,1.87a60,60,0,0,1,8.91,17.45,70.06,70.06,0,0,1,3.2,19.85c.3,13.43-2.39,26.54-6.22,38.14a156.49,156.49,0,0,1-13.62,30.57c.65-.85,1.24-1.72,1.81-2.58l1.69-2.57c1-1.73,2.11-3.4,3-5.11a142,142,0,0,1-8.08,14.23A76.94,76.94,0,0,1,789.9,337a52.05,52.05,0,0,1-25.58,9.25,61.62,61.62,0,0,1-13.26-.62c-4.17-.6-7.94-1.4-11.66-2.18q-11.24-2.36-22.35-5.37a410.84,410.84,0,0,1-43.86-14.52c-1.83-.74-3.53-1.39-5.51-2.23a44.94,44.94,0,0,1-6.53-3.33,26.13,26.13,0,0,1-6.93-6.22,24.91,24.91,0,0,1-4.22-8.7,35.06,35.06,0,0,1-1.12-8c-.08-2.44,0-4.68.15-6.72l.82-11.61c.73-9.21.79-16.25,2.08-25.64a205.88,205.88,0,0,1,5.7-28.28s-.11.06-.22.3a141.33,141.33,0,0,1,11.12-28.34c4.71-8.91,9.94-16.86,14.35-24.61,1.11-1.94,2.17-3.85,3.16-5.79l1.48-2.9,1.4-3c1.84-4,3.56-8.07,5.12-12.29,3.15-8.41,5.81-17.23,8.26-26.38l7-26.23c1.24-4.54,2.61-9.26,4.39-14.08a82.56,82.56,0,0,1,6.85-14.48,31,31,0,0,1,4.8-6.32c.6-.62,1.17-1.15,1.83-1.77s1.35-1.37,2.32-2.32A72.4,72.4,0,0,1,741.39,45a73.17,73.17,0,0,1,12.84-6.67,71.37,71.37,0,0,1,30.87-5l0,.59A54.6,54.6,0,0,1,794.46,35c-2.84,0-6.72,0-10.43.33a58.49,58.49,0,0,0-9.52,1.49c-2.24.65-3.21,1.1-1.84,1.23.69.07,2,0,3.94,0h1.62l1.91.06c1.36,0,2.92.17,4.68.29h0c-1.57,0-3,0-4.32.17H780s0,0,0,0A40.43,40.43,0,0,0,766,42.06,60,60,0,0,1,778.31,40c-.77.33-1.25.66-.81.89l-1.07.25c-.91.07-1.74.16-2.35.26l-1,.14a5.81,5.81,0,0,0-1.25.65,71.6,71.6,0,0,0-8.3,2.68,56.13,56.13,0,0,0-7.64,3.69c-4.37,2.56-6.85,4.77-5.33,4.23,2.2-1,8.48-5.25,16.76-7.66.52-.06,1.12-.14,1.72-.24a20.14,20.14,0,0,0-4.57,1.59c-.56.32-.37.44,0,.52.65.18,1.76.12-1.3,1.28a58.63,58.63,0,0,0-21.72,14.24,56.41,56.41,0,0,0-8,10.31A66.11,66.11,0,0,0,728,84.36c-2.9,8-4.77,16.26-6.93,24.5-4.27,16.46-8.56,33-15.67,50.16-.61,1.51-1.29,3-1.94,4.48-1.88,4.09-3.84,8.1-6,11.94s-4.39,7.53-6.63,11.17c-4.46,7.28-8.92,14.34-12.43,21.94.33-1,.66-2.11,1.07-3.19a130.32,130.32,0,0,0-12,38.89c-1.3,8.31-2.09,16.72-2.68,25.2-.31,4.24-.53,8.51-.76,12.79l-.33,6.45c-.1,2.11-.15,4.14-.05,6.05a18.74,18.74,0,0,0,.93,5.17,9.2,9.2,0,0,0,2.34,3.7c2.14,2.09,5.84,3.57,10,5.16q12.24,4.77,25.06,8.92,13.44,4.38,27,7.72c4.51,1.13,9,2.14,13.58,3.1a131.84,131.84,0,0,0,13.33,2.31,44.36,44.36,0,0,0,6.27.23c.51,0,1-.06,1.51-.1l1.5-.22a19,19,0,0,0,3-.52,35.26,35.26,0,0,0,11.28-4.7c7.09-4.47,13.22-11,18.23-18.55a78,78,0,0,1-6.64,8.8,61.9,61.9,0,0,1-7.84,7.45,45.52,45.52,0,0,1-9.08,5.4,36,36,0,0,1-10.12,2.57c-6.25.54-13-.85-19.84-2.29,7.07,1.6,13.74,2.9,19.84,2.29a34.2,34.2,0,0,0,4.5-.69c.74-.17,1.48-.32,2.22-.51l2.18-.74,1.09-.37,1.05-.47,2.12-.95,2-1.14,1-.57c.34-.2.66-.44,1-.65a57.71,57.71,0,0,0,13.74-12.91A91.34,91.34,0,0,0,810.38,281a35.16,35.16,0,0,0,1.81-4A100,100,0,0,0,817,255.4a57.78,57.78,0,0,0-1.17-19.82,2.89,2.89,0,0,1-.28-.89l-.2-.87c-.09-.31-.2-.61-.3-.91-.39-1.19-.74-2.13-.68-1.12a47.18,47.18,0,0,0-8.26-16.46A49.3,49.3,0,0,0,792,203.18a64.86,64.86,0,0,0-14.82-6.12c-10.61-3.78-22.13-6-34-7.92l-18.11-2.86-4.23-.66-.72,0c-.44,0-1,.06-1.11.56a5.43,5.43,0,0,0,0,1.33l-.24,4-.15,4.37A153.52,153.52,0,0,0,727,248.49l.74,2.16.81,2.18.82,2.21c.27.7.53,1.35.78,1.93a15.29,15.29,0,0,0,1.32,2.51,2.18,2.18,0,0,0,.36.43s0,0,0,0,0,0,0,0,.29.1.62.18a24.37,24.37,0,0,0,3.38.41l5,.35,4.93.32-7.21-.24-3.47-.13c-1,0-1.83-.12-2.44-.2l-.73-.11-.24-.05c-.08,0-.1,0-.1,0a.55.55,0,0,1-.22,0c0,.11-.8-.64-1.52-2.06-.38-.72-.78-1.59-1.19-2.6l-1.28-3.23c-.44-1.08-.84-2.18-1.22-3.29s-.81-2.2-1.16-3.33c-1.5-4.46-2.73-9-3.81-13.67-.91-4.53-1.52-9.06-2-13.52s-.76-8.84-.94-13.11-.19-8.43-.06-12.43c0-1,0-2,.09-3l.06-1.47,0-.72v-.36a.93.93,0,0,0,0-.18l-.19-1.32a2,2,0,0,1,.21-1.28,1.47,1.47,0,0,1,1.08-.55,2.06,2.06,0,0,0-.95.21,1.21,1.21,0,0,0-.55.8,13.06,13.06,0,0,0-.12,1.93c0,.06,0,.88-.08,1.5l-.13,1.92c-.08,1.28-.09,2.56-.14,3.84s-.05,2.56-.06,3.83,0,2.56,0,3.83a144.6,144.6,0,0,0,1.13,15.19,146.46,146.46,0,0,0,2.61,14.86,156.28,156.28,0,0,0,4,16c.8,2.64,1.73,5.27,2.65,7.83a19.53,19.53,0,0,0,2.41,4.93l-.18-.18a15.07,15.07,0,0,1-2.09-3.7c-.38-.84-.78-1.88-1.17-2.89l-1.18-3c-1.48-4.08-2.84-8.24-4-12.48a175.77,175.77,0,0,1-3.87-23.78c-.71-7.71-.91-15.1-.86-22,0-1.71.06-3.4.08-5l0-.57,0-.26,0-.41,0-.86a4.53,4.53,0,0,1,.18-1.82,4.2,4.2,0,0,0-.32,1.64c0,.57-.06,1-.08,1.67l-.15,2.29c0,.8-.11,1.59-.13,2.39,0,1.6-.13,3.19-.13,4.78a152.63,152.63,0,0,0,5.33,41.9c1.1,4.73,2.5,9.45,4.06,14.1l-.65-1.4c-.38-1-1-2.44-1.77-3.92s-1.49-3-2.2-4.28c-1.35-2.49-2.4-3.71-1.87-.46,1.12,4.06,2.41,8.29,4,12.51A46.87,46.87,0,0,0,725.6,261a9.89,9.89,0,0,0,2.58,3.41,5.54,5.54,0,0,0,1.44.81,12,12,0,0,0,2.14.55,61.92,61.92,0,0,0,6.19.53c4.56.26,8.94.5,13,.61a170.77,170.77,0,0,0,19.91-.38c1.22-.07,2.29-.22,3.24-.31s1.75-.18,2.4-.29l1.49-.2a4,4,0,0,1,.52,0c.55.1-2.46.84-7.43,1.42a152,152,0,0,1-19,.79c-3.54-.06-7.09-.16-10.44-.31s-6.6-.25-8.78-.44a14.85,14.85,0,0,1-4.26-.92c-.75-.33-1.08-.57-1-.45a7.85,7.85,0,0,0,2.83,1.35,25.78,25.78,0,0,0,4.16.71,18,18,0,0,1-6.93-1.15,6.39,6.39,0,0,1-1.39-1,9.62,9.62,0,0,1-1.28-1.42,21.57,21.57,0,0,1-2.24-4.09c-.67-1.52-1.27-3.17-1.83-4.63l-1.51-3.77a116.31,116.31,0,0,1-6.79-23.8c-.81-4.25-1.34-8.61-1.83-13s-.76-8.88-.93-13.37c-.13-2.8-.24-5.75-.21-8.81,0-1.53,0-3.09.08-4.67l.06-2.28.12-2.14a35.18,35.18,0,0,1,.38-4.5,6.06,6.06,0,0,1,.83-2.16,4.3,4.3,0,0,1,1.74-1.48,9.21,9.21,0,0,1,4.55-.5c1.56.15,3.16.36,4.8.54,0-.39,6.76,1,4.58.23,6.32,1.14,13.14,2.34,19.08,3.3A138,138,0,0,0,759.74,181l.92.18c.89.2,2.17.43,3.53.7a159.4,159.4,0,0,1,27.37,9.36c1.05.44,2,1,3,1.51s2,1,3,1.59c1.92,1.2,3.94,2.27,5.78,3.69a58.68,58.68,0,0,1,10.82,9.69,54.88,54.88,0,0,1,10.18,18.95c-.34-1.16-.85-2.42-1.31-3.78-.25-.67-.47-1.37-.76-2.06l-.95-2a47.87,47.87,0,0,0-4.2-7.35c-1-1.27-2-2.5-3-3.71l-.53-.67-.58-.63-1.16-1.25c-.79-.81-1.51-1.69-2.36-2.43a61,61,0,0,0-5.1-4.32l-2.65-2L799,194.67l-1.38-.87c-.46-.28-.94-.52-1.42-.79l-2.84-1.53a115.81,115.81,0,0,0-23.72-8.59c-1.33-.29-3.49-.65-5.49-1-1.16-.32-2.31-.61-3.48-.89-.3,0-.62,0-1,0-7.76-1.51-16.06-2.79-24-4L724,175.18l-5.55-.81a14.6,14.6,0,0,0-5.14-.07,4.78,4.78,0,0,0-3.56,2.8,15.74,15.74,0,0,0-.92,4.65c-.14,1.58-.34,3.14-.45,4.72s-.26,3.21-.34,4.82a176.49,176.49,0,0,0,0,19.52,165.16,165.16,0,0,0,6.57,38.44,165.76,165.76,0,0,1-7.72-37.08,160.94,160.94,0,0,0,9.72,43.32c.76,2.07,1.43,4.12,2.27,6.12a24.48,24.48,0,0,0,3.32,5.88,12.28,12.28,0,0,0,5.37,3.9,12.16,12.16,0,0,1-5-3.62,21.45,21.45,0,0,1-3.13-5.33,21.19,21.19,0,0,0,3.35,5.19,11.72,11.72,0,0,0,4.94,3.23c3.79,1.24,8,1,12.14,1.28,11.38.54,22.86.91,34.2-.34a93,93,0,0,0,16.67-3.29c1.37-.37,2.68-.9,4-1.34s2.62-1.05,3.93-1.57a32.54,32.54,0,0,0,7.08-4.13,26.39,26.39,0,0,0,5.62-5.7,13.41,13.41,0,0,0,2.67-6.91,10.49,10.49,0,0,0-1.9-6.76,15.51,15.51,0,0,0-5.82-4.75,35.76,35.76,0,0,0-7.69-2.73c-1.34-.34-2.73-.61-4.11-.87l-4.25-.72q-8.5-1.4-17.07-2.24c.92-.16,2-.29,3.13-.41,5.51.55,11,1.29,16.41,2.17s10.63,2,15.06,4.44a15.6,15.6,0,0,1,5.46,4.73,11.79,11.79,0,0,1,2.12,6.55,14.21,14.21,0,0,1-1.68,6.65,24.52,24.52,0,0,1-4,5.55,21.62,21.62,0,0,0,5.1-7.16,12.3,12.3,0,0,0,.7-7.76A12.58,12.58,0,0,0,811.6,239a23,23,0,0,0-7.28-4.27c0-.1,0-.29,1,0a55.36,55.36,0,0,0-12.22-2.89c-4.37-.66-8.89-1.23-13.35-1.74,2.91-.16,6.18-.23,9.45-.23a79.16,79.16,0,0,1,8.25,1.06,44.86,44.86,0,0,1,9.78,2.9,22.87,22.87,0,0,1,5,3,15.71,15.71,0,0,1,3.82,4.55,14.15,14.15,0,0,1,.9,11.6,19,19,0,0,1-2.73,5.11,25.54,25.54,0,0,1-1.79,2.22c-.66.67-1.29,1.38-2,2a36.83,36.83,0,0,1-9.32,6.12,74,74,0,0,1-10.3,3.7,88.17,88.17,0,0,1-10.67,2.32A143.25,143.25,0,0,1,758.23,276c-6.54-.1-13.05-.5-19.51-1l-4.87-.37a30.77,30.77,0,0,1-5.07-.79,14.58,14.58,0,0,1-8.85-6,37.37,37.37,0,0,1-4.33-9.13c-1.12-3-2.13-6.14-3.07-9.24a169,169,0,0,1-4.48-18.81,164.37,164.37,0,0,0,4.71,18.14c.44,1.47,1,2.9,1.47,4.34s1,2.85,1.57,4.25a50.55,50.55,0,0,0,3.75,8.26,18.16,18.16,0,0,0,2.86,3.63,12.93,12.93,0,0,0,3.86,2.54,25.36,25.36,0,0,0,8.71,1.56C740.72,273.68,746.41,273.9,752.05,274ZM737.11,56a62.63,62.63,0,0,0-5,5.9l.86-.81,1.12-1.37,1.1-1.32,1-1.27ZM713.58,106c1.08-3.75,2.15-7.8,3.35-12.17s2.55-9,4.35-13.75a71.14,71.14,0,0,1,7.1-14.17A63.37,63.37,0,0,1,739,53.48c0-.12.08-.21,0-.25a62.77,62.77,0,0,0-9.74,10.62,63.74,63.74,0,0,0-7.4,13.47,116.7,116.7,0,0,0-4.75,14.49C715.85,96.64,714.74,101.35,713.58,106ZM690,162.06l.22-.29h-.1Zm96.2,169.69a44.74,44.74,0,0,1-13.8,7c-1.33.34-2.68.73-4.06,1s-2.82.42-4.25.6a50,50,0,0,1-8.65-.06c-2.87-.25-5.71-.69-8.5-1.21s-5.53-1.08-8.31-1.66c-5.56-1.17-11.17-2.47-16.75-3.87-6.66-1.78-13.51-2.95-22.29-5.81-11-3.45-17.63-5.51-26.29-8.76,2.09,1,4.21,2,6.32,2.91l-10.36-4.07a31.79,31.79,0,0,1-10.4-6.14,19.75,19.75,0,0,1-4.19-5.7,24,24,0,0,1-2.08-6.48,47.44,47.44,0,0,1-.12-12.47c-.19,0-.42-2.32-.26-4.6.31-5.72.82-11.47,1.37-16.94s1.16-10.73,1.67-15.36c.75-5.82,1.76-11.64,2.91-17.16s2.54-10.75,3.89-15.4c.74-2.29,1.83-7,3.57-11.65,1.2-2.73,2.39-5.49,3.75-8.15s2.76-5.23,4.2-7.75l-.5.54a106.8,106.8,0,0,0-6.61,13,147.76,147.76,0,0,0-7.23,21.92A217.39,217.39,0,0,0,655,247.75c-1.26,8.75-2,17.31-2.55,25.69-.28,4.19-.49,8.34-.7,12.44s-.58,8.68.39,14a27.48,27.48,0,0,0,1.1,4.1,23.7,23.7,0,0,0,2,4.13,21.28,21.28,0,0,0,2.9,3.68,23.72,23.72,0,0,0,3.37,2.79,36.37,36.37,0,0,0,6.61,3.49c2.1.87,3.93,1.53,5.85,2.25,7.63,2.86,15.31,5.44,23,7.83,6.64,2,13.39,3.67,20.1,5.34,5.06,1.22,10.39,2.46,15.78,3.62,2.7.59,5.4,1.16,8.1,1.68s5.35,1.06,8.07,1.49a54.35,54.35,0,0,0,16.09.57c1.27-.2,2.5-.39,3.68-.61l3.36-1a23.72,23.72,0,0,0,3-1.14,22,22,0,0,0,2.67-1.25C780.12,335.79,784.5,333.53,786.22,331.75Zm11.72-23.67a70.79,70.79,0,0,1-11,13.16,42.63,42.63,0,0,1-14.31,8.92c-.66.23-1.31.49-2,.7l-2,.49a28,28,0,0,1-4.06.7,35.91,35.91,0,0,1-8.29,0,143.5,143.5,0,0,1-16.81-3.19c-4.4-1-10.85-2.47-17.89-4.25s-14.65-3.86-21.43-5.82c-13.57-3.92-23.84-7.24-20.06-4.45,5.63,1,17.19,4.87,31.48,8.86,7.13,2,14.95,4.07,23,5.94,4,1,8.11,1.84,12.18,2.68a82.26,82.26,0,0,0,11.9,1.72,34.33,34.33,0,0,0,5.66-.11l2.74-.34c.9-.11,1.77-.4,2.65-.58l1.31-.3c.43-.12.84-.29,1.26-.43l2.48-.86,2.35-1.08c.39-.18.78-.33,1.15-.54l1.09-.62a51.61,51.61,0,0,0,13.45-11.09c.81-.89,1.49-1.81,2.15-2.62s1.22-1.62,1.72-2.35.93-1.38,1.3-2,.63-1.13.84-1.58C799.69,307.32,799.48,306.88,797.94,308.08ZM737.32,187a231.66,231.66,0,0,1,28.3,5.42C756.48,190.17,747.05,188.57,737.32,187Zm81.43,36.67A53.65,53.65,0,0,0,806,206a70.57,70.57,0,0,0-18.64-12,120.71,120.71,0,0,0-21.3-7.17c-7.28-1.79-14.63-3.12-21.9-4.27-5.59-.88-11.37-1.85-17.14-2.88l-7.59-1.36a15,15,0,0,0-3.13-.35,4,4,0,0,0-2.88,1.07,5.14,5.14,0,0,0-1.18,2.84c-.16,1-.25,2.07-.37,3.09-.05.51-.12,1-.15,1.53l-.14,2c-.11,1.38-.21,2.75-.24,4.12a102.42,102.42,0,0,0,.5,15.71l.59,0-.28-2.2c0-1.94,0-3.78.06-5.56s.18-3.49.3-5.15.28-3.29.45-4.9l.29-2.41.13-1.13c0-.28.06-.5.11-.74,0,.23,0,.43,0,.7,0-.43.06-.78.09-1.18a25.36,25.36,0,0,1,.72-3.84,2.81,2.81,0,0,1,1.32-1.56,4.5,4.5,0,0,1,2.13-.43,16.77,16.77,0,0,1,2.1.16l2.26.27,21.14,3.53c7,1.19,13.92,2.47,20.64,4.07,13.41,3.16,26.1,7.65,36.17,14.71a55.74,55.74,0,0,1,15,15.56,53.07,53.07,0,0,1,7.54,20.71C822,234.45,820.75,227.76,818.75,223.71Z" transform="translate(3 71.44)"/><path class="cls-17" d="M717.82,258.18a41.9,41.9,0,0,0,3.07,6.61,13.6,13.6,0,0,0,4.81,5,16.71,16.71,0,0,0,6.76,1.89c2.41.22,4.92.29,7.41.43,7.7.27,15.34.44,22.91.06,9-.37,18.38-1.36,27.44-4.08,1.14-.31,2.25-.71,3.37-1.1l1.68-.58,1.65-.67a34.8,34.8,0,0,0,6.23-3.1c3.86-2.46,7.4-5.75,9.26-9.6a11.1,11.1,0,0,0,1.14-5.88,10.19,10.19,0,0,0-2.25-5.42,15.91,15.91,0,0,0-5-3.9,34.05,34.05,0,0,0-6.53-2.42A68.44,68.44,0,0,0,792.6,234c-2.46-.4-4.91-.77-7.36-1.09q-7.35-1-14.62-1.5c-1.19.48-1.36,1.05,0,1.77q7.81.78,15.57,1.95c2.58.4,5.16.82,7.73,1.28a53.49,53.49,0,0,1,7.08,1.71c4.48,1.41,8.22,3.71,9.58,6.59.2.36.3.76.47,1.13s.2.79.27,1.18a8.14,8.14,0,0,1,0,2.41,12.17,12.17,0,0,1-2.32,5.09,27.93,27.93,0,0,1-10.56,8.2,71.13,71.13,0,0,1-14.2,4.56c-9.88,2.09-20.26,2.38-30.69,1.94l-1,0c-4.49.12-9.71,0-15.38-.27a34.06,34.06,0,0,1-7.8-.9,9.89,9.89,0,0,1-1.51-.58,7.62,7.62,0,0,1-1.36-.83,9.48,9.48,0,0,1-1.2-1.1,13.7,13.7,0,0,1-1.11-1.42,37.3,37.3,0,0,1-3.61-7.78c-1.12-2.89-2.12-5.82-3-8.74-1.86-5.84-3.41-11.64-4.62-17.1A147.42,147.42,0,0,1,709,197.13c0-1.41,0-2.82.05-4.23s.07-2.82.16-4.23l.11-2.1c0-.66.08-1.29.13-1.94l.33-3.91a8.32,8.32,0,0,1,1.13-3.8,4.67,4.67,0,0,1,3.34-1.91,14.15,14.15,0,0,1,4,.09l4,.54c-2-.32-3.9-.75-5.86-1a10.78,10.78,0,0,0-2.95.08,4.8,4.8,0,0,0-2.57,1.35,5.62,5.62,0,0,0-1.32,2.59,20.24,20.24,0,0,0-.47,2.89c-.21,2-.48,3.84-.61,5.84a161.31,161.31,0,0,0-.29,24,170.07,170.07,0,0,0,9.62,46.8Z" transform="translate(3 71.44)"/><path class="cls-17" d="M827.26,280.05a109.8,109.8,0,0,0,5-28.64,77.63,77.63,0,0,0-1.87-20.35,64.92,64.92,0,0,0-7.52-18.55c-.91-1.39-1.74-2.82-2.72-4.13l-3-3.86c-1.08-1.21-2.22-2.37-3.32-3.54-.29-.29-.56-.59-.85-.87l-.9-.8-1.8-1.58a76.43,76.43,0,0,0-15.69-10.26,72.33,72.33,0,0,1,21.76,17.06,62.22,62.22,0,0,1,12.54,25.32l.24.86.17.86.33,1.71c.21,1.13.47,2.25.64,3.37l.42,3.33c.13,1.11.29,2.21.32,3.29.11,2.17.33,4.33.27,6.44s0,4.21-.14,6.27A116.92,116.92,0,0,1,827.26,280.05Z" transform="translate(3 71.44)"/><path class="cls-17" d="M776.25,180.54a110.26,110.26,0,0,1,18.34,6.93,112.18,112.18,0,0,0-18.28-7.4c-6.17-1.94-12.38-3.45-18.56-4.74S745.41,173,739.35,172l-19.5-3.3c-3.69-.57-7.18-.66-10.33.7a9.17,9.17,0,0,0-3.93,3.25,14.22,14.22,0,0,0-2,4.67c-.29,1.78-.51,3.6-.77,5.39-.11.9-.27,1.79-.33,2.69l-.14,2.12c-.22,2.61-.27,5.22-.37,7.83q-.13,7.84.39,15.65t1.85,15.51q1.31,7.69,3.28,15.25c1.33,5,2.92,10,4.69,14.85.95,2.43,1.77,4.8,2.95,7.34a24.87,24.87,0,0,0,5,7.48,15.6,15.6,0,0,0,4,2.88,18.47,18.47,0,0,0,4.48,1.54,49.84,49.84,0,0,0,8.13.79c4.59.22,9.18.44,13.76.56-4.75-.22-9.47-.55-14.16-.89a48.91,48.91,0,0,1-7.48-.93,18.76,18.76,0,0,1-4-1.39,15,15,0,0,1-3.62-2.49,21.61,21.61,0,0,1-4.71-6.71,71.21,71.21,0,0,1-2.68-6.83c-.83-2.23-1.52-4.51-2.26-6.77l-1-3.42c-.34-1.14-.65-2.28-.94-3.43a170,170,0,0,1-5-55.67l.31-3.67.56-4.18.28-2.09c.15-.67.31-1.33.51-2a9.08,9.08,0,0,1,1.93-3.47,7.44,7.44,0,0,1,3.45-2,13.45,13.45,0,0,1,4-.42,32.63,32.63,0,0,1,4.11.44l4.06.68,25.85,4.3a237.88,237.88,0,0,1,25.23,5.55,112.64,112.64,0,0,1,23.73,9.58c1.09.62,2.28,1.39,3.42,2.09a94.1,94.1,0,0,0-21.55-10.64A174.08,174.08,0,0,0,758,176.68c-7.51-1.58-15-2.81-22.38-4.06l-11.09-1.88-3.49-.6c-1.27-.22-2.55-.42-3.79-.53a15,15,0,0,0-7.13.79c3.13-1.3,6.59-1,10.19-.46l8.73,1.4,15.61,2.47c5.23.84,10.5,1.75,15.78,2.83S771,179,776.25,180.54Z" transform="translate(3 71.44)"/><path class="cls-17" d="M714.58,249.25c.64,2.11,1.29,4.18,2,6.24.93,2.36,1.78,4.72,2.86,6.95-.59-1.39-1.14-2.82-1.62-4.26C716.65,255.23,715.58,252.24,714.58,249.25Z" transform="translate(3 71.44)"/><path class="cls-17" d="M713.46,186.18l.07-.48c.11-1,.16-2.09.34-3.15a4.41,4.41,0,0,1,.53-1.5,2.61,2.61,0,0,1,1.19-1,5.87,5.87,0,0,1,3.17-.23l3.3.52,15.44,2.27c5.24.79,10.5,1.6,15.77,2.59-4.76-.95-9.56-1.76-14.32-2.55l-14-2.29-3.23-.51-2.09-.3a7.9,7.9,0,0,0-4,.08,2.7,2.7,0,0,0-1.44,1.22,5,5,0,0,0-.53,1.82C713.53,183.88,713.51,185.07,713.46,186.18Z" transform="translate(3 71.44)"/><path class="cls-17" d="M760.18,192.71l4.19,1.08,4.11,1.17c1.3.23,2.52.55,3.79.83l-2.84-.94-2.9-.86C764.45,193.49,762.29,193.14,760.18,192.71Z" transform="translate(3 71.44)"/><path class="cls-17" d="M810.38,281a122.31,122.31,0,0,0,3.92-13.6L815,264l.32-1.7.24-1.7c.15-1.14.32-2.27.46-3.4l.27-3.37c.12-1.12.13-2.24.14-3.35s.08-2.23,0-3.32a63.28,63.28,0,0,0-.49-6.51,59.16,59.16,0,0,0-1.08-6.3c-.21-1-.58-2-.85-3l-.43-1.5c-.14-.5-.37-1-.55-1.45l-1.12-2.86-1.39-2.72-.68-1.35-.83-1.27c-.55-.84-1.07-1.7-1.63-2.53a50.23,50.23,0,0,0-3.86-4.62c-.72-.71-1.34-1.5-2.11-2.15l-2.28-2a58.91,58.91,0,0,0-10.27-6.78l-1.37-.75-1.44-.66-2.87-1.34c-2-.77-3.92-1.64-6-2.31-1.61-.46-3.23-.91-4.9-1.27,11.06,3.73,21.2,8.78,28.57,15.91a49.24,49.24,0,0,1,14,26.06,13.32,13.32,0,0,1,.3,1.55l.28,1.71.32,1.81c.08.62.12,1.26.19,1.89.09,1.28.29,2.54.27,3.77s0,2.39-.05,3.42a101.45,101.45,0,0,1-2,14.6c-.22,1.21-.57,2.4-.84,3.59s-.57,2.39-.94,3.57l-1,3.54-1.17,3.5A118.74,118.74,0,0,1,797.62,307a107.77,107.77,0,0,0,7-12,139.27,139.27,0,0,0,5.55-13.13Z" transform="translate(3 71.44)"/><path d="M750.63,447c-.72-10.2-1.48-19.62-2.34-27.75.2-22-.77-38.61-1.81-55.4s-2.13-33.78-1.94-56.62c-.24-20.29-.62-37.64-.9-54.79-.14-8.57-.25-17.09-.28-25.91,0-4.41,0-8.89,0-13.49,0-2.3,0-4.62,0-7a4.64,4.64,0,0,1,.43-2.35,1.24,1.24,0,0,1,.36-1.19,3,3,0,0,1,1.59-.59l.58-.09.31,0a2.65,2.65,0,0,1,.39,0l2.5-.07c1.73,0,3.6,0,5.57.13a115.05,115.05,0,0,1,27.22,5.12c2.42.77,4.86,1.58,7.27,2.51,1.21.44,2.41.92,3.6,1.42s2.31,1,3.4,1.48a27.46,27.46,0,0,1,5.7,3.59,10.21,10.21,0,0,1,3.2,4.1,5.88,5.88,0,0,1,.39,2,6.7,6.7,0,0,1-.29,2,10.87,10.87,0,0,1-2.61,4,27.71,27.71,0,0,1-4.22,3.43,51.24,51.24,0,0,1-4.57,2.75c-4.22,2-8.06,3.65-11.21,4.88-1.57.65-3,1.16-4.17,1.63s-2.16.85-2.89,1.17c-1.46.63-1.91,1-1.1,1.08a27.4,27.4,0,0,0,6.47-1.07A85.78,85.78,0,0,1,767.05,245c-1.7.23-3.14.32-4.42.42s-2.41.1-3.5.13l-7.1.08c-2.87,0-6.56.1-12.06-.12,2.5-.26,5-.62,7.42-1a110.48,110.48,0,0,1-11.3-1.3,82,82,0,0,1-12.19-2.69,25.83,25.83,0,0,1-9-3.48,25.25,25.25,0,0,1-6.78-14.13,35.38,35.38,0,0,1,.88-14.69,57,57,0,0,1,6.37-14.6,65.56,65.56,0,0,1,5.06-7.39,27.31,27.31,0,0,1,6.93-6.34,30.88,30.88,0,0,0-3.76,2.62,5.7,5.7,0,0,1-1.21.89c-.17,0,.77-1.22,2.22-2.59a26,26,0,0,1,2.48-2,30.16,30.16,0,0,1,2.64-1.65c1.65-.9,2.84-1.43,2.26-1.54,1.05-.23,2.88-.61,5-.87s4.45-.42,6.51-.47c4.14-.1,7,0,4,.32,6.06-.2,12-.3,17.73-.23s11.27.26,16.35.87a37.67,37.67,0,0,1,13.5,3.94,19.3,19.3,0,0,1,7.93,7.85,29.71,29.71,0,0,1,4.51,7.19,40.66,40.66,0,0,1,2.84,10.32,73.17,73.17,0,0,1,.74,10.14c.05,3.34,0,6.66-.13,10s-.18,6.76-.28,10.27l.73,1.95a132.66,132.66,0,0,1-.6,17.65,82,82,0,0,1-3.16,16.37,101.34,101.34,0,0,1-6.09,18c-.35.75-.67,1.52-1,2.26l-1.17,2.2c-.76,1.5-1.62,2.94-2.5,4.39A88.2,88.2,0,0,1,791,306a156.89,156.89,0,0,1-14.13,15.12c-4.94,4.72-9.89,9.22-14.6,13.49-9.94,7.78-12.64,10.1-15,12.49-1.16,1.18-2.25,2.34-4.23,4a75.7,75.7,0,0,1-9.8,7c-3.24,1.76-7.11,3.77-11.25,5.73s-8.53,3.91-12.77,5.71-8.32,3.47-11.84,4.88-6.49,2.58-8.59,3.24c9.06-4.13,14.22-6.67,19.44-9.38,2.62-1.35,5.27-2.69,8.47-4.26s6.95-3.34,11.68-5.75c-1.87.8-.84.1,1.46-1.28s5.77-3.62,8.87-5.82a79.27,79.27,0,0,0,6.8-5.24c1-.93.24-.56-3.73,1.94a123.16,123.16,0,0,1-12.91,8.68,155,155,0,0,1-14.51,7.33c-10.06,4.5-20.69,8.44-30.79,13.37s-19.63,11-27.06,18.74a55.91,55.91,0,0,0-9.21,12.56,46.85,46.85,0,0,0-4.64,13.75c-.33-.79-1.35,1.61-2.11,6.09a88.35,88.35,0,0,0-.79,18c.12,3.52.46,7.17.71,10.81l.57,5.42c.19,1.78.38,3.54.64,5.25.49,3.42.94,6.65,1.5,9.52s1,5.41,1.44,7.41L644.3,486c.32,1.75.6,3.44.94,5.1l1.1,4.89.56,2.45c.2.81.44,1.62.66,2.45.47,1.64.94,3.31,1.43,5.05a155.57,155.57,0,0,0,10,24.8,151.08,151.08,0,0,0,21.71,33.13c8.47,9.71,18,17.64,26.93,24.71,6.61,5.18,13.9,10.07,21.14,14.76s14.56,9.18,21.54,13a198.56,198.56,0,0,0,19.46,9.46,130.68,130.68,0,0,0,14.16,5c-18.59-8.2-35.36-18.53-50.89-28.47-7.75-5-15.23-9.81-22-14.85a113.69,113.69,0,0,1-17.79-15.91,140.08,140.08,0,0,0,12.82,10.71c3.57,2.65,6.51,4.61,9.34,6.4,5.66,3.55,10.85,6.39,20.23,11.86l-9.21-6.82,8,4.73c-3.59-3.18,7.07,3,6.28,1.57l-14.14-9.2c-4.69-3.08-9.31-6.17-13.79-9.36,7.07,5.36,8.22,6.47,6.85,6s-5.1-2.52-7.44-3.71c-4.61-3.39-9.11-6.88-13.35-10.59,1.37,1.42,4.09,3.79,5.23,4.89s.6,1-4.36-2.72c-2.6-2.23-5.65-4.79-8.58-7.59-1.49-1.37-2.85-2.91-4.21-4.39a41.85,41.85,0,0,1-3.74-4.52c1.57,1.61,3.37,3,5.06,4.43l2.56,2.15,2.66,2a84.5,84.5,0,0,1-17.74-21.57c-4.62-7.67-8.39-15.76-13-25-.37-2.1-.51-4.28-.75-6.4a191.26,191.26,0,0,1-6-18.33l1.14,1.95a209.34,209.34,0,0,1-4.61-22.73C650.48,463,649.81,461.15,649,459c-.29-2.43-.42-4.86-.62-7.18s-.35-4.54-.42-6.55a60,60,0,0,1,.13-9.14c.22,3.62.62,7.29,1.13,11-.06-3.47,0-6.86.17-10.17-.23,3.41-.38,1.32-.41-1.9,0-1.61.06-3.47.15-5.08s.23-2.93.22-3.53A47.79,47.79,0,0,1,651,420a39.53,39.53,0,0,1,4.27-8.95,34.41,34.41,0,0,1,2.41-3.21l1.89-2.11c.82-.79,1.71-1.78,3-2.88,4.48-5.19,11.07-9.81,16.61-12.93,2.75-1.6,5.22-2.86,7-3.85s2.92-1.7,3-2.08c12.55-5.53,26.73-10.08,40.58-17a146.14,146.14,0,0,0,19.6-11.93c6.07-4.33,11.7-8.85,17-13.27l8.69-8.41c12.67-10.12,22-18.84,29.25-29.84s11.84-24,14.17-41.51l0,2.82a165.19,165.19,0,0,0,.8-19.16c.48-6.49.51-12,.43-16.94,0-2.5-.11-4.88-.2-7.21s-.2-4.71-.36-7.12A108.36,108.36,0,0,0,817,198.6a55,55,0,0,0-2.93-9.55,38.15,38.15,0,0,0-6.51-10.51c-.83-.91-1.75-1.73-2.61-2.56a34.32,34.32,0,0,0-8.54-5.35,46.88,46.88,0,0,0-10.61-3.18,73.64,73.64,0,0,0-8.89-1c-2.68-.16-5.09-.21-7.37-.22a98.11,98.11,0,0,0-20.56,2c-3.88.4-8,.64-12.5,1.4a41.54,41.54,0,0,0-6.8,1.71,29,29,0,0,0-6.6,3.27,42.22,42.22,0,0,0-9.78,9.62,87.13,87.13,0,0,0-6.48,9.82c1.35-2.89,2.84-5.66,4.43-8.37a92.91,92.91,0,0,0-6.8,10.11,60.88,60.88,0,0,0-4.59,12.5,42.13,42.13,0,0,0-1.27,10.39,36.1,36.1,0,0,0,2,11.83,31.58,31.58,0,0,0,3.75,7.35,28.37,28.37,0,0,0,7.56,7.39A36.88,36.88,0,0,0,724,250.82a57.77,57.77,0,0,0,19.72,1.63c5.17-.58,7.65-1.47,15.24-2.56a119.87,119.87,0,0,0,34-6.4l-.85-.06c1.15-.6,2.21-1.13,3.19-1.66l2.72-1.5c1.71-1,3.23-1.88,4.61-2.8a43.59,43.59,0,0,0,4-3,24.84,24.84,0,0,0,3.84-4,14.82,14.82,0,0,0,2.86-6.9,13.67,13.67,0,0,0-.29-4.79,15,15,0,0,0-2.35-5c-2.28-3.16-5.74-5.71-10-7.82-1.06-.53-2.17-1-3.34-1.5l-3.54-1.38c-2.46-.9-5.11-1.84-8-2.7.59.57,1.19,1.13,1.76,1.71a73.78,73.78,0,0,0-19.53-5c-3.15-.37-6.45-.69-10.26-.89-1.91-.1-3.93-.21-6.13-.27s-4.45-.12-7.43-.1a20.18,20.18,0,0,0-2.37.1,7.6,7.6,0,0,0-2.72.74,4.89,4.89,0,0,0-2.16,2.38,10.6,10.6,0,0,0-.76,3.57c0,.65-.06,1.32-.07,2s0,1.34,0,2c0,1.23-.06,2.5-.09,3.8-.06,2.6-.11,5.33-.17,8.12-.18,11.15-.19,23.25.59,32.07-.77,36,2.64,53.43,2.85,84.31-.59,18.56,1.63,31.74-.16,35.32L739,367l-1.7,6.94,1.34.8c-.29,11.16.6,27.2-.56,36.8q1.59,12.93,3.28,25.83c-.45-6.34-.57-13.38-.64-20.46l-.35.73c-.27-6.73-1-23.1-.65-30.89l.66,9.33c0-10.75.88-1.8,1.15,1.2,0,21.55,1.09,15.65,1.93,32.06,0,3.71.08,10.75-.41,8.16.32,4.84.48,13.65.79,21.36s.75,14.3,1.42,14.69l-.09,1.93C747.31,472.11,749,461.09,750.63,447Z" transform="translate(3 71.44)"/><path class="cls-1" d="M786.45,182.53l-.42-.28a27.49,27.49,0,0,1,4.27,2.66c-2.3-3.39-5.57-6.87-9.86-4.49.64-2-2.24-4.48-2.53-4a18.75,18.75,0,0,1-2.49,0c.55.07,1.1.12,1.66.15-.56,0-1.11-.08-1.66-.15-5.1-.4-9.7-2.91-14.79-5.28-1.42-.62-4.11-1.6-6.89-2.47s-5.58-1.65-7.12-2.19l-1.35-.43,1.48.62c-2,.22-3.83.61-5.54.75a3.64,3.64,0,0,0,.93,1.14l-.82-.3c-.87.77-2.64.6-3.5.89.21-.44-.44-.6-1-.71l.21.32a59.29,59.29,0,0,0-6.74-.13.78.78,0,0,1-.6-.34c-.64.1-1.27.24-1.89.37.14-.62-1.59-.52-.69-.92a5.7,5.7,0,0,1-2.12.55,5.13,5.13,0,0,0-2,.65,46.72,46.72,0,0,0-14.48,3.41l.17.21a23,23,0,0,0-2.27,1.39,5.13,5.13,0,0,1-2.62.94c-1.24,1.11-3.11,2.14-3.3,3.51-1.55.61-2,1.48-3.4,2.27.6.47-1.24,1.21-.32,1.43,1.28.53,1.1-.21,2.16.2l-.09-.19c4.23-.34,8.31-.8,12.42-1.26,2.62-1,5.65-1,8.48-1.44,3-.56,6.38-1.06,9-1.64.64-.19,1.1.37,1.64.67a28.34,28.34,0,0,1,4-.06c1.44,0,2.9.13,4.3.09l-.13,0c1.48,0,2.49.84,3.93.89,0-.18.23-.16.35-.24.08.41,2.21.31,4.42.19,1.1,0,2.22-.06,3.09-.05s1.49.1,1.58.25a2.57,2.57,0,0,1,.48,0c2.93,1.05,5.47,3.56,8,4.2a15.64,15.64,0,0,0,2-.58c.32.49.64-.14,1.14.13.77,2.08,1.77,1.72,1.3.89a18.7,18.7,0,0,1,3.22,1.1c.5.07,1,.13,1.51.18s.56.35.6.8c1.07.19.62.46,1.58,1.06,0,.64,3,.27,3.16.58h-.2c1.14.64,1.43,2,2.54,2.63,3,1.91,6.59,3.32,9.38,5.07.33-.52-.7-.22-.34-1,1.65,1,3,2.66,4.64,3.72a3.52,3.52,0,0,1,.49,1.06c.42.51.46-.07.82.23l-.23.51c.82-.06.54,1,1.2,1.15.15-.18.36-.09.54,0-.29.52.62.31.32.77l0,0c.11.08.21.09.3.27.33,0,3.24-.23,3.6-.31l.06.15c.32.17.68-.13.55-.33l.37.26h-.07l.37.26a.54.54,0,0,1-.26.53.76.76,0,0,1,.78.23,15.36,15.36,0,0,1-1.22-2.47c.37,0,.68.53,1,.64a6.37,6.37,0,0,0,1,1.8c.13,0,.56-.48.68-.07-.11.47.31.17.36.59-.38,0-.58-.19-.82-.37-.24.49.44.7.56.95.19-.08.59.37,1,.43-.41.36.08.44.12.79.18.18.42.09.43-.12.36-.44-.67-.8-.06-1.13-.07.28.4.45.63.57.17-.27,0-.3.27-.46.21.21.67,0,.65.41-.09,0-.17-.06-.24-.11.31.22-2.8.65-2.28.75,0-.3,2.79-.44,2.58-.59s.44-.39.29-.6l-.42.18a.73.73,0,0,1,.15-.92c.44.32-2.42,1-1.86,1l-.09-.23c.28-.07.82.06.83.44.16-.26.44-.21.69-.19l0,.09c.27,0,.51.21.59-.21-1.17-.66,2.37-2.19,1.35-3,.12.86-.52.5-1.05.27a1.25,1.25,0,0,0-.23-1c-.34-.14-.31.1-.46.21-.09-.23-.35-.54-.12-.82-.46.22-.24-.46-.61-.51s-.07.17-.36.24c-.35-.27-.85-.64-1.11-.89,0-.36,0-1.07.52-1.36.54.41-.65.59,0,.85.13-.8.63.14,1-.29,0-.4-.4-.64-.77-.75v.12c-.34-.08-1-.29-1.09-.82.21-.19.18-.44.42-.37l-.37-.28c-.09,0-.19.08-.1.2-.29.07-.42-.14-.48-.36.1-.27-2.71-.22-2.55-.34-.29-.16-.15-.56-.57-.48a10.36,10.36,0,0,0,2.79.63c-.09-.41-3.94-.69-3.85-1.25-.22-.1-.51-.2-.6.08-.29-.33.38-.41.26-.79,0,0,0,.13-.13.08l-.06-.46c-.78.07-1.31-.91-2.19-.73a3.21,3.21,0,0,1,1.31-.56V192c.1,0,.45.05.59-.2a1.11,1.11,0,0,0-1.11-.47,1.41,1.41,0,0,1-.09-.32l-.05.1c0-.23,0-.24.09-.32a.15.15,0,0,1,.06,0c.18-.85-1.68-.34-2.12-1.09-.25,0-.09.12-.41.12a11.43,11.43,0,0,0-1.47-1.7c-.4.19-.49.3-.4.78l-.48-.39c.95-.58-.56-1.36.44-1.91A.76.76,0,0,0,790,186c-.15.2-.38.51-.76.31a10.29,10.29,0,0,1-.61-.9c.05-.33.27-.36.37-.59-.87,0-.28-.92-.95-1.21-.45-.14-1.27-.51-1.55,0C786,183.26,786.19,182.9,786.45,182.53Z" transform="translate(3 71.44)"/><path class="cls-1" d="M738.86,242.26l.76.53a24.25,24.25,0,0,1-6.94-5.89,21.41,21.41,0,0,0,3.06,4.43A17.31,17.31,0,0,0,740,244.8c3.06,1.77,6.47,2.24,9.26.91,0,1.08,1.42,2.24,2.94,3s3.06,1,3.15.78c1.29-.24,2.57-.44,3.83-.62l-2.62.31,2.62-.31c2-.28,3.94-.5,5.94-.66s4.14-.34,6.28-.55,4.34-.52,6.61-1a34,34,0,0,0,7-2.13,23.09,23.09,0,0,0,5.16-3.17,21.27,21.27,0,0,0,5.48-6.59,23.05,23.05,0,0,0,2.6-8.35,31.16,31.16,0,0,0,0-6.41,22.21,22.21,0,0,0-.36-2.63,28.38,28.38,0,0,1,.25,3,39.27,39.27,0,0,0-4.33-8.69,6.24,6.24,0,0,0-.22,2l-.39-1.4c-1.32-.82-2.64-3.37-3.66-4.32.55,0,.07-.94-.37-1.77l-.06.48a33.71,33.71,0,0,0-3.12-4.48c-1.17-1.44-2.42-2.81-3.54-4a1.71,1.71,0,0,1-.48-.95,31.94,31.94,0,0,0-2.66-1.9c.62-.34-1.9-2.09-.37-1.45-2.47-.91-4.54-2.48-7-2.63A39.18,39.18,0,0,0,760.31,189c-1.93-.12-3.83-.14-5.7-.12s-3.83.07-5.78.28l.18.24a21.34,21.34,0,0,0-4,1,26.9,26.9,0,0,1-4.3,1.1,18.3,18.3,0,0,0-3,2.51,3.5,3.5,0,0,0-1.19,2.62,5.49,5.49,0,0,0-1.36,2.3,13,13,0,0,0-.41,2.35c.38-.12.41.34.54.7,0,.09.05.17.08.24a1,1,0,0,0,.1.27c.07.12.18.1.35-.2.52-.38.62-.55.68-.76a.92.92,0,0,1,.65-.57l-.2-.08a10.06,10.06,0,0,1,5.4-2.79,26.79,26.79,0,0,1,7.78,0,38.48,38.48,0,0,1,6.67.32c2.25.26,4.43.6,6.44.94a34.44,34.44,0,0,1,6.19,1.41,21.38,21.38,0,0,1,5,2.43c.76.44.83,1.27,1.11,2,2.46,2.18,5.15,6.35,7.27,9.61a.71.71,0,0,1-.07-.18c1.08,1.82,1.09,3.49,1.77,5.22.17-.06.27.21.41.32-.36.28.89,2.75,1.24,5.28a9.77,9.77,0,0,1,0,3.51l-.14.68-.21.52c-.13.3-.24.49-.33.53a2,2,0,0,1-.21.51,9.66,9.66,0,0,1-4.65,2.87c-1.78.58-3.6.9-5.23,1.46-.6.6-1.38,1.14-1.94,1.73-.71-.22-.71.47-1.52.53-2.25-1.36-3.31-.6-2.22-.09a25.55,25.55,0,0,1-4.91.41l-2.21.38a1.11,1.11,0,0,1-1.26-.56c-1.59.16-1.11-.22-2.72-.52-.18-.31-1.2-.17-2.25,0a7.89,7.89,0,0,1-2.33.18l.28-.05c-1.83-.44-2.72-1.84-4.3-2.39-1.08-.46-2.16-.93-3.2-1.45-.53-.25-1-.54-1.54-.8s-.95-.55-1.41-.87a15.85,15.85,0,0,1-4.54-4.33c-.54.36.64.59,0,1.15a9.59,9.59,0,0,1-1.53-3.15,31.07,31.07,0,0,1-.72-3.15,2.63,2.63,0,0,1,.46-1c.15-.62-.33-.31-.31-.76l.55-.1c-.48-.59.57-.9.37-1.38-.22,0-.24-.23-.2-.41.58.06,0-.54.57-.42h0c0-.09,0-.17.13-.25a7,7,0,0,1-.67-1.27,12.78,12.78,0,0,1-.44-1.39h.13c.13-.2-.14-.57-.32-.52l.24-.22v.05a2.65,2.65,0,0,1,.22-.17.86.86,0,0,1,.42.41c-.05-.23,0-.43.2-.43a8.66,8.66,0,0,0-.95-.05,9.4,9.4,0,0,0-1.25.24c0-.35.55-.55.69-.78.48,0,1.15-.05,1.63,0,.05-.06-.18-.7.15-.52.26.38.22-.1.48.16-.1.29-.29.24-.47.31.26.45.53.17.69.28,0-.18.32-.07.44-.23,0,.52.13.32.19.61.07.06.13-.14.12-.33.08-.58-.4-.34-.27-.93.06.27.29.17.43.17,0-.3-.07-.24.06-.52.16.08.43-.23.46.11-.06.07-.11,0-.16,0,.11,0-.33.45-.55.92a1.45,1.45,0,0,0-.22.84,1.59,1.59,0,0,1,.34-1c.28-.4.7-.68.63-.71-.11-.19.28-.5.14-.65a3.74,3.74,0,0,0-.27.31,1,1,0,0,1-.1-.9c.22.07-.21.51-.48,1s-.39.93-.31.77a.71.71,0,0,0-.1-.14c.07-.22.38-.4.47-.05a.51.51,0,0,1,.35-.48l0,.06c.17-.13.35,0,.37-.4-.45-.1-.22-.83.19-1.56s1-1.42.14-1.73c.55.83-.36.57-1,.64a1.22,1.22,0,0,0-.94-.72c-.47.11-.24.28-.31.46-.27-.11-.79-.12-.81-.47-.26.5-.68-.09-1.08.22s.09.16-.09.46a11.55,11.55,0,0,0-1.76.84c-.35-.17-1.22-.17-1.2-.88.89-.61.21.88,1,.14-.83-.35.66-.71.57-1.28a1.9,1.9,0,0,0-1.59.76h.16a5.23,5.23,0,0,1-1.72,1.49c-.11-.28-.44-.2-.22-.57q-.27.29-.54.6c0,.13,0,.27.2.12a1.09,1.09,0,0,1-.63.81c-.15,0-.45,1-.52,2.05s0,2-.07,1.9c-.11.5-.56.55-.37,1.1.11.05.07-1.21.25-2.44s.54-2.4.39-2c-.27.13-.7,1.75-.74,3.29s.16,3-.12,3.12c0,.39.06.86.35.77-.12.64-.55-.2-.81.27.05,0,.15,0,.14.11l-.35.47a5.87,5.87,0,0,1,.34,1.79,3.17,3.17,0,0,0,.63,1.75,3.44,3.44,0,0,1-1.4-1.14l.13-.15c-.12-.08-.28-.67-.56-.62a2.76,2.76,0,0,0,.49,2,4,4,0,0,1-.12.44l.11,0c-.11.28-.14.27-.28.21l-.07,0c-.33.32-.06,1,.41,1.7a6.36,6.36,0,0,1,1.09,2.11c.26.29.13,0,.49.32a13.19,13.19,0,0,0,1.18,3.47c.56.15.69.08.69-.55l.5.89c-1.36-.17.5,2.08-.9,1.87a1.93,1.93,0,0,0,1,1.26c.22-.12.57-.31,1.08.24.52.95.42.69.84,1.52-.06.37-.38.25-.52.46,1.31.58.44,1.33,1.54,2.09.7.46,2.09,1.33,2.41.89C739.38,241.6,739.19,241.93,738.86,242.26Z" transform="translate(3 71.44)"/><path class="cls-1" d="M892.37,217l.66-.14a65,65,0,0,1-6.57,1.66c5.33.25,11.21.21,13.79-4.61,1,2,5.68,1.75,5.64,1.26a21.3,21.3,0,0,1,2.63-1.58,20.37,20.37,0,0,0-1.86,1,20.37,20.37,0,0,1,1.86-1c5.72-2.85,12.68-3.16,19.23-2l1.63.22c.62.09,1.3.24,2,.36,1.48.21,3.07.67,4.67,1.06.79.24,1.56.52,2.31.77a16.27,16.27,0,0,1,2.11.84l1.81.83c.52.29,1,.57,1.36.8l1.32.83c-.7-.53-.7-.55-1.41-1.05a32.32,32.32,0,0,1,6.24,1.48,3.74,3.74,0,0,0-.62-1.52c.28.23.55.45.82.69,1.27-.29,3.2.91,4.31,1.2-.45.27.22.79.8,1.27l-.08-.42c2.28,1.72,5.25,3.37,7.38,4.95a1.19,1.19,0,0,1,.47.74l2.3,1.19c-.52.39,1.44,1.67.21,1.28,2,.51,3.39,2,5.39,2.39a69.17,69.17,0,0,0,18.9,8.28l-.06-.28c2.36.58,4.74.21,7.29,1.58,2.21-.08,5.09.41,6.23-.6,2.27.51,3.34.14,5.6.38-.41-.76,2.31-.2,1.35-1-1.21-1.23-1.48-.51-2.49-1.53l0,.21c-5.35-2.46-10.57-4.92-15.75-7.55-3.77-1.09-7.35-3.39-10.9-5.28-3.88-2-8-4.25-11.48-6.09-.86-.39-1.11-1.21-1.59-1.92-3.1-1.86-6.84-4.79-10.74-6.73a.84.84,0,0,1,.17.13c-2-1.09-3.21-2.53-5.34-3.47-.07.17-.39,0-.59,0,0-.45-3.28-1.64-6.77-2.21-1.71-.37-3.46-.53-4.8-.69a12.92,12.92,0,0,1-2.48-.42l-.73,0c-1.17-.31-2.33-.7-3.51-1s-2.36-.74-3.53-1-2.33-.52-3.46-.69a20,20,0,0,0-3.25-.11,15.88,15.88,0,0,0-2.57,1.34c-.75-.31-.83.4-1.7.37-2.34-1.48-3.55-.59-2.35-.14-1.77.42-3.55.55-5.1.86-.71.24-1.4.49-2.09.78a1.14,1.14,0,0,1-1.36-.26c-1.52.56-1.15,0-2.82.23-.53-.49-3.87,1.85-4.34,1.82l.24-.15c-1.88.37-3.41-.43-5.23,0-5.14,1-10.37,3.11-14.91,4.35.15.61.95-.45,1.25.32-2.67.74-5.56.86-8.25,1.62a4.82,4.82,0,0,1-1.5-.23c-.92,0-.41.44-1.06.57l-.25-.51c-.77.73-1.52-.17-2.31.33,0,.23-.28.36-.59.44-.19-.56-.92.34-1-.19v.05a1.34,1.34,0,0,1-.56.1c-.28.31-3,2.91-3.33,3.27l-.19,0c-.49.17-.56.66-.24.67l-.61.16.05-.06-.61.16a.42.42,0,0,1-.24-.54,1.4,1.4,0,0,1-1,.54,23.08,23.08,0,0,1,3.56.42c-.34.33-1.17.26-1.59.47a10.7,10.7,0,0,0-2.75-.17c-.18.09-.1.77-.61.62-.34-.37-.47.17-.92,0a2,2,0,0,1,1.17-.49c-.24-.5-1.1,0-1.47-.08-.1.21-.93.3-1.38.6.06-.57-.5-.19-.88-.36-.35,0-.49.31-.3.44.06.58,1.42-.1,1.14.61-.21-.22-.83.08-1.17.22.09.29.31.14.18.5-.41.06-.71.54-1,.31,0-.1.22-.1.34-.13-.52.13,2.12-2.8,1.52-2.42.26.2-2.32,2.67-2,2.58s-.05.6.3.6l.24-.47c.48,0,.82.43.73.68-.74.19,1.44-2.68.91-2.18l.29.06c-.2.28-.85.67-1.23.45.09.29-.23.51-.49.71l-.12,0c-.26.25-.71.32-.39.64,1.78-.63-.23,3.33,1.56,2.94-.93-.41,0-.74.78-1.06a1.54,1.54,0,0,0,1.19.39c.46-.2.2-.32.24-.51.31.06.86,0,.9.37.24-.52.68.07,1.08-.21s-.09-.17.13-.45c.6-.15,1.45-.36,1.94-.43.28.26,1,.64.77,1.26-.91.22.09-.91-.81-.5.63.59-.76.46-.75,1.06a1.66,1.66,0,0,0,1.47-.21l-.13-.06a2.45,2.45,0,0,1,1.85-.44c0,.29.24.41-.06.58l.62-.15c0-.11.11-.22-.09-.22a.71.71,0,0,1,.82-.19c.15.25,2.88-2.17,2.83-2,.44-.15.67.22,1-.19a19.69,19.69,0,0,0-3.34,2c.47.18,4.54-2.94,5-2.52.32-.12.7-.31.53-.55.6-.05,0,.57.48.7,0,0-.08-.13,0-.16l.49.23c.72-.7,2.14-.55,2.86-1.4a3.75,3.75,0,0,1-.78,1.44l-.15-.11c-.06.11-.5.36-.4.63a2.13,2.13,0,0,0,1.55-.65,3.4,3.4,0,0,1,.38.12,1,1,0,0,1,0-.1c.24.11.23.14.2.27s0,0,0,.07c.59.69,2-1.19,3.11-1.1.26-.21,0-.14.3-.41a22.06,22.06,0,0,0,3-.16c.23-.45.21-.6-.32-.82l.84-.15c-.44,1.15,1.79.39,1.27,1.56a1.31,1.31,0,0,0,1.2-.26.64.64,0,0,1,.49-.82,13.35,13.35,0,0,1,1.4.09c.25.25.05.44.16.68.88-.71,1.08.36,2,0,.56-.27,1.72-.67,1.58-1.21C892.2,216.2,892.31,216.59,892.37,217Z" transform="translate(3 71.44)"/><path class="cls-1" d="M870.31,265.74l.36-.23a32.49,32.49,0,0,1-3.43,2.7,15.59,15.59,0,0,0,4.92-1.89,4,4,0,0,0,1.41-1.71,5.64,5.64,0,0,0,.28-2.74c1.48,1.51,4.09,1,3.87.58a8,8,0,0,1,.94-1.58,7,7,0,0,0-.73,1,7,7,0,0,1,.73-1,8.08,8.08,0,0,1,5-2.71,24.31,24.31,0,0,1,6.53-.16c2.46.13,9.92.16,12.58.66l1.17.17-1.31-.33a42.5,42.5,0,0,1,4.47-1.61,3.17,3.17,0,0,0-.9-1l.73.19c.66-.9,2.19-.84,2.92-1.21-.16.46.4.57.89.65l-.19-.31c1.88.22,4,0,5.69.26a.62.62,0,0,1,.46.4l1.61-.15c-.21.59,1.17.76.38,1,1.27-.54,2.31.15,3.55-.33,1.91.46,3.85.95,5.81,1.53,1,.33,2,.61,2.94,1l3,1.12,0-.24c1.44.5,3.28.39,4.46,1.92,1.56.24,3.28,1.24,4.57.69,1.28,1,2.18,1,3.53,1.82.16-.73,1.61.53,1.42-.36-.1-1.37-.68-.87-.81-2L947,262a37.79,37.79,0,0,0-9-9.94c-2.93-1.32-5.93-3.29-9.12-4.26a33,33,0,0,0-10.13-1.24c-.7.1-1.12-.51-1.67-.87-2.66,0-6-.39-8.83,0l.14,0c-1.52.1-2.66-.53-4.13-.38,0,.18-.22.2-.33.3-.14-.42-2.29.09-4.41.69s-4.24,1.27-4.51,1.05c-.14,0-.29.09-.45.12-3-.18-6.41-1.57-9.22-1a13.42,13.42,0,0,0-1.6,1.48c-.55-.27-.52.45-1.12.47-1.87-1.34-2.64-.41-1.69,0-1.19.53-2.47.74-3.56,1.19a15.71,15.71,0,0,0-1.37.93c-.38.31-.71.16-1.09-.1-1,.72-.86.15-2.06.6-.27-.19-.88.4-1.44,1s-1,1.37-1.2,1.38l.12-.18c-1.27.65-2.65.3-3.83,1.08-3.33,2-5.87,5.13-8.27,7.2.42.46.41-.6,1,0-1.42,1.24-3.28,2-4.63,3.15a2.87,2.87,0,0,1-1.09.1c-.56.2,0,.43-.39.65l-.42-.38c-.12.73-1.05.14-1.29.65.13.18,0,.33-.15.44-.4-.44-.41.41-.74,0l0,0c-.09.06-.13.15-.3.16,0,.16-.13.85-.27,1.54s-.28,1.43-.29,1.59l-.14,0c-.23.18-.07.62.13.6l-.32.18v-.05l-.31.18a.67.67,0,0,1-.37-.47c0,.29-.17.52-.39.55a14.79,14.79,0,0,1,2.4.12c-.08.31-.65.32-.83.53a7.06,7.06,0,0,0-1.78,0c-.08.08.21.69-.16.57-.34-.33-.23.16-.57,0,.07-.33.32-.36.54-.46-.32-.44-.68,0-.92-.05,0,.2-.45.28-.63.52-.14-.51-.35-.19-.62-.37-.19,0-.2.27,0,.4.2.53.81,0,.86.61-.19-.21-.48,0-.64.15.13.28.22.15.24.47-.23.05-.29.49-.54.26,0-.09.11-.09.17-.11-.14.05,0-.59.12-1.18s.2-1.15.09-1c.24.18-.6,2.36-.44,2.31s.12.56.33.57l0-.43c.28,0,.61.42.62.65-.38.14.14-2.44,0-2l.2.07c0,.24-.33.58-.62.36a.62.62,0,0,1-.1.65l-.08,0c-.09.22-.35.27-.07.58.46-.26.65.51.82,1.32s.33,1.67.9,1.48c-.73-.38-.15-.7.26-1a1.16,1.16,0,0,0,.92.36c.26-.19,0-.3,0-.48.23.06.58,0,.72.31,0-.49.49,0,.68-.26s-.11-.15-.06-.42c.36-.18.89-.41,1.19-.54.28.21.94.47,1,1.06-.56.3-.28-.84-.75-.37.66.48-.37.5-.17,1a.82.82,0,0,0,1-.35l-.12,0c.21-.26.63-.76,1.15-.63.09.27.33.34.18.53l.39-.22c0-.1,0-.2-.15-.17.05-.29.29-.32.51-.3.22.19,1.1-2.36,1.13-2.19.23-.21.56.07.6-.35a12.09,12.09,0,0,0-1.45,2.32c.2,0,.7-.8,1.17-1.61s.91-1.6,1.16-1.47c.16-.16.32-.4.09-.57.38-.16.28.48.67.49,0,0-.12-.09,0-.14l.44.09c.14-.74,1.2-.92,1.25-1.79a3,3,0,0,1,.19,1.38l-.15-.06c0,.1-.17.4,0,.61a1,1,0,0,0,.74-.89c.11,0,.22,0,.32,0l-.08-.08c.22,0,.23.07.27.18a.14.14,0,0,1,0,.07c.76.43.75-1.45,1.55-1.63.06-.23-.09-.12,0-.41a10.89,10.89,0,0,0,1.95-.83c-.08-.42-.17-.54-.64-.6l.48-.32c.31,1.05,1.4-.08,1.67,1a.64.64,0,0,0,.65-.49c-.14-.2-.38-.51-.1-.78a7.94,7.94,0,0,1,1-.23c.29.15.26.36.45.52.21-.76.9.07,1.32-.4.23-.33.78-.89.42-1.31C869.78,265.07,870.05,265.37,870.31,265.74Z" transform="translate(3 71.44)"/><path class="cls-1" d="M888.33,274.86l.27.3A10.42,10.42,0,0,1,886,272a7.85,7.85,0,0,0,2,4.73c1.14,1.1,2.75,1.41,4.6.16-.9,2,1.18,4.09,1.46,3.61a13.46,13.46,0,0,1,1.87-.28,10.38,10.38,0,0,0-1.23.07,10.38,10.38,0,0,1,1.23-.07,14.31,14.31,0,0,1,5.23.56c1.66.46,3.34,1.16,5,1.76,1.94.7,7.14,1.36,9,1.92.28.08.55.15.83.21l-.92-.38,1.64-.83.77-.37A3.52,3.52,0,0,1,918,283l.62-.16c-.16-.15-.25-.3-.4-.46l-.5-.54c.09,0,.15.07.26.1l.4.09c.68-.91,2.27-.88,2.87-1.33,0,.46.58.5,1.13.53l-.31-.28a7.36,7.36,0,0,0,5.05-2.06.68.68,0,0,1,.59-.13,6.66,6.66,0,0,0,.6-1.53c.46.52,1-.84,1,.08a9.63,9.63,0,0,1,.15-2,4.21,4.21,0,0,0-.16-2c.11-1,.17-2.12.18-3.19,0-.58,0-.87,0-1.28s-.08-.8-.13-1.19a16.38,16.38,0,0,0-1.38-4.78l-.22.11c-.55-1.08-2-1.72-1.94-3.06-1.07-.63-2-1.57-3.3-1.17a1.73,1.73,0,0,0-1-.56c-.34-.11-.7-.16-1.08-.32a.69.69,0,0,1-.66.3c-.19,0-.49,0-.47.33-.39.92.2.41-.15,1.12l.16-.14a43.73,43.73,0,0,1-.09,5.08c.67,1.22.23,2.82.28,4.4.1.32.24.54.39.93a6.54,6.54,0,0,1,.47,1.32c.09.29-.45-.06-.76-.26-.06.28-.34.37-.61.41a1.87,1.87,0,0,0-.82.26l0,0c-.16.06-.31-.08-.47-.21a2.64,2.64,0,0,0-1.22-.2c0,.18-.13.2-.19.29-.08-.42-1.36,0-2.65.51s-2.62.94-2.76.69l-.28.08c-1.81-.47-3.39-2.31-4.78-2.39-.37.35-.78.63-1.12,1-.18-.4-.37.28-.65.12-.4-1.82-1-1.24-.73-.56a5.39,5.39,0,0,1-1.8-.34l-.86.14c-.25.06-.29-.22-.26-.63-.61,0-.3-.31-.77-.68.09-.58-1.68.31-1.76.06l.12,0c-.54-.39-.36-1.59-.79-1.92-1.08-1.17-2.44-1.86-2.84-2.86-.53.33.24.11-.42.59a1.66,1.66,0,0,1-.08-1.06,2.86,2.86,0,0,0,.19-.86,2.27,2.27,0,0,1,.6-.38c.19-.17-.31,0-.25-.12l.55-.12c-.48-.06.59-.26.35-.32s-.26,0-.24-.06c.6,0,0-.1.5-.11h0s0,0,.08-.05a5.62,5.62,0,0,1-1-.26,10.2,10.2,0,0,1-1-.43h.1c0-.07-.42-.21-.54-.19l.06-.09,0,0,0-.08a1.92,1.92,0,0,1,.57.16c-.18-.1-.27-.18-.15-.19a7.54,7.54,0,0,0-1.58.13c-.19-.14.17-.22.13-.33.4,0,.79-.08,1.08-.07,0,0-.61-.33-.32-.27s0-.08.34,0c.17.17.06.16,0,.2.49.22.37.05.53.09-.13-.09.05-.09,0-.21.42.3.3.15.54.29.06,0-.09-.13-.24-.23-.45-.36-.36-.06-.82-.45.24.14.2,0,.23-.05a2.78,2.78,0,0,1-.42-.33c.1,0-.13-.3.13-.13.06.07,0,.06,0,.07a8.73,8.73,0,0,1,.67.74,3.12,3.12,0,0,0,.63.56,3.83,3.83,0,0,1-.74-.7c-.28-.33-.49-.7-.52-.68s-.38-.41-.51-.42l.24.3a2,2,0,0,1-.73-.48c.08-.05.39.39.72.75s.65.66.55.54l-.15,0c-.14-.14-.22-.35.07-.18a.9.9,0,0,1-.33-.41l.05,0c-.08-.14,0-.16-.3-.4-.1.16-.67-.37-1.22-1s-1.07-1.25-1.37-1c.7.22.47.51.36.76a1.11,1.11,0,0,0-.81-.13c-.06.18.15.22.27.34a.87.87,0,0,1-.68-.09c.3.34-.36.08-.31.32s.17.07.3.26c-.14.18-.32.46-.45.62a2.7,2.7,0,0,1-1.41-.33c.21-.37.74.41.78,0-.77-.09-.08-.42-.56-.71-.38,0-.49.28-.48.55l.11,0c0,.24.06.69-.39.82-.25-.12-.47-.06-.49-.24l-.13.3c.08.06.15.12.23,0,.17.19,0,.31-.14.39s.07.47.35.88.59.78.49.76c0,.2-.42.25-.13.45.11,0-.13-.47-.36-1s-.42-1-.39-.86c-.17.07.08.77.4,1.38s.65,1.13.4,1.22c0,.15.11.33.39.26-.11.27-.55,0-.79.21,0,0,.14,0,.13,0l-.32.24c.49.34.06,1.07.75,1.34a2.68,2.68,0,0,1-1.24-.27l.14-.08c-.1,0-.26-.24-.53-.18-.12.33,0,.58.34.8a2,2,0,0,1-.17.23l.1,0c-.14.15-.17.15-.28.15h-.07c-.37.21-.16.48.13.74s.65.54.58.88c.18.09.14-.05.37.06a4.77,4.77,0,0,0,.06,1.73.74.74,0,0,0,.74-.49l.13.42c-1,.19-.28,1.2-1.32,1.39a.48.48,0,0,0,.32.62c.21-.12.54-.33.75-.08,0,.56.06.4.08.89-.18.27-.37.25-.54.43.7.18-.15.86.31,1.24.32.21.87.65,1.25.25C888.92,274.25,888.67,274.55,888.33,274.86Z" transform="translate(3 71.44)"/><path class="cls-1" d="M998.08,136.19l.53.93c-1.88-2.89-3.76-6-5.61-9,3,7.45,6.3,15.89,12.71,19.1-1.45,1.62,1.26,8.63,1.79,8.52,1.07,1.18,2.06,2.44,3,3.73-.64-.9-1.29-1.79-2-2.66.67.87,1.32,1.76,2,2.66a60,60,0,0,1,4.16,6.57c1.22,2.32,2.41,4.73,3.44,7.24a100.72,100.72,0,0,1,5,15.69,115.46,115.46,0,0,1,2.76,14,59.18,59.18,0,0,1,.23,13.94c-.1.87-.21,1.73-.31,2.6.24-1.44.27-1.44.49-2.89a68.08,68.08,0,0,1,.64,10.49,6.1,6.1,0,0,0,1.26-2c-.13.56-.25,1.12-.4,1.69.67,1.67.08,5.3.11,7.07-.39-.45-.73.88-1,2.06l.39-.41c-1,4.47-1.87,9.82-2.83,13.92a2.43,2.43,0,0,1-.6,1.2l-.5,4c-.55-.44-1.22,3.21-1.21,1.22.09,3.13-.92,6.13-.66,9.17a131.54,131.54,0,0,0-.74,32.3l.23-.26c.41,3.75,1.67,7,1.39,11.53.92,3.2,1.53,7.76,2.88,9,.34,3.7,1.06,5.14,1.57,8.77.6-1,1,3.5,1.36,1.68.77-2.46,0-2.55.62-4.64l-.21.08c.49-9.6.65-19.1,1.05-28.59-.5-6.35.27-13.16.79-19.63.25-3.5.57-7.11,1-10.61s.88-6.93,1.28-10a9.62,9.62,0,0,1,1.44-3.57c.95-5.63,2.8-12.81,3.49-19.48,0,.12-.05.24-.07.32.43-3.52,1.44-6.1,1.6-9.66-.18,0-.15-.54-.22-.81.45-.26.39-5.57-.41-10.86s-2.26-10.4-2.13-11l-.31-1.09c-1-7.27-1.79-15-4.15-20.89-.86-1.14-1.74-2.43-2.58-3.32-.08-1.15-.81-1.08-1.23-2.34.27-3.76-1.2-5.27-1.05-3.44-1.33-2.43-2.34-5-3.43-7.18l-1.85-2.89a2.27,2.27,0,0,1-.41-2c-1.34-2.11-.64-1.64-1.68-4,.27-.86-3.91-5.32-4.11-6l.28.33c-1.33-2.7-1.4-5-2.82-7.57-3.81-7.29-9.14-14.54-13.45-20.8-.55.3,1.08,1.28.47,1.84-1.25-1.87-2.41-3.8-3.6-5.73a63.21,63.21,0,0,0-3.77-5.66,10.83,10.83,0,0,1-.83-2.15c-.75-1.26-.78-.47-1.39-1.34l.34-.47c-1.35-.9-1-2.15-2.09-3.13-.22.09-.58-.31-.92-.71.44-.41-1.08-1.18-.62-1.48l0,0a3.24,3.24,0,0,1-.55-.75l-3-1.88c-1.39-.83-2.78-1.65-3.08-1.79l-.11-.27c-.58-.6-1.14-.56-.89-.13l-.67-.78L979,94l-.66-.78a.33.33,0,0,1,.36-.48,3.66,3.66,0,0,1-1.41-1.16,39,39,0,0,1,2.5,4.87c-.62-.36-1.22-1.49-1.77-2a21.17,21.17,0,0,0-2.13-3.69c-.24-.21-.87.1-1.15-.62.09-.57-.57-.56-.74-1.22a5.07,5.07,0,0,1,1.49,1.39c.3-.46-.9-1.47-1.17-2-.29-.07-1.12-1.13-1.82-1.61.63-.11-.24-.71-.4-1.26-.36-.45-.76-.55-.72-.26-.53.27,1.35,1.82.37,1.69,0-.34-.8-1-1.24-1.45-.22.21.12.45-.35.39-.43-.51-1.18-.74-1.23-1.24.15,0,.31.26.44.4-.6-.63,4.72,1.86,3.81,1.2,0,.39-4.77-2.16-4.37-1.73s-.66.13-.35.59l.69.16c.44.6.28,1.2,0,1.17-.85-.92,4,1,3,.46l.21.4c-.46-.17-1.44-.9-1.54-1.45-.22.21-.72-.14-1.16-.42l-.09-.16c-.47-.25-.94-.82-1-.29,2.18,2.1-3.57.83-1.62,3-.39-1.34.78-.2,1.74.64a2.7,2.7,0,0,0,.62,1.67c.61.52.51.15.74.14.21.42.71,1.1.38,1.27.74.15.5.91,1.12,1.34s.1-.16.57,0c.65.75,1.56,1.78,2,2.41,0,.44.17,1.51-.66,1.38-1-1.12,1-.17-.15-1.21-.09,1-1.1-.84-1.71-.65A3.94,3.94,0,0,0,973,96.77l0-.19a5.75,5.75,0,0,1,1.93,2.3c-.32,0-.24.43-.65.08l.65.78c.15,0,.3.07.15-.18a1.65,1.65,0,0,1,.84,1,10,10,0,0,0,2.16,1.7,18.22,18.22,0,0,1,2.05,1.53c.49.54.29,1,1,1.3a39.75,39.75,0,0,0-4.62-3.92,26.42,26.42,0,0,0,3.31,3c1.59,1.32,3.14,2.67,3.07,3,.36.4.82.87,1,.59.48.79-.59.14-.38.81,0,0,.07-.13.2,0l.12.71c1.25.81,2.13,2.77,3.49,3.57a5.23,5.23,0,0,1-2.05-.75l0-.23c-.16,0-.73-.58-.94-.39a5.36,5.36,0,0,0,1.75,2,4.45,4.45,0,0,1,.14.55s0-.06.08-.08c0,.35,0,.34-.15.32a.15.15,0,0,1-.09,0c-.32,1,2.63,2.43,3.26,4,.39.31.15,0,.64.33.74,1.55,1.24,2.62,2.12,4.15.62.24.76.19.67-.58l.68,1.15c-1.48-.42.7,2.55-.86,2a3.15,3.15,0,0,0,1,1.62c.24-.08.62-.21,1.17.55.48,1.24.39.93.74,2-.12.39-.44.13-.62.31,1.26,1.14.24,1.58,1.16,2.83.64.74,1.72,2.32,2.2,2.07C998.87,135.83,998.53,136.05,998.08,136.19Z" transform="translate(3 71.44)"/></svg>