<svg xmlns="http://www.w3.org/2000/svg" xmlns:xlink="http://www.w3.org/1999/xlink" viewBox="0 0 1379.36 1284.5"><defs><style>.cls-1{fill:#fff;}.cls-2{fill:#f9e7c0;stroke:#fff;}.cls-18,.cls-2,.cls-6,.cls-8{stroke-miterlimit:10;}.cls-3{fill:#f4c871;}.cls-4{fill:#f9d5a0;}.cls-5{fill:#e84700;opacity:0.3;}.cls-18,.cls-6,.cls-8{fill:none;}.cls-6{stroke:#fffff8;}.cls-7{clip-path:url(#clip-path);}.cls-18,.cls-8{stroke:#000;}.cls-8{stroke-width:9px;}.cls-9{font-size:22.58px;fill:#f6d13f;font-family:LucidaSans-TypewriterOblique, Lucida Sans Typewriter;font-style:italic;}.cls-10{fill:#000;}.cls-11{fill:#71d955;}.cls-12{fill:#ff2afc;}.cls-13{fill:#3f58ed;}.cls-14{fill:#bf2012;}.cls-15{fill:#1592ff;opacity:0.28;}.cls-16{fill:#c9c9c9;opacity:0.47;}.cls-17{fill:#3f60ff;opacity:0.34;}.cls-19{fill:#ffb742;}.cls-20{font-size:120px;}.cls-20,.cls-21{font-family:ShadowsIntoLightTwo-Regular, Shadows Into Light Two;}.cls-21{font-size:103px;}.cls-22{letter-spacing:-0.09em;}</style><clipPath id="clip-path" transform="translate(7.86 80.64)"><path class="cls-1" d="M307.53,409.57s228.89,50.47,319-10.81c0,0,25.23-155-129.76-338.82L356.19,52.73S410.26,312.25,307.53,409.57Z"/></clipPath></defs><title>header2</title><g id="Layer_2" data-name="Layer 2"><rect class="cls-2" x="6.86" y="78.64" width="1372" height="774"/><rect class="cls-3" x="781" y="235" width="330" height="141" transform="translate(-10.96 146.65) rotate(-3.96)"/><rect class="cls-4" x="962.86" y="394.64" width="299" height="154"/></g><g id="Layer_1" data-name="Layer 1"><path class="cls-5" d="M125.51,179.67C112.7,184.11,84.14,196,61.07,224.85c-21.1,26.4-36.23,65.28-29.83,97.86,11.13,56.64,89.63,106.22,189.65,94.79,0,0,246.11,18.93,221.15-79.08S404.19,190.26,333.78,163.29c-10.83-4.14-19.94-3.72-28.15-4.08-50.08-2.19-75.12-3.28-100.39.17A364.87,364.87,0,0,0,125.51,179.67Z" transform="translate(7.86 80.64)"/><path class="cls-6" d="M325.56,238.36" transform="translate(7.86 80.64)"/><path class="cls-1" d="M307.53,409.57s228.89,50.47,319-10.81c0,0,25.23-155-129.76-338.82L356.19,52.73S410.26,312.25,307.53,409.57Z" transform="translate(7.86 80.64)"/><g class="cls-7"><image width="514" height="768" transform="translate(0 0) scale(1.67)" xlink:href="../../../srednja%202019/srednja/2019-04-06/DSC_4780.JPG"/></g><path class="cls-8" d="M178.67,194.2S203.9,44.62,292.21,32c0,0,52.27,0,61.28,21.63,18.9,45.36,42.3,253.22-46.86,360.45-8.11,9.76-34.14,39.18-25.23,59.47,7.11,16.22,33.65,20.06,37.65,20.64,8.78,1.27,26.48,3.83,38.05-8,7.35-7.54,12.38-21.07,7.2-30.64-6.6-12.21-28.41-15.34-39.65-9-28.86,16.26-5.6,104.86-1.8,119,0,0,19.83-14.42,37.85-3.61s66.68,10.82,66.68,10.82-45.05,59.47-97.32,55.87c0,0-34.24,99.12,12.62,95.52S586,671.8,618.42,491.58C644.49,346.77,618.7,185.1,495.87,59" transform="translate(7.86 80.64)"/><path class="cls-8" d="M143.09,371c178.6,73.28,381.41,67.38,561.84,8.86" transform="translate(7.86 80.64)"/><text class="cls-9" transform="translate(331.63 543.48) scale(0.87 1)">.section4 <tspan class="cls-10" x="136.04" y="0">{</tspan><tspan class="cls-10"><tspan x="0.01" y="27.09" xml:space="preserve">    </tspan><tspan class="cls-11" x="54.42" y="27.09">grid-column</tspan><tspan x="204.06" y="27.09">: span 3;</tspan><tspan x="0.01" y="54.19" xml:space="preserve">    </tspan><tspan class="cls-11" x="54.43" y="54.19">grid-row</tspan><tspan x="163.26" y="54.19">: span 3;</tspan><tspan x="0.02" y="81.28" xml:space="preserve">    </tspan><tspan class="cls-12" x="54.43" y="81.28">background-color</tspan><tspan x="272.09" y="81.28">:rgba(206, 121, 107, 1);</tspan><tspan x="0.02" y="108.37" xml:space="preserve">    </tspan><tspan class="cls-13" x="54.44" y="108.37">outline-style</tspan><tspan x="231.28" y="108.37">: solid;</tspan><tspan x="0.03" y="135.46" xml:space="preserve">    </tspan><tspan class="cls-13" x="54.44" y="135.46">outline-color</tspan><tspan x="231.29" y="135.46">: rgb(143,87,80);</tspan><tspan x="0.03" y="162.56" xml:space="preserve">    </tspan><tspan class="cls-14" x="54.45" y="162.56">font-size</tspan><tspan x="176.88" y="162.56">: 20pt;</tspan><tspan x="0.04" y="189.65" xml:space="preserve">    </tspan><tspan class="cls-14" x="54.45" y="189.65">font-family</tspan><tspan x="204.09" y="189.65">: &apos;Shadows Into Light Two&apos;;</tspan><tspan x="0.04" y="216.74">}</tspan></tspan></text><rect class="cls-15" x="289.77" y="503.7" width="259.37" height="297.15"/><rect class="cls-16" x="455.97" y="629.78" width="421.03" height="158.08"/><rect class="cls-17" x="532.68" y="500.16" width="181.59" height="146.52"/><rect class="cls-18" x="326.32" y="516.93" width="530.9" height="253.53"/><path class="cls-19" d="M318.91,48c2.48.78,4.75,1.71,4.75,1.71a.74.74,0,0,0,0-.21c-.87-.29-1.68-.6-2.47-.84Z" transform="translate(7.86 80.64)"/><path class="cls-19" d="M313.59,48.87l1.49.41a1.17,1.17,0,0,1-.25-.23Z" transform="translate(7.86 80.64)"/><path class="cls-19" d="M323.66,49.46c-.09-.8-1.85-2.26.87-2,1.35.49,3.32,1.41,5.28,2.32l2.81,1.46c.88.46,1.65.95,2.29,1.31,2.7,1.13.4-.67.59-1,1.28.73,2.51,1.54,3.44,2.13s1.58,1,1.64.88c.42.14.6.13.58,0s-.23-.41-.74-.84A37.82,37.82,0,0,0,335.15,50c-.76-.3-1.59-.6-2.48-.91s-1.81-.67-2.79-1l-3-1c-1-.33-2.06-.59-3.08-.89A65.53,65.53,0,0,0,313,44.09c-2.64-.28-3.86-.11-2.42.45S316.2,46.13,323.66,49.46Z" transform="translate(7.86 80.64)"/><path class="cls-19" d="M301.85,46A73.68,73.68,0,0,1,316,48.53c1.57-.07,3.66.2,2.39-.7a57.56,57.56,0,0,0-9.37-1.72A45.29,45.29,0,0,0,301.85,46Z" transform="translate(7.86 80.64)"/><path class="cls-19" d="M301.63,260.75c0,.12-.26.15-2.59-.35l2.59.35c.05-.1-.07-.29,1.11-.19-9.09-1.13-19.76-2-30.13-2.45-1.35.15-2.66.3-3.86.47a323.47,323.47,0,0,1,37.7,3.46c6,.87,12.16,1.88,17.86,4.22a27.89,27.89,0,0,1,8,4.84,19.06,19.06,0,0,1,5.42,7.9,19.36,19.36,0,0,0-3-5.76,22.15,22.15,0,0,0-4.27-4.09,33.56,33.56,0,0,0-9.32-4.58,65,65,0,0,0-9.5-2.27C308.45,261.76,305.18,261.26,301.63,260.75Z" transform="translate(7.86 80.64)"/><path class="cls-19" d="M266.73,259.7l-2.6-.06C266.46,259.87,266.7,259.82,266.73,259.7Z" transform="translate(7.86 80.64)"/><path class="cls-19" d="M344.43,255a84.87,84.87,0,0,1,5.33,23.48,108.6,108.6,0,0,1-.47,22.41,106.31,106.31,0,0,0,1-23.67,77.06,77.06,0,0,0-5.28-23,65.32,65.32,0,0,0-5.16-10.19,49.63,49.63,0,0,0-3.16-4.55L335,237.35a26.31,26.31,0,0,0-1.71-2.06l-3.59-3.8c-1.25-1.17-2.53-2.27-3.76-3.36s-2.57-2-3.82-3c-.64-.46-1.27-.93-1.89-1.39s-1.29-.83-1.92-1.24a75.31,75.31,0,0,1,15.52,14.09A66,66,0,0,1,344.43,255Z" transform="translate(7.86 80.64)"/><path class="cls-19" d="M321.84,368.48A113,113,0,0,0,337.53,344a139.69,139.69,0,0,0,8.84-23.65,159.34,159.34,0,0,1-9,22.88,130.56,130.56,0,0,1-12.77,21.28Z" transform="translate(7.86 80.64)"/><path class="cls-19" d="M333.8,348.52a134.8,134.8,0,0,0,10.34-24.15,128.41,128.41,0,0,0,5.15-23.5,147,147,0,0,1-6.18,25.23A176.87,176.87,0,0,1,333.8,348.52Z" transform="translate(7.86 80.64)"/><path class="cls-19" d="M236.92,302.1a26.37,26.37,0,0,0,5.25.55l6.19.18,8.39.26,7.15-.72-2-.06c-5.82-.05-11.78-.29-17.88-.56a33.09,33.09,0,0,1-6.46-.66,5.11,5.11,0,0,1-1.15-.43,4.07,4.07,0,0,1-1.09-1,18,18,0,0,1-2.57-4.07c-.43-.87-.86-1.79-1.28-2.77l-1.24-2.75.89,2.53c.29.85.59,1.69.89,2.43a30.13,30.13,0,0,0,1.76,3.9,9.66,9.66,0,0,0,1.63,2.24A4.1,4.1,0,0,0,236.92,302.1Z" transform="translate(7.86 80.64)"/><path class="cls-19" d="M256.75,303.09c-7.51.74-3.66.9.15.8S264.4,303.34,256.75,303.09Z" transform="translate(7.86 80.64)"/><path class="cls-19" d="M211.65,264.37l-.29-1.79c-.31-1.71-.68-3.46-.92-5.17C210.78,259.79,211.25,262,211.65,264.37Z" transform="translate(7.86 80.64)"/><path class="cls-19" d="M292.22,219.47c-4.67-1.76-9.52-3.13-14.36-4.43s-9.77-2.31-14.69-3.21c5.06,1,10.06,2.14,15,3.38s9.72,2.69,14.28,4.4c2.32.77,4.52,1.73,6.72,2.62,1.11.41,2.15,1,3.21,1.44s2.11,1,3.13,1.49A86,86,0,0,1,316.69,232a73.7,73.7,0,0,0-6-4.47c-1.11-.59-2.41-1.17-3.77-1.86s-2.88-1.35-4.46-2.05L300,222.52l-2.55-1-2.6-1.06Z" transform="translate(7.86 80.64)"/><path class="cls-19" d="M261.65,313.8c-7.07-.17-14.09-.51-21.1-.91-3.47-.26-7.12-.8-10.23-2.77s-5.2-5.08-6.77-8.21-2.69-6.44-4-9.66l-1.71-4.88c-.56-1.63-1-3.28-1.58-4.91a194.93,194.93,0,0,1-4.94-19.88,191,191,0,0,1-2.44-40.76c.09-1.68.14-3.36.3-5l.2-2.51c.07-.84.12-1.63.25-2.6q.33-2.8.66-5.58a12.91,12.91,0,0,1,1.82-5.24,7.26,7.26,0,0,1,4.62-2.89,17,17,0,0,1,5.56,0c.94.13,1.88.28,2.82.44l2.64.45,4.8.8,19,3.13c6.28,1,12.52,2.12,18.67,3.38s12.23,2.71,18.17,4.47c3,.84,5.91,1.87,8.82,2.87,1.45.53,2.87,1.12,4.31,1.67s2.83,1.18,4.23,1.82a80.51,80.51,0,0,1,15.37,8.87l2,1.46,1,.74.93.81c1.24,1.11,2.51,2.22,3.77,3.38l3.56,3.79a22,22,0,0,1,1.69,2c.54.71,1.09,1.41,1.64,2.12a64.35,64.35,0,0,1,10.06,19.74,81,81,0,0,1,3.57,22.47,110.75,110.75,0,0,1-1.83,22.39,150.31,150.31,0,0,1-5.35,20.85,175.83,175.83,0,0,1-15.67,34.54c.73-1,1.39-1.94,2-2.92l1.91-2.91c1.16-2,2.38-3.86,3.4-5.8a152.12,152.12,0,0,1-9.24,16c-5.62,7.47-12.18,14.56-20.43,20.15A58.08,58.08,0,0,1,275.58,395a69.3,69.3,0,0,1-14.85-.71c-4.69-.68-9-1.59-13.22-2.49q-12.8-2.69-25.45-6.14a470,470,0,0,1-49.93-16.55l-3.07-1.23c-1-.41-2.06-.83-3.18-1.3a50.89,50.89,0,0,1-7.25-3.7,28.64,28.64,0,0,1-7.54-6.75,27.49,27.49,0,0,1-4.57-9.43,39.71,39.71,0,0,1-1.23-8.8c-.08-2.71,0-5.23.18-7.53q.47-6.61.94-13.24c.83-10.51,1-18.51,2.44-29.18a234,234,0,0,1,6.48-32.08s-.11.07-.23.35a159.27,159.27,0,0,1,12.59-32c5.35-10.08,11.31-19.13,16.4-28,1.28-2.23,2.5-4.43,3.65-6.66l1.71-3.35,1.62-3.42c2.13-4.59,4.12-9.29,5.93-14.13,3.64-9.67,6.71-19.8,9.54-30.27,2.71-9.84,5.26-19.75,8-30,1.41-5.16,3-10.51,5-15.93a92.23,92.23,0,0,1,7.67-16.24,36.14,36.14,0,0,1,5.33-7.08c.65-.71,1.28-1.31,2-2s1.49-1.55,2.57-2.62A82.18,82.18,0,0,1,264.72,46a79.58,79.58,0,0,1,34.61-5.72l0,.59a61.88,61.88,0,0,1,10.55,1.19c-3.18-.07-7.54-.07-11.72.2a67.2,67.2,0,0,0-10.74,1.53c-2.54.69-3.63,1.17-2.09,1.27.77,0,2.19,0,4.44,0l1.83,0,2.16.06c1.54,0,3.31.16,5.31.28h0c-1.79,0-3.38,0-4.9.17l-.54,0s0,0,0,0a47.44,47.44,0,0,0-16,3.75,68.56,68.56,0,0,1,14-2.33c-.87.34-1.42.67-.92.9l-1.22.26c-1,.08-2,.19-2.67.3l-1.12.16a7.53,7.53,0,0,0-1.43.67,80.56,80.56,0,0,0-9.47,3,65,65,0,0,0-8.75,4.15c-.62.36-1.23.69-1.78,1l-1.54,1-1.29.88-1,.77c-1.12.91-1.43,1.32-.57,1,1.27-.57,3.66-2.09,7-3.78a68.88,68.88,0,0,1,12.22-5c.59-.08,1.27-.18,2-.3-1.55.43-2.71.73-3.55,1a16.71,16.71,0,0,0-1.69.73c-.64.35-.43.46-.07.53.72.16,2,0-1.53,1.36a67.27,67.27,0,0,0-25,16.32,64.64,64.64,0,0,0-9.14,11.84,75.74,75.74,0,0,0-6.22,13.21c-3.33,9.13-5.47,18.61-7.95,28-4.89,18.79-9.81,37.67-18,57.19-.7,1.72-1.48,3.4-2.22,5.1-2.15,4.66-4.38,9.22-6.86,13.59s-5,8.58-7.56,12.74c-5.1,8.31-10.2,16.4-14.22,25.11.4-1.16.8-2.4,1.28-3.63-7,13.85-11.35,29-13.81,44.54-1.52,9.5-2.44,19.11-3.14,28.81-.37,4.84-.64,9.72-.91,14.61l-.39,7.36c-.12,2.43-.19,4.76-.08,7a22.55,22.55,0,0,0,1.07,6.08,11.13,11.13,0,0,0,2.82,4.49c2.59,2.54,6.9,4.25,11.62,6.07q14,5.48,28.65,10.24,15.38,5,30.85,8.84c5.16,1.3,10.34,2.46,15.52,3.57a151.37,151.37,0,0,0,15.3,2.67,49.61,49.61,0,0,0,7.27.27c.59,0,1.18-.06,1.76-.11l1.75-.24a22.5,22.5,0,0,0,3.47-.61,40.74,40.74,0,0,0,13.15-5.44A61.7,61.7,0,0,0,304.78,364a83,83,0,0,0,9.65-12,91.1,91.1,0,0,1-7.7,10.12,72.13,72.13,0,0,1-9.09,8.58,52.54,52.54,0,0,1-10.57,6.24,42.21,42.21,0,0,1-11.78,3c-7.29.62-15.05-1-22.87-2.63,8.08,1.81,15.76,3.33,22.87,2.63l2.63-.32c.44-.07.88-.08,1.31-.19l1.3-.3c.86-.2,1.73-.37,2.59-.6l2.53-.86,1.26-.42,1.23-.56,2.45-1.09,2.37-1.33,1.18-.66c.39-.24.75-.51,1.13-.76a66.86,66.86,0,0,0,15.87-14.89,107.58,107.58,0,0,0,18-35.7,38,38,0,0,0,2-4.62,116.18,116.18,0,0,0,5.6-24.9,68,68,0,0,0-1.26-22.93c-.12,0-.44-1.72-.89-3.1s-.81-2.49-.7-1.32a53,53,0,0,0-9.66-19.19A58,58,0,0,0,307.88,232a77.27,77.27,0,0,0-17.08-7.21c-12.23-4.4-25.45-7-39-9.22l-20.67-3.32-5.2-.84-1.3-.21-.16,0h-.19l-.41,0a2.22,2.22,0,0,0-.77.08.81.81,0,0,0-.52.53,1.26,1.26,0,0,0-.06.38l0,.53-.1,1.9-.33,5-.18,5a176.13,176.13,0,0,0,9.46,60.68l.84,2.5c.31.83.62,1.66.93,2.51l.94,2.55c.32.82.62,1.58.92,2.27a19.1,19.1,0,0,0,1.67,3.17,3.47,3.47,0,0,0,.86,1,4.49,4.49,0,0,0,1.32.44,28.74,28.74,0,0,0,4.12.52l5.77.4,5.65.36-8.25-.3-4-.18c-1.19-.06-2.18-.15-3-.26a11.58,11.58,0,0,1-1.63-.34,2.61,2.61,0,0,1-.56-.22,8.22,8.22,0,0,1-2.18-3c-.46-.87-.92-1.91-1.41-3.08l-1.45-3.74c-.51-1.25-1-2.52-1.4-3.79s-.93-2.55-1.32-3.85c-1.71-5.14-3.1-10.43-4.33-15.77-1-5.22-1.76-10.44-2.36-15.57s-.88-10.19-1.08-15.11-.2-9.71,0-14.32c0-2.3.19-4.56.27-6.77l0-.8v-.28l0-.58c0-.37,0-.82,0-1.15a2.18,2.18,0,0,1,.28-1.41,1.63,1.63,0,0,1,1.26-.59,2.14,2.14,0,0,0-1.09.23,1.32,1.32,0,0,0-.64.9,3.5,3.5,0,0,0-.09.55l0,.74-.13,1.88c-.47,5.89-.63,11.8-.52,17.67a164.14,164.14,0,0,0,1.25,17.49,168.13,168.13,0,0,0,2.95,17.12,178,178,0,0,0,4.62,18.43c.92,3,2,6.06,3.06,9a23.08,23.08,0,0,0,3,6l-.24-.26a19.62,19.62,0,0,1-2.55-4.56c-.44-1-.9-2.2-1.34-3.36s-.92-2.33-1.35-3.5c-1.69-4.71-3.23-9.51-4.55-14.39a200.21,200.21,0,0,1-4.45-27.37,243.74,243.74,0,0,1-.9-25.26c0-2,.1-3.91.14-5.78l.06-1.48v-.76l0-1.33,0-.66a4.35,4.35,0,0,1,0-.51,3.07,3.07,0,0,1,.22-1,3,3,0,0,0-.28.92c0,.33-.07.57-.1,1l-.23,3c-.28,3.67-.45,7.33-.51,11a176.27,176.27,0,0,0,6,48.22c1.28,5.44,2.89,10.87,4.7,16.22l-.73-1.62c-.43-1.16-1.15-2.81-2-4.52s-1.63-3.53-2.4-5c-1.45-2.88-2.55-4.31-1.9-.59,1.29,4.66,2.76,9.52,4.58,14.36a58,58,0,0,0,2.79,6.75,12.51,12.51,0,0,0,3.22,4.24,6.84,6.84,0,0,0,1.85,1,13.86,13.86,0,0,0,2.63.69,66.71,66.71,0,0,0,7.17.63c5.22.31,10.22.59,14.88.73a198.42,198.42,0,0,0,22.86-.4c1.4-.08,2.64-.25,3.73-.36s2-.21,2.76-.33l1.73-.23a4.28,4.28,0,0,1,.6-.06c.62.09-2.85.91-8.57,1.55a179.44,179.44,0,0,1-21.79.81c-4.05-.08-8.12-.21-11.94-.39s-7.53-.3-10.08-.55a17.18,17.18,0,0,1-5.14-1.16c-.91-.41-1.28-.7-1.14-.56,1.74,1.41,4.75,2.11,8.34,2.45-3.44-.11-6.26-.51-8.2-1.48a9.85,9.85,0,0,1-3.21-2.92,25.32,25.32,0,0,1-2.62-4.8c-.78-1.75-1.45-3.65-2.09-5.32s-1.24-3.14-1.71-4.33c-6.74-16.55-10-37-10.71-57.5-.11-1.6-.09-3.25-.15-4.93s0-3.4,0-5.15c0-.88,0-1.76,0-2.65l.1-2.69.11-2.73.15-2.5a43.07,43.07,0,0,1,.48-5.15,6.86,6.86,0,0,1,1-2.44,4.84,4.84,0,0,1,2-1.66,10.61,10.61,0,0,1,5.23-.53c1.82.19,3.59.43,5.56.68.07-.38,7.73,1.19,5.23.34,7.22,1.31,15,2.68,21.8,3.79s12.53,2,15.73,2.22l1.05.21c1,.23,2.47.5,4,.82,11.89,3.08,21.87,6.37,31.19,10.74,1.18.5,2.3,1.13,3.44,1.73s2.29,1.16,3.4,1.82c2.17,1.38,4.46,2.61,6.55,4.23a66.6,66.6,0,0,1,12.22,11.07,61.91,61.91,0,0,1,11.54,21.48,72.92,72.92,0,0,0-3.39-9,53.81,53.81,0,0,0-4.8-8.31c-1.11-1.45-2.25-2.84-3.35-4.22l-.59-.77L331,237l-1.32-1.42c-.89-.92-1.71-1.92-2.66-2.76a70.27,70.27,0,0,0-5.78-4.92l-3-2.26-3.14-2-1.56-1c-.53-.33-1.08-.6-1.61-.9l-3.23-1.76a132.74,132.74,0,0,0-27-9.87c-1.51-.34-4-.78-6.25-1.22-1.32-.36-2.64-.69-4-1-.34,0-.71,0-1.1,0-8.85-1.76-18.31-3.25-27.43-4.68l-13.33-2.08-6.31-1a16.73,16.73,0,0,0-5.89-.11,5.45,5.45,0,0,0-4.08,3.18,17.41,17.41,0,0,0-1.06,5.3c-.18,1.81-.41,3.57-.54,5.41s-.3,3.67-.39,5.51a199.81,199.81,0,0,0-.07,22.3,188,188,0,0,0,7.53,43.91,189,189,0,0,1-8.67-42.36,183.78,183.78,0,0,0,11,49.48c.86,2.37,1.63,4.71,2.6,7a27.5,27.5,0,0,0,3.79,6.73,14,14,0,0,0,6.14,4.46,13.77,13.77,0,0,1-5.7-4.13,24.54,24.54,0,0,1-3.59-6.09,24.45,24.45,0,0,0,3.82,6,13.39,13.39,0,0,0,5.66,3.74,26.78,26.78,0,0,0,6.82,1.18c2.34.15,4.73.22,7.08.33,13,.65,26.11,1.11,39.08-.29a107.38,107.38,0,0,0,19.1-3.75c1.57-.41,3.07-1,4.61-1.52s3-1.2,4.51-1.79a38.65,38.65,0,0,0,8.14-4.74,30.47,30.47,0,0,0,6.5-6.58,19.87,19.87,0,0,0,2.16-3.89c.23-.69.49-1.37.65-2.06a12.67,12.67,0,0,0,.31-2.1,12.31,12.31,0,0,0-2.23-7.93,16.22,16.22,0,0,0-1.34-1.66,18.93,18.93,0,0,0-1.63-1.45,21.64,21.64,0,0,0-3.79-2.42,42,42,0,0,0-8.86-3.15c-1.54-.39-3.13-.69-4.71-1l-4.86-.83q-9.74-1.58-19.51-2.55c1-.15,2.23-.26,3.56-.36,6.3.63,12.57,1.47,18.75,2.49a81.37,81.37,0,0,1,9,1.86,37,37,0,0,1,8.23,3.25,18,18,0,0,1,6.29,5.47,17.15,17.15,0,0,1,1,1.75c.25.63.55,1.24.74,1.88s.39,1.3.47,2a18.85,18.85,0,0,1,.17,2,16.25,16.25,0,0,1-2,7.63,27.46,27.46,0,0,1-4.6,6.33,24.85,24.85,0,0,0,5.85-8.18,14.2,14.2,0,0,0,.82-8.91,14.46,14.46,0,0,0-4.51-7.55,26.3,26.3,0,0,0-8.34-4.9c.05-.1,0-.3,1.09.08a63,63,0,0,0-14-3.35c-5-.77-10.16-1.43-15.25-2,3.32-.11,7-.12,10.77-.05a93.6,93.6,0,0,1,9.4,1.26,50.73,50.73,0,0,1,11.13,3.33,25.32,25.32,0,0,1,5.62,3.46,18,18,0,0,1,4.31,5.14,16,16,0,0,1,1,13.09,21.3,21.3,0,0,1-3.08,5.79c-.61.9-1.35,1.68-2,2.51s-1.47,1.57-2.28,2.26a40.18,40.18,0,0,1-5,3.89,43.46,43.46,0,0,1-5.56,3.05,84.14,84.14,0,0,1-11.73,4.21,100.91,100.91,0,0,1-12.16,2.64,162.76,162.76,0,0,1-24.91,1.71c-7.46-.11-14.88-.56-22.26-1.09-1.85-.14-3.67-.26-5.56-.42a36.84,36.84,0,0,1-5.75-.9,17.35,17.35,0,0,1-5.62-2.44,17.05,17.05,0,0,1-4.34-4.34,42.32,42.32,0,0,1-4.91-10.36c-1.28-3.48-2.43-7-3.5-10.53a189.44,189.44,0,0,1-5.11-21.46A185.1,185.1,0,0,0,217,285.08c.5,1.67,1.09,3.31,1.65,4.95s1.16,3.26,1.79,4.86a56.55,56.55,0,0,0,4.24,9.41,20.18,20.18,0,0,0,3.23,4.13,14.13,14.13,0,0,0,4.37,2.9,28.59,28.59,0,0,0,9.9,1.8C248.71,313.44,255.2,313.72,261.65,313.8ZM245.09,65.45a68,68,0,0,0-5.7,6.65l1-.92,1.27-1.56,1.25-1.48L244,66.72Zm-26.66,56.71c1.23-4.29,2.45-8.92,3.82-13.89S225.16,98,227.2,92.64a80.67,80.67,0,0,1,8.05-16,72.26,72.26,0,0,1,12-14c.07-.13.1-.22.07-.26a71.12,71.12,0,0,0-11,12,72.82,72.82,0,0,0-8.39,15.2A135.1,135.1,0,0,0,222.52,106C221.05,111.51,219.77,116.89,218.43,122.16ZM192,186.62l.23-.34s-.07,0-.09,0ZM300.43,379.44a51.36,51.36,0,0,1-15.65,7.89c-1.51.37-3,.82-4.6,1.13l-4.79.67a57.16,57.16,0,0,1-9.79-.09c-3.25-.29-6.47-.8-9.64-1.39s-6.31-1.24-9.48-1.91c-6.34-1.34-12.73-2.84-19.09-4.44-7.6-2-15.38-3.47-25.39-6.74-12.55-3.95-20.08-6.35-29.94-10.08,2.39,1.12,4.81,2.18,7.22,3.26l-11.8-4.64c-3.77-1.55-7.85-3.36-11.55-6.84a21.86,21.86,0,0,1-4.57-6.25,26.21,26.21,0,0,1-2.28-7.15,53.07,53.07,0,0,1-.13-14c-.2,0-.41-2.64-.23-5.24.37-6.53.94-13.08,1.57-19.32s1.34-12.21,1.92-17.49c.88-6.61,2-13.23,3.35-19.5s2.91-12.2,4.45-17.46c.85-2.61,2.15-8,4.15-13.16,1.36-3.1,2.71-6.22,4.26-9.23s3.13-5.92,4.76-8.78l-.54.62a124.61,124.61,0,0,0-7.51,14.77,166.7,166.7,0,0,0-8.26,24.81A241.32,241.32,0,0,0,152,284.06c-1.46,9.95-2.31,19.7-2.95,29.25-.33,4.78-.59,9.51-.84,14.2s-.66,9.84.4,15.75a30.67,30.67,0,0,0,1.21,4.52,24.86,24.86,0,0,0,2.17,4.51,23,23,0,0,0,3.16,4,25.87,25.87,0,0,0,3.7,3.06,40.62,40.62,0,0,0,7.36,3.9c2.35,1,4.46,1.74,6.64,2.58,8.68,3.28,17.42,6.24,26.23,9,7.55,2.32,15.24,4.26,22.88,6.19,5.76,1.42,11.84,2.85,18,4.2,3.07.67,6.16,1.33,9.22,1.94s6.11,1.21,9.2,1.71c6.14,1,12.44,1.52,18.2.7,1.42-.22,2.81-.43,4.14-.67l3.8-1.06a27,27,0,0,0,3.42-1.27,24.77,24.77,0,0,0,3-1.37C293.5,384,298.45,381.42,300.43,379.44Zm14.24-26.22A81.19,81.19,0,0,1,302,368.32a49.63,49.63,0,0,1-16.59,10.27c-.76.27-1.52.56-2.28.8l-2.34.57a32.66,32.66,0,0,1-4.71.81,41.56,41.56,0,0,1-9.59,0,166.58,166.58,0,0,1-19.27-3.65c-5-1.13-12.41-2.83-20.44-4.89s-16.75-4.46-24.49-6.75c-15.47-4.55-27.17-8.47-22.79-5.44,6.38,1.35,19.56,5.78,35.88,10.38,8.15,2.32,17.08,4.68,26.28,6.83,4.6,1.08,9.27,2.1,13.92,3.06a94.33,94.33,0,0,0,13.66,2,39.24,39.24,0,0,0,6.52-.12l3.16-.4c1.05-.13,2.05-.45,3.06-.66l1.51-.36c.5-.13,1-.32,1.46-.48l2.86-1,2.71-1.24c.44-.21.9-.38,1.32-.62l1.26-.72A59.74,59.74,0,0,0,308.55,364c.93-1,1.72-2.07,2.48-3a32.27,32.27,0,0,0,2-2.68c.58-.83,1.09-1.58,1.52-2.24s.74-1.29,1-1.79C316.57,352.25,316.38,351.79,314.67,353.22ZM245.05,213.29c10.75,1.61,20.93,3.19,32.41,6.29C267,216.93,256.16,215.07,245.05,213.29ZM338,256.36a61.44,61.44,0,0,0-14.57-20.31,81,81,0,0,0-21.33-13.86,137.35,137.35,0,0,0-24.36-8.27c-8.32-2.08-16.72-3.62-25-4.95-6.39-1-13-2.14-19.58-3.32l-9.2-1.65a17.3,17.3,0,0,0-3.58-.4,4.57,4.57,0,0,0-3.28,1.22,5.88,5.88,0,0,0-1.36,3.24c-.18,1.15-.3,2.48-.44,3.7l-.1.93,0,.47-.05.58-.18,2.38c-.13,1.58-.24,3.15-.28,4.72-.15,3.12-.13,6.2-.09,9.2s.25,6,.57,8.8l.58,0-.29-2.51c0-2.23,0-4.34.06-6.38s.19-4,.32-5.91.3-3.77.49-5.62.41-3.56.62-5.35l-.06,1.13c.06-.85.11-1.23.15-1.75q.18-1.21.36-2.46a9.86,9.86,0,0,1,.49-2.23,3.18,3.18,0,0,1,1.51-1.78,5.17,5.17,0,0,1,2.45-.47,18.21,18.21,0,0,1,2.41.2l1.25.15,2.11.32,24.13,4.07c8,1.37,15.92,2.85,23.61,4.7,15.34,3.66,29.9,8.87,41.42,17.06a64.08,64.08,0,0,1,17.07,18,62,62,0,0,1,8.51,23.77,73,73,0,0,0-1.5-8.84A48.67,48.67,0,0,0,338,256.36Z" transform="translate(7.86 80.64)"/><path class="cls-19" d="M222.49,295.82a49,49,0,0,0,3.48,7.57,16,16,0,0,0,5.52,5.8,19.39,19.39,0,0,0,7.76,2.19c2.76.27,5.63.35,8.48.51,8.79.35,17.52.58,26.17.18,10.31-.39,21-1.48,31.43-4.59,1.31-.35,2.59-.81,3.87-1.25l1.93-.67,1.89-.77a39.27,39.27,0,0,0,7.17-3.56c4.46-2.83,8.56-6.61,10.73-11.1a12.92,12.92,0,0,0,1.35-6.92,12,12,0,0,0-2.65-6.41,18.61,18.61,0,0,0-5.89-4.56,38.51,38.51,0,0,0-7.54-2.8,79.76,79.76,0,0,0-8.17-1.66c-2.81-.46-5.61-.89-8.41-1.26q-8.4-1.12-16.72-1.73c-1.35.47-1.54,1,0,1.78q8.94.85,17.82,2.2,4.44.68,8.86,1.46a62.26,62.26,0,0,1,8.18,2c5.18,1.63,9.66,4.32,11.35,7.9a14.05,14.05,0,0,1,.58,1.39c.09.49.25,1,.33,1.46a9.88,9.88,0,0,1,0,3,14.64,14.64,0,0,1-2.8,6.11,32.53,32.53,0,0,1-12.34,9.57,81.14,81.14,0,0,1-16.36,5.24c-11.36,2.4-23.26,2.73-35.2,2.24l-1.13,0c-5.13.1-11.1-.08-17.58-.39a39.37,39.37,0,0,1-9-1.08,10.64,10.64,0,0,1-3.42-1.7,13.15,13.15,0,0,1-2.77-3,43,43,0,0,1-4.16-9c-.62-1.66-1.26-3.32-1.81-5s-1.17-3.33-1.66-5c-2.12-6.69-3.86-13.33-5.21-19.59a170.93,170.93,0,0,1-4.18-38.25c0-6.4.4-13.08,1-18.92a9.2,9.2,0,0,1,1.31-4.3,5.32,5.32,0,0,1,3.83-2.16,16.41,16.41,0,0,1,4.53.14l4.67.65-3.39-.61c-1.12-.19-2.23-.4-3.35-.52a12.19,12.19,0,0,0-3.36.09,5.51,5.51,0,0,0-2.94,1.53,6.65,6.65,0,0,0-1.52,3,24.53,24.53,0,0,0-.53,3.31c-.25,2.25-.55,4.41-.71,6.73a184.17,184.17,0,0,0-.34,27.38,193.14,193.14,0,0,0,11,53.48Z" transform="translate(7.86 80.64)"/><path class="cls-19" d="M346.37,320.39A126.79,126.79,0,0,0,352.12,288a89.12,89.12,0,0,0-2.08-23,71,71,0,0,0-8.39-20.89c-.47-.81-1-1.59-1.49-2.36s-1-1.56-1.59-2.27l-3.39-4.34c-1.21-1.37-2.49-2.68-3.73-4-.32-.33-.62-.66-.95-1l-1-.9-2-1.8a86.78,86.78,0,0,0-17.68-11.63,81.8,81.8,0,0,1,24.55,19.27c.84,1,1.62,2.11,2.43,3.18s1.64,2.11,2.34,3.26l1.08,1.69,1,1.74c.69,1.16,1.28,2.36,1.89,3.56a69.91,69.91,0,0,1,5.38,15.08,88.45,88.45,0,0,1,2.36,15.15,111.41,111.41,0,0,1,.1,14.37A131.48,131.48,0,0,1,346.37,320.39Z" transform="translate(7.86 80.64)"/><path class="cls-19" d="M289,208a126.87,126.87,0,0,1,20.77,7.93,126.8,126.8,0,0,0-20.71-8.4c-7-2.21-14.07-3.94-21.11-5.42s-14.06-2.67-21-3.86l-21.35-3.64c-4.22-.77-8.38-1.08-12,.47a10,10,0,0,0-4.53,3.74,15.82,15.82,0,0,0-2.15,5.48c-.28,2-.5,3.94-.75,5.9l-.18,1.47-.08.72,0,.55-.16,2.23c-.25,3-.32,5.93-.44,8.9q-.17,8.91.41,17.8t2.06,17.66q1.47,8.76,3.69,17.36c1.51,5.72,3.29,11.35,5.3,16.91,1.07,2.77,2,5.48,3.32,8.35a28,28,0,0,0,5.54,8.37,17.25,17.25,0,0,0,4.46,3.23,21.4,21.4,0,0,0,5,1.71,56.38,56.38,0,0,0,9.19.92c5.25.26,10.48.53,15.7.67-5.41-.24-10.8-.62-16.15-1a54.21,54.21,0,0,1-8.47-1.05,21.16,21.16,0,0,1-4.47-1.54,16.66,16.66,0,0,1-4.06-2.79,24.23,24.23,0,0,1-5.26-7.52,80.57,80.57,0,0,1-3-7.75c-1-2.54-1.73-5.14-2.57-7.71l-1.14-3.9c-.39-1.29-.75-2.6-1.07-3.91A193,193,0,0,1,208,216.39l.32-3.92c.19-1.55.38-3.1.58-4.65l.29-2.32a21.06,21.06,0,0,1,.55-2.28,10,10,0,0,1,2.18-4,8.23,8.23,0,0,1,4-2.29,15,15,0,0,1,4.59-.41,38.92,38.92,0,0,1,4.74.61l4.12.7,29.5,4.95a270,270,0,0,1,28.73,6.41,126.45,126.45,0,0,1,26.9,11c1.23.71,2.57,1.58,3.86,2.37a107.44,107.44,0,0,0-24.43-12.08,199.29,199.29,0,0,0-25.57-7c-8.55-1.81-17.1-3.22-25.52-4.66l-12.67-2.16-3.26-.56c-1.45-.25-2.91-.52-4.36-.7a16.74,16.74,0,0,0-8.29.73c3.62-1.48,7.72-1,11.82-.25l9.23,1.49,17.82,2.87c6,1,12,2,18,3.27S283.05,206.16,289,208Z" transform="translate(7.86 80.64)"/><path class="cls-19" d="M218.82,285.6c.73,2.4,1.48,4.77,2.29,7.12,1,2.71,2,5.41,3.24,8-.68-1.6-1.3-3.23-1.86-4.86C221.16,292.44,220,289,218.82,285.6Z" transform="translate(7.86 80.64)"/><path class="cls-19" d="M216.86,213l.09-.62c.15-1.3.23-2.74.43-3.88a5.23,5.23,0,0,1,.61-1.71,3,3,0,0,1,1.37-1.18,6.83,6.83,0,0,1,3.62-.24c1.32.2,2.1.32,4.55.74l17.61,2.66c6,.92,12,1.87,18,3-5.45-1.1-10.93-2-16.38-3l-16-2.65-3.88-.62-2.9-.45a9.4,9.4,0,0,0-4.54.06,3.12,3.12,0,0,0-1.66,1.39,5.4,5.4,0,0,0-.62,2.06c0,.35-.08.68-.11,1.05l-.07,1.14Z" transform="translate(7.86 80.64)"/><path class="cls-19" d="M271.28,219.65l4.81,1.23,4.74,1.36c1.48.27,2.88.67,4.34,1l-3.27-1.08-3.34-1C276.17,220.58,273.7,220.16,271.28,219.65Z" transform="translate(7.86 80.64)"/><path class="cls-19" d="M329.18,322.23a118.38,118.38,0,0,0,6.85-31.3c.75-10.35-.31-20.51-3.65-29.52a52.52,52.52,0,0,0-6.58-12.53l-2.17-2.77c-.38-.45-.69-1-1.11-1.37l-1.21-1.27-1.21-1.28a12.29,12.29,0,0,0-1.25-1.25l-2.64-2.34a69.11,69.11,0,0,0-11.91-7.93l-1.59-.87-1.66-.78-3.32-1.56c-2.31-.89-4.54-1.92-6.93-2.69L288,224c-.93-.27-1.9-.48-2.84-.72,12.75,4.29,24.54,10.14,33.15,18.52,1.08,1,2,2.17,3.08,3.24a13.47,13.47,0,0,1,1.42,1.7l1.37,1.74a47.2,47.2,0,0,1,4.71,7.37,60.84,60.84,0,0,1,5.68,16.48,76.48,76.48,0,0,1,1.21,8.08,55.17,55.17,0,0,1,.18,8.32A123.25,123.25,0,0,1,329,321.87,137.44,137.44,0,0,1,314.43,352a133.09,133.09,0,0,0,14.44-28.91Z" transform="translate(7.86 80.64)"/><path d="M258.76,511.47c-.78-11.66-1.59-22.43-2.49-31.71.11-25.17-.92-44.11-2-63.29s-2.2-38.58-2-64.66c-.26-23.18-.67-43-1-62.57-.15-9.79-.27-19.53-.32-29.6,0-5,0-10.15,0-15.4q0-3.94,0-8v-1.54c0-.23,0-.46,0-.69a2.62,2.62,0,0,1,.4-1.31,1.33,1.33,0,0,1,.51-1.26,3.93,3.93,0,0,1,1.82-.61l.29-.05.6,0,1.34-.08,2.87-.06c2,0,4.12,0,6.38.18a134.76,134.76,0,0,1,31.22,5.85c2.78.88,5.58,1.81,8.34,2.86q2.09.76,4.14,1.62c1.4.55,2.66,1.1,3.91,1.7a32,32,0,0,1,6.67,4.18,12.49,12.49,0,0,1,3.86,5,7.55,7.55,0,0,1,.5,2.54,8.58,8.58,0,0,1-.38,2.51,12.92,12.92,0,0,1-3.17,4.77,31.16,31.16,0,0,1-4.95,4,60.39,60.39,0,0,1-5.31,3.13c-4.84,2.31-9.26,4.13-12.89,5.51L289,277.5c-1.67.69-2.2,1.11-1.28,1.13a34.53,34.53,0,0,0,7.37-1.31,101,101,0,0,1-16.31,3.58c-1.94.27-3.59.38-5.05.52s-2.76.13-4,.18c-2.5,0-4.84.11-8.12.14s-7.52.13-13.81-.16c2.86-.23,5.69-.58,8.49-1a126.49,126.49,0,0,1-13-1.4,89,89,0,0,1-14.07-3.08,29.8,29.8,0,0,1-10.3-4.23,28.93,28.93,0,0,1-8-16.39,40.5,40.5,0,0,1,1.07-17,66.08,66.08,0,0,1,7.38-16.75,78.86,78.86,0,0,1,5.81-8.47,31.84,31.84,0,0,1,8-7.33A32.46,32.46,0,0,0,229,209a8.37,8.37,0,0,1-1.38,1.05c-.18,0,.92-1.38,2.6-3a30.16,30.16,0,0,1,2.87-2.32,34.84,34.84,0,0,1,3.06-1.88c1.9-1,3.28-1.59,2.63-1.69,1.2-.27,3.28-.73,5.68-1s5.1-.51,7.45-.58c4.73-.14,8-.07,4.62.28,6.93-.25,13.73-.34,20.28-.24a185.28,185.28,0,0,1,18.69,1.06,43.69,43.69,0,0,1,15.47,4.54,22.85,22.85,0,0,1,9.21,8.95,34.41,34.41,0,0,1,5.1,8.31,47.9,47.9,0,0,1,3.22,11.84,88.6,88.6,0,0,1,.87,11.6c.06,3.82,0,7.61-.11,11.46s-.18,7.72-.27,11.73l.73,2.23a161.1,161.1,0,0,1-.72,20.16,98,98,0,0,1-3.53,18.73,113.11,113.11,0,0,1-7,20.61c-.4.85-.77,1.73-1.2,2.57L315.92,336c-.87,1.71-1.86,3.36-2.88,5a96.69,96.69,0,0,1-6.85,9.53A178.41,178.41,0,0,1,290,367.72c-5.68,5.36-11.35,10.47-16.75,15.32-11.32,8.93-14.44,11.54-17.12,14.21-1.35,1.31-2.62,2.6-4.9,4.51a90.51,90.51,0,0,1-11.22,7.9c-3.68,2-8.09,4.32-12.81,6.55s-9.73,4.44-14.57,6.49-9.5,4-13.53,5.58-7.4,3-9.79,3.76c10.36-4.71,16.28-7.54,22.27-10.57,3-1.51,6-3,9.7-4.79s8-3.79,13.35-6.56c-2.12.95-1,.16,1.69-1.4s6.61-4.11,10.16-6.61,6.68-4.9,7.8-5.93.3-.61-4.21,2.27a142.62,142.62,0,0,1-14.8,9.88,185,185,0,0,1-16.6,8.33c-11.5,5.13-23.63,9.62-35.16,15.24s-22.4,12.57-30.9,21.37a64.59,64.59,0,0,0-10.54,14.32,53.7,53.7,0,0,0-5.37,15.69c-.3-.89-1.42,1.86-2.26,7a103.14,103.14,0,0,0-.86,20.52c.14,4,.52,8.18.81,12.34.21,2.07.43,4.14.64,6.18s.42,4.05.73,6c.55,3.9,1,7.6,1.69,10.87s1.09,6.17,1.63,8.46l-.31,1.29c.37,2,.69,3.92,1.09,5.81s.84,3.73,1.27,5.59c.21.92.42,1.85.64,2.79s.5,1.85.76,2.79c.53,1.87,1.06,3.78,1.62,5.77A182.7,182.7,0,0,0,155.5,607a172.29,172.29,0,0,0,24.76,37.83c9.67,11.07,20.59,20.09,30.81,28.1,7.57,5.87,15.9,11.43,24.17,16.79s16.6,10.51,24.56,14.94a230.59,230.59,0,0,0,22.13,10.92A154.2,154.2,0,0,0,298,721.39c-21.29-9.25-40.45-21.1-58.17-32.46-8.85-5.71-17.39-11.21-25.15-16.94a137.13,137.13,0,0,1-20.48-18,165.59,165.59,0,0,0,14.69,12.24c4.08,3,7.44,5.28,10.66,7.33,6.44,4.09,12.34,7.39,23,13.7L232,679.52l9.14,5.46c-4.16-3.56,8,3.56,7,2L232,676.5c-5.36-3.52-10.64-7-15.78-10.71,4,3.07,6.44,4.88,7.6,5.89s1.09,1.18.34.9c-1.52-.56-5.77-3-8.43-4.39-5.28-3.87-10.44-7.85-15.31-12.09,1.59,1.6,4.72,4.3,6,5.55s.72,1.11-4.94-3.19c-3-2.55-6.47-5.49-9.83-8.7-1.71-1.58-3.27-3.34-4.83-5a50.92,50.92,0,0,1-4.32-5.16c1.78,1.86,3.81,3.47,5.72,5.16l2.9,2.51,3,2.36a102,102,0,0,1-20.41-24.76c-5.37-8.77-9.77-18-14.92-28.64-.5-2.38-.73-4.85-1.09-7.25a221,221,0,0,1-6.83-21.06l1.23,2.26a239.58,239.58,0,0,1-5.33-26.08c-2.41-14.24-3.07-16.37-4-18.86-.34-2.79-.47-5.57-.7-8.22s-.39-5.21-.48-7.52a76,76,0,0,1,.13-10.51c.2,4.18.61,8.4,1.14,12.69-.08-4-.05-7.89.15-11.7-.23,3.93-.39,1.52-.4-2.19,0-1.86.1-4,.22-5.87s.29-3.41.3-4.1a55.64,55.64,0,0,1,1.9-7.51,40.87,40.87,0,0,1,1.94-4.94,38.83,38.83,0,0,1,3-5.53,42.21,42.21,0,0,1,2.77-3.78l2.19-2.47c.94-.93,2-2.09,3.4-3.38,5.25-6,12.86-11.35,19.24-15,1.57-.94,3.11-1.72,4.46-2.49l3.63-1.94c2.08-1.12,3.37-1.92,3.46-2.32,14.39-6.39,30.57-11.61,46.26-19.5a167,167,0,0,0,22.22-13.55c6.9-4.92,13.3-10.07,19.35-15.1,3.38-3.17,6.69-6.35,10-9.52,14.42-11.59,25-21.46,33.19-33.86s13.42-27.06,16.09-46.91l-.07,3.2a188.16,188.16,0,0,0,1-21.76c.52-7.38.55-13.6.47-19.3,0-2.84-.12-5.56-.21-8.22s-.22-5.37-.39-8.1a119.4,119.4,0,0,0-2.31-17.91,61.42,61.42,0,0,0-3.3-10.73,42.2,42.2,0,0,0-7.29-11.72c-.93-1-1.95-1.92-2.91-2.84a37.79,37.79,0,0,0-3.13-2.4,38.5,38.5,0,0,0-6.39-3.55A52.82,52.82,0,0,0,300,193.13a87,87,0,0,0-10.06-1.21c-3-.19-5.78-.27-8.37-.29a119.55,119.55,0,0,0-23.41,2c-4.42.43-9.15.7-14.21,1.55a45.77,45.77,0,0,0-7.66,1.94,32.15,32.15,0,0,0-7.4,3.68,47.39,47.39,0,0,0-11,10.88,98.77,98.77,0,0,0-7.32,11.16c1.55-3.26,3.26-6.39,5.09-9.45A106.85,106.85,0,0,0,208,224.91,68.65,68.65,0,0,0,202.8,239a47.81,47.81,0,0,0-1.43,11.66,41,41,0,0,0,2.27,13.25,35.21,35.21,0,0,0,4.18,8.21,31.54,31.54,0,0,0,8.41,8.26,41.38,41.38,0,0,0,13.55,6.24,63.08,63.08,0,0,0,10.11,1.81,67.27,67.27,0,0,0,12.23.17c2.93-.24,5.1-.68,7.63-1.08,1.26-.22,2.6-.48,4.18-.7s3.37-.55,5.53-.83a136.71,136.71,0,0,0,38.65-7.51l-.95,0c1.31-.67,2.53-1.25,3.64-1.85l3.11-1.67c2-1.05,3.68-2.1,5.25-3.14a45,45,0,0,0,4.49-3.34,27.44,27.44,0,0,0,4.34-4.53,16.69,16.69,0,0,0,3.19-7.71,15.11,15.11,0,0,0-.34-5.33,16.33,16.33,0,0,0-2.63-5.54c-2.55-3.55-6.45-6.42-11.24-8.81-1.19-.61-2.46-1.16-3.78-1.71l-4-1.57c-2.81-1-5.83-2.09-9.13-3.07.69.6,1.38,1.19,2.06,1.8a89.29,89.29,0,0,0-22.28-5.63c-3.59-.45-7.36-.83-11.7-1.09-2.17-.12-4.48-.25-7-.33-1.25-.05-2.56-.06-3.91-.09-.68,0-1.37,0-2.08,0h-2.31c-.81,0-1.73,0-2.72.09a8.61,8.61,0,0,0-3.13.84,5.5,5.5,0,0,0-2.47,2.74,11.76,11.76,0,0,0-.81,4.12c-.1,5.32-.22,11.53-.34,18-.17,12.73-.17,26.56.63,36.63-.73,41.14,2.7,61,3,96.28-.55,21.2,1.7,36.26-.07,40.34l-.09-3.81L245.11,428l1.33.92c-.25,12.74.7,31.06-.42,42q1.65,14.76,3.4,29.51c-.49-7.25-.64-15.29-.74-23.37l-.34.83c-.31-7.69-1.09-26.38-.78-35.28l.69,10.66c0-12.27.88-2.05,1.16,1.38,0,12.3.32,16.77.72,20.51s.86,6.74,1.35,16.11c0,4.23.13,12.27-.37,9.32.34,5.52.56,15.59.92,24.39s.85,16.33,1.52,16.78l-.07,2.2C255.6,540.13,257.25,527.56,258.76,511.47Z" transform="translate(7.86 80.64)"/><path class="cls-1" d="M300.58,210.09l-.49-.31a35.14,35.14,0,0,1,4.89,3c-2.74-3.63-6.55-7.38-11.19-5.17.59-2.05-2.73-4.7-3-4.23a22.76,22.76,0,0,1-2.76-.15c.61.1,1.22.18,1.85.23-.63-.05-1.24-.13-1.85-.23-5.72-.66-11-3.42-16.79-6-1.62-.68-4.69-1.77-7.84-2.73s-6.34-1.8-8.09-2.37q-.75-.24-1.53-.45l1.68.65c-2.26.18-4.31.54-6.24.65a3.75,3.75,0,0,0,1.07,1.16l-.94-.32c-1,.77-3,.57-4,.85.24-.44-.5-.6-1.16-.72l.24.32a71.19,71.19,0,0,0-7.65-.17.94.94,0,0,1-.69-.34c-.72.1-1.43.24-2.15.37.16-.62-1.79-.5-.77-.91a7.27,7.27,0,0,1-2.41.56,6.47,6.47,0,0,0-2.33.66,56.39,56.39,0,0,0-16.49,3.67l.18.2a28.09,28.09,0,0,0-2.62,1.46,6.73,6.73,0,0,1-3,1c-1.44,1.15-3.59,2.27-3.86,3.66-1.78.67-2.29,1.58-3.94,2.43.65.46-1.46,1.29-.43,1.47,1.43.48,1.25-.26,2.44.11l-.09-.19c4.81-.52,9.49-1.14,14.21-1.71,3-1.07,6.5-1.16,9.77-1.61,3.51-.62,7.34-1.13,10.42-1.71.73-.19,1.26.36,1.88.67a34.13,34.13,0,0,1,4.66,0c1.65,0,3.33.16,4.93.13l-.15,0c1.7,0,2.88.88,4.52,1,0-.18.28-.16.41-.24.09.41,2.54.37,5.07.3,1.25,0,2.53,0,3.53,0a4.1,4.1,0,0,1,1.81.31,3.26,3.26,0,0,1,.54,0c3.37,1.15,6.36,3.8,9.24,4.55a16.74,16.74,0,0,0,2.22-.5c.38.52.71-.11,1.29.19,1,2.14,2.09,1.83,1.52,1a25.31,25.31,0,0,1,3.69,1.27c.56.1,1.13.19,1.7.27s.65.38.72.84c1.22.26.72.51,1.83,1.17,0,.66,3.33.44,3.58.77h-.22c1.31.73,1.72,2.16,3,2.86,3.44,2.12,7.55,3.79,10.76,5.78.33-.53-.79-.28-.44-1,1.9,1.16,3.49,2.92,5.38,4.13a3.7,3.7,0,0,1,.61,1.12c.51.56.51,0,.93.29l-.22.52c.9,0,.66,1.11,1.4,1.27.15-.18.39-.07.6.07-.28.52.71.37.4.82l0,0c.13.09.24.11.36.3.35,0,3.57,0,4-.09l.07.16c.36.2.74-.09.59-.31l.42.29h-.07l.42.29a.49.49,0,0,1-.25.54,1,1,0,0,1,.88.28,16.45,16.45,0,0,1-1.5-2.64c.4,0,.77.59,1.13.73a7.9,7.9,0,0,0,1.27,1.93c.15,0,.59-.46.74,0-.09.49.36.2.44.64-.42,0-.65-.24-.93-.44-.23.5.53.75.68,1,.2-.08.68.42,1.12.5-.43.35.12.46.18.83.21.2.48.12.47-.1.38-.43-.78-.87-.14-1.17-.05.28.47.49.74.62.16-.26-.05-.3.27-.45.25.23.74.09.74.46-.1,0-.19-.07-.27-.13.35.25-3.05.51-2.48.64,0-.31,3.06-.28,2.82-.45s.45-.38.28-.61l-.46.16a.68.68,0,0,1,.12-.94c.51.36-2.62.87-2,.88l-.11-.23c.3-.06.91.11.94.51.16-.26.48-.2.75-.16l.05.09c.3,0,.58.26.64-.18-1.34-.75,2.48-2.12,1.3-3,.18.9-.54.48-1.14.2a1.36,1.36,0,0,0-.32-1.06c-.38-.16-.34.09-.49.19-.12-.24-.42-.58-.19-.85-.49.2-.3-.49-.7-.57s-.07.17-.38.22c-.41-.3-1-.71-1.29-1,0-.36-.07-1.11.49-1.38.63.46-.68.57.06.89.1-.83.71.18,1.14-.24,0-.42-.49-.69-.9-.83l0,.13c-.38-.11-1.11-.36-1.26-.92.22-.18.17-.45.44-.36l-.42-.31c-.1,0-.2.07-.1.2-.32,0-.47-.17-.56-.4.1-.28-3-.4-2.84-.51-.33-.19-.19-.6-.65-.54a13,13,0,0,0,3.12.83c-.12-.43-4.4-1-4.33-1.53-.26-.12-.58-.24-.66,0-.34-.36.39-.4.24-.8,0,0-.05.13-.14.07l-.1-.47c-.86,0-1.5-1-2.46-.9a3.22,3.22,0,0,1,1.41-.5v.17c.1,0,.51.08.64-.17a1.43,1.43,0,0,0-1.26-.56,2.3,2.3,0,0,1-.12-.34l-.05.1c-.05-.23,0-.25.08-.32l.07,0c.15-.87-1.88-.45-2.41-1.25-.28,0-.1.11-.45.1a13.78,13.78,0,0,0-1.73-1.85c-.43.17-.52.29-.39.79l-.56-.44c1-.54-.7-1.43.37-1.94a.93.93,0,0,0-.84-.58c-.15.2-.39.51-.82.28a10.39,10.39,0,0,1-.72-1c0-.34.27-.35.36-.59-1-.05-.35-1-1.12-1.3-.5-.17-1.44-.6-1.71-.12C300.12,210.82,300.31,210.46,300.58,210.09Z" transform="translate(7.86 80.64)"/><path class="cls-1" d="M247,277l.85.57a27.3,27.3,0,0,1-7.78-6.54,24.13,24.13,0,0,0,3.51,4.83,20.1,20.1,0,0,0,4.78,3.8c3.42,1.95,7.2,2.55,10.28,1.29,0,1.09,1.65,2.3,3.37,3.06s3.44,1.09,3.54.84c1.45-.22,2.88-.4,4.3-.57l-2.94.28,2.94-.28c2.25-.27,4.46-.48,6.73-.65s4.67-.35,7.08-.59a73,73,0,0,0,7.42-1.13,37.25,37.25,0,0,0,7.78-2.44,25.61,25.61,0,0,0,5.69-3.53,23.4,23.4,0,0,0,6-7.27,25.24,25.24,0,0,0,2.81-9.17,34.35,34.35,0,0,0,0-7.07,27.75,27.75,0,0,0-.43-2.9,31.49,31.49,0,0,1,.32,3.27,43.66,43.66,0,0,0-4.67-9.75,7.29,7.29,0,0,0-.14,2.23l-.45-1.56c-1.39-1-2.88-3.85-4-4.95.57,0,0-1-.48-1.95l0,.51a40.89,40.89,0,0,0-3.53-5.07c-1.32-1.64-2.72-3.19-4-4.54a2.34,2.34,0,0,1-.57-1,31.91,31.91,0,0,0-2.95-2.16c.65-.32-2.17-2.29-.48-1.54-2.72-1.08-5.05-2.8-7.75-3A45.18,45.18,0,0,0,271,217.25c-2.2-.15-4.36-.19-6.5-.2s-4.35,0-6.56.23l.21.24a25.06,25.06,0,0,0-4.5,1,39.73,39.73,0,0,1-4.89,1.21,20.5,20.5,0,0,0-3.49,2.71,4.15,4.15,0,0,0-1.5,2.85,6.83,6.83,0,0,0-1.65,2.62,14.85,14.85,0,0,0-.59,2.75c.39-.17.39.37.51.8l.07.3a2,2,0,0,0,.09.31c.08.13.18.1.36-.24a2.13,2.13,0,0,0,.74-1,1.23,1.23,0,0,1,.74-.76l-.21-.08a11.83,11.83,0,0,1,6.48-3.66,29.93,29.93,0,0,1,9.2-.15,48.41,48.41,0,0,1,7.65.4c2.59.3,5.11.68,7.45,1.08a39.71,39.71,0,0,1,7.22,1.74,24.61,24.61,0,0,1,5.86,3c.86.53,1,1.44,1.38,2.26,2.84,2.6,6,7.36,8.37,11.18,0-.08-.07-.16-.09-.21,1.24,2.12,1.36,4,2.14,6.07.17-.07.28.26.43.39-.35.31,1.05,3.25,1.38,6.27a11.7,11.7,0,0,1-.17,4.19l-.19.8-.26.62a1.57,1.57,0,0,1-.38.63,2.69,2.69,0,0,1-.27.6,11.92,11.92,0,0,1-5.4,3.6c-2.07.76-4.2,1.19-6.11,1.84-.73.64-1.65,1.21-2.32,1.82-.81-.19-.84.5-1.77.58-2.57-1.31-3.82-.53-2.56,0a31.37,31.37,0,0,1-5.68.45l-2.54.37a1.37,1.37,0,0,1-1.46-.56c-1.83.15-1.28-.23-3.14-.55-.2-.31-1.39-.19-2.59-.06a10.48,10.48,0,0,1-2.68.13l.31,0c-2.11-.5-3.19-1.95-5-2.58-1.27-.52-2.54-1.06-3.76-1.67-.63-.29-1.22-.63-1.82-.94s-1.13-.65-1.66-1a19.55,19.55,0,0,1-5.4-5.13c-.54.35.74.71.14,1.27a12,12,0,0,1-1.89-3.69,28.33,28.33,0,0,1-1-3.75,3.14,3.14,0,0,1,.42-1.26c.12-.75-.35-.39-.34-.93l.55-.13c-.49-.73.56-1.11.37-1.73-.23-.05-.24-.29-.2-.52.58.06.07-.69.6-.56l0,0c0-.12,0-.22.15-.34a7.44,7.44,0,0,1-.57-1.57,10.77,10.77,0,0,1-.28-1.68l.14,0c.18-.26-.07-.66-.27-.57.09-.11.2-.2.3-.3v.07c.1-.11.2-.16.29-.25s.33.16.43.41c0-.27.1-.51.33-.54a8.54,8.54,0,0,0-1.14.11,11.16,11.16,0,0,0-1.4.44c0-.41.65-.7.84-1,.54,0,1.35-.22,2-.23.08-.08-.13-.73.26-.57.29.36.29-.14.61.1-.16.32-.42.29-.66.39.27.44.69.1.9.2,0-.19.46-.11.67-.27-.05.53.2.32.28.61.11,0,.18-.13.16-.33.12-.58-.56-.34-.36-.93.08.26.39.17.55.17,0-.3-.09-.24.06-.52.19.09.49-.22.52.13-.07.07-.12,0-.18,0,.12.05-.35.44-.63.91s-.46,1-.36.84a1.83,1.83,0,0,1,.51-1c.32-.39.78-.66.71-.69-.13-.19.31-.5.15-.65q-.17.15-.3.3a.85.85,0,0,1-.11-.9c.25.07-.23.5-.56,1s-.56.94-.41.77a1,1,0,0,0-.15-.14c.12-.22.54-.4.64-.05a.52.52,0,0,1,.4-.47l0,.06c.19-.12.4,0,.41-.4-.49-.11-.24-.83.23-1.55s1.11-1.39.15-1.73c.62.86-.41.55-1.2.62a1.31,1.31,0,0,0-1.09-.71c-.55.12-.29.28-.37.46-.31-.1-.91-.1-.92-.45-.32.52-.77-.06-1.25.28s.1.16-.13.47a14.08,14.08,0,0,0-2,1c-.37-.15-1.31-.1-1.24-.85,1-.7.17.92,1.07.09-.88-.32.77-.79.72-1.37a2.38,2.38,0,0,0-1.79.88h.18a6.94,6.94,0,0,1-1.93,1.7c-.1-.29-.45-.18-.2-.6l-.6.68c0,.15,0,.29.2.12a1.38,1.38,0,0,1-.7.92c-.16,0-.52,1.15-.65,2.29s-.06,2.22-.14,2.14c-.13.57-.58.63-.41,1.25.11,0,.11-1.38.34-2.76s.67-2.68.5-2.28c-.28.15-.81,2-.9,3.69s.09,3.38-.19,3.55c0,.44.06,1,.35.87-.12.73-.55-.23-.8.31,0,0,.14-.05.13.12l-.34.53a7.9,7.9,0,0,1,.35,2,4.08,4.08,0,0,0,.68,2,3.7,3.7,0,0,1-1.43-1.32l.12-.16c-.13-.1-.29-.77-.57-.71a3.35,3.35,0,0,0,.54,2.25,4.53,4.53,0,0,1-.11.49l.11,0c-.1.31-.14.29-.27.22a.1.1,0,0,1-.08,0c-.32.35,0,1.12.48,1.91a8.27,8.27,0,0,1,1.19,2.38c.29.34.14,0,.52.38A16.09,16.09,0,0,0,239,266c.58.2.72.13.68-.56l.58,1c-1.44-.26.65,2.28-.83,2a2.4,2.4,0,0,0,1.08,1.41c.22-.12.58-.3,1.15.32.61,1,.49.76,1,1.66,0,.39-.39.24-.53.45,1.44.7.55,1.43,1.77,2.29.77.52,2.33,1.5,2.66,1.06C247.52,276.29,247.33,276.62,247,277Z" transform="translate(7.86 80.64)"/><path class="cls-1" d="M421.66,248.06l.76-.17c-2.38.78-4.95,1.37-7.5,2,6,0,12.69-.25,15.79-5.21,1,1.92,6.41,1.56,6.39,1.07a25.87,25.87,0,0,1,3-1.68c-.73.3-1.45.66-2.15,1,.7-.36,1.42-.72,2.15-1a29,29,0,0,1,5.19-1.81c.9-.22,1.81-.41,2.74-.58s1.85-.24,2.8-.34l1.42-.12,1.42,0c.95,0,1.92,0,2.87,0,1.91.14,3.85.23,5.74.56l1.89.23c.72.09,1.51.26,2.36.39,1.71.23,3.57.75,5.43,1.18.92.27,1.82.59,2.7.87.43.15.87.26,1.28.44l1.19.51,2.12.94c.62.32,1.16.63,1.61.89l1.55.94c-.83-.59-.83-.61-1.67-1.17a40.17,40.17,0,0,1,7.14,1.93,4.06,4.06,0,0,0-.79-1.61c.32.25.64.5,1,.77,1.4-.22,3.62,1.15,4.85,1.53-.47.25.3.84,1,1.37l-.11-.44c2.62,2,6,3.89,8.43,5.69a1.43,1.43,0,0,1,.56.81l2.59,1.39c-.54.38,1.69,1.85.32,1.36,2.22.66,3.84,2.31,6,2.83a82.88,82.88,0,0,0,21.42,9.62l-.09-.29c2.67.71,5.32.45,8.25,2,2.48,0,5.75.64,7-.34a14.48,14.48,0,0,0,3.18.4c.94,0,1.88,0,3.17.2-.48-.78,2.62-.13,1.5-.92-1.41-1.29-1.69-.57-2.89-1.64v.22c-6.18-2.69-12.22-5.45-18.19-8.43-4.3-1.33-8.44-3.91-12.52-6.11-4.45-2.28-9.13-5-13.08-7.13-1-.47-1.29-1.35-1.86-2.12-3.52-2.15-7.8-5.46-12.19-7.7l.2.14c-2.28-1.25-3.68-2.81-6.08-3.88-.07.17-.43,0-.65,0,0-.46-3.7-1.86-7.61-2.56-1-.17-1.93-.44-2.86-.53l-2.55-.34a15.18,15.18,0,0,1-2.8-.49c-.27,0-.55,0-.83,0-1.32-.33-2.64-.76-4-1.07s-2.67-.78-4-1-2.64-.54-3.92-.7a25.52,25.52,0,0,0-3.68-.11A20.12,20.12,0,0,0,453.8,231c-.84-.3-.95.41-1.93.38-2.63-1.45-4-.53-2.67-.1-1,.24-2,.36-3,.51s-1.93.28-2.81.45-1.6.52-2.38.83a1.38,1.38,0,0,1-1.54-.22c-1.73.6-1.3.05-3.19.31-.59-.48-4.43,2-5,2l.27-.16c-2.13.43-3.84-.32-5.9.22-5.83,1.17-11.82,3.54-17,5,.14.61,1.09-.5,1.4.27-3,.86-6.32,1.11-9.39,2a5.86,5.86,0,0,1-1.67-.17c-1,.09-.49.47-1.22.62l-.27-.5c-.9.77-1.71-.11-2.61.43,0,.23-.34.37-.69.47-.2-.56-1.06.38-1.17-.15v0a1.52,1.52,0,0,1-.64.13c-.33.33-3.56,3.08-3.89,3.45l-.21,0c-.56.2-.66.69-.3.69l-.7.19.07-.06-.7.18a.37.37,0,0,1-.25-.53,1.86,1.86,0,0,1-1.15.59,26.67,26.67,0,0,1,4,.28c-.4.34-1.33.31-1.82.53a13.5,13.5,0,0,0-3.09-.05c-.2.1-.15.78-.71.65-.38-.36-.54.19-1,0a2.63,2.63,0,0,1,1.34-.54c-.25-.49-1.24,0-1.66,0-.12.22-1.06.34-1.58.66.09-.57-.56-.17-1-.32-.4.06-.58.33-.37.46.05.58,1.61-.16,1.26.57-.22-.21-.93.11-1.32.27.09.29.34.13.17.5-.46.07-.82.58-1.17.36.06-.11.25-.12.39-.15-.59.15,2.51-2.93,1.82-2.52.28.2-2.73,2.8-2.34,2.7s-.08.61.32.6l.29-.49c.53-.05.9.4.79.66-.85.22,1.73-2.77,1.11-2.25l.33,0c-.24.29-1,.71-1.41.51.1.29-.28.52-.58.73H379c-.3.26-.81.35-.46.66,2-.7-.4,3.39,1.64,2.92-1-.38.07-.75.92-1.11a1.72,1.72,0,0,0,1.33.35c.52-.22.24-.33.29-.53.35.05,1,0,1,.34.29-.53.76,0,1.22-.26s-.08-.16.17-.46c.69-.17,1.65-.42,2.21-.51.31.24,1.12.6.82,1.24-1,.26.13-.92-.9-.48.69.58-.87.5-.89,1.11A2.14,2.14,0,0,0,388,254l-.15-.06a3.21,3.21,0,0,1,2.11-.52c-.05.29.25.41-.1.59l.71-.18c.06-.11.13-.22-.09-.21a.9.9,0,0,1,.93-.23c.16.24,3.33-2.32,3.28-2.11.49-.17.75.19,1.15-.24a24,24,0,0,0-3.86,2.16c.52.16,5.24-3.17,5.72-2.76.36-.14.79-.34.62-.59.67-.06,0,.58.51.7,0,0-.08-.13.06-.16l.54.2c.84-.73,2.45-.64,3.29-1.53a3.83,3.83,0,0,1-.94,1.49l-.17-.1c-.06.11-.57.38-.47.65a2.69,2.69,0,0,0,1.77-.72,3.92,3.92,0,0,1,.43.1,1,1,0,0,1,0-.1c.26.1.25.14.21.27s0,.05,0,.07c.65.68,2.29-1.29,3.56-1.24.3-.22,0-.15.36-.44a26.54,26.54,0,0,0,3.42-.27c.28-.47.26-.62-.32-.83l.95-.18c-.54,1.18,2,.32,1.37,1.53a1.75,1.75,0,0,0,1.37-.32.7.7,0,0,1,.58-.85c1,0,.75,0,1.59,0,.27.25,0,.45.14.68,1-.75,1.21.33,2.27-.06.64-.3,2-.75,1.83-1.28C421.5,247.22,421.62,247.61,421.66,248.06Z" transform="translate(7.86 80.64)"/><path class="cls-1" d="M396.18,303.85l.4-.28a44.52,44.52,0,0,1-3.9,3.15,19.87,19.87,0,0,0,5.47-2.39,5.43,5.43,0,0,0,1.67-1.94,6.18,6.18,0,0,0,.53-2.93c1.51,1.48,4.52.73,4.3.31a9.45,9.45,0,0,1,1.2-1.72,8.46,8.46,0,0,0-.91,1.06,8.46,8.46,0,0,1,.91-1.06,10.5,10.5,0,0,1,5.87-3,30.54,30.54,0,0,1,7.54-.32c2.84.09,11.35.06,14.41.55l1.34.16-1.5-.33c1.85-.64,3.52-1.24,5.14-1.62a3.36,3.36,0,0,0-1-1l.84.19c.76-.91,2.51-.84,3.35-1.21-.19.46.45.57,1,.66l-.22-.31c2.17.22,4.66.06,6.56.31a.73.73,0,0,1,.53.41l1.85-.12c-.23.59,1.36.8.46,1a4.85,4.85,0,0,1,2.06-.13,4.79,4.79,0,0,0,2-.08c2.21.53,4.45,1.12,6.7,1.84,1.1.4,2.25.74,3.37,1.18s2.26.89,3.4,1.38l0-.26c1.62.64,3.62.64,5,2.35,1.71.36,3.63,1.56,5,1.05,1.44,1.13,2.41,1.18,3.91,2.2.13-.77,1.77.68,1.5-.29-.2-1.47-.79-1-1-2.2l-.13.17a45.33,45.33,0,0,0-10.33-11.06c-3.25-1.54-6.63-3.7-10.2-4.8A38.21,38.21,0,0,0,452,283.23c-.79.08-1.28-.53-1.9-.9-3-.06-6.73-.45-10-.1l.16,0c-1.73.1-3-.53-4.7-.38,0,.19-.24.21-.37.3-.16-.42-2.6.1-5,.73s-4.84,1.3-5.15,1.08l-.52.13c-3.44-.16-7.27-1.52-10.44-.87a13.88,13.88,0,0,0-1.83,1.51c-.62-.26-.59.46-1.28.5-2-1.3-2.94-.34-1.89,0-1.35.56-2.79.82-4,1.31-.53.32-1.05.64-1.56,1a.93.93,0,0,1-1.2-.06c-1.12.79-.95.2-2.29.71-.29-.18-1,.45-1.63,1.13s-1.17,1.47-1.38,1.49l.14-.19c-1.42.74-2.89.46-4.21,1.35-3.72,2.31-6.64,5.78-9.35,8.17.41.47.47-.66,1.08-.11-1.61,1.43-3.65,2.38-5.2,3.71a3,3,0,0,1-1.18.19c-.63.26-.07.47-.47.73l-.43-.37c-.19.79-1.14.22-1.45.79.12.19,0,.36-.2.49-.4-.45-.49.47-.81,0l0,0c-.11.08-.15.17-.34.2,0,.17-.21.92-.42,1.67s-.43,1.54-.46,1.7h-.15c-.26.21-.13.65.1.62l-.37.22,0-.06-.36.21a.56.56,0,0,1-.38-.46c-.07.31-.22.56-.48.61a15.26,15.26,0,0,1,2.66-.06c-.12.34-.74.38-1,.62a8.74,8.74,0,0,0-2,.14c-.09.09.19.7-.21.6-.36-.31-.27.19-.65,0,.11-.35.39-.4.64-.52-.32-.44-.76,0-1,0,0,.2-.54.33-.76.59-.12-.52-.39-.18-.68-.34a.23.23,0,0,0-.09.42c.19.53.93-.1.94.56-.2-.2-.54.08-.74.21.13.28.25.14.24.47-.26.06-.36.53-.63.31,0-.1.13-.1.2-.13-.16.06,0-.61.22-1.24s.32-1.2.18-1c.25.17-.85,2.5-.67,2.43s.1.57.34.57l.06-.45c.32,0,.67.39.67.63-.46.17.32-2.54.07-2.06l.22.06c-.06.25-.41.63-.72.42.13.27,0,.48-.17.67h-.08c-.12.24-.42.31-.12.61.54-.31.7.48.85,1.31s.27,1.69.92,1.46c-.8-.35-.13-.71.34-1a1.27,1.27,0,0,0,1,.31c.31-.21.08-.31.06-.49.25,0,.64-.07.78.27,0-.52.54,0,.76-.32s-.11-.15,0-.43l1.34-.64c.3.2,1,.42,1,1-.63.36-.25-.86-.8-.33.69.45-.43.54-.25,1.08a1,1,0,0,0,1.1-.42l-.13,0c.25-.29.74-.84,1.3-.73.08.27.34.33.16.54l.44-.26c0-.1,0-.21-.15-.17.07-.3.33-.35.57-.34.22.17,1.35-2.57,1.38-2.39.26-.24.6,0,.67-.42a14.76,14.76,0,0,0-1.73,2.55c.21,0,.81-.88,1.38-1.77s1.09-1.77,1.35-1.64c.19-.18.38-.45.14-.62.42-.2.27.5.68.48,0,0-.11-.09,0-.15l.47.06c.2-.8,1.36-1.05,1.47-2a3.13,3.13,0,0,1,.11,1.46l-.16-.05c0,.1-.21.44,0,.64a1.26,1.26,0,0,0,.85-1,2,2,0,0,1,.34,0l-.08-.08c.23,0,.24.06.28.18a.14.14,0,0,1,0,.07c.78.41.9-1.6,1.77-1.85.09-.25-.08-.12,0-.44a14.1,14.1,0,0,0,2.15-1c-.06-.45-.15-.57-.65-.6l.54-.37c.26,1.09,1.5-.19,1.72,1a.84.84,0,0,0,.74-.58c-.15-.2-.38-.51-.05-.82a8,8,0,0,1,1.06-.32c.31.14.26.36.45.53.29-.84,1,0,1.46-.53.27-.38.9-1,.54-1.44C395.65,303.17,395.92,303.47,396.18,303.85Z" transform="translate(7.86 80.64)"/><path class="cls-1" d="M417.79,314.25l.3.33a12,12,0,0,1-2.85-3.43,8.89,8.89,0,0,0,2.33,5.06,3.83,3.83,0,0,0,5,.4,3,3,0,0,0,.44,2.81c.51.76,1.18,1.17,1.31.94a17,17,0,0,1,2.05-.21c-.44,0-.89,0-1.35,0,.46,0,.91,0,1.35,0a18.35,18.35,0,0,1,5.82.75c1.87.5,3.76,1.24,5.7,1.86a43,43,0,0,0,5.11,1.07c2,.34,4,.61,5.08.91.31.08.63.15.94.21l-1.05-.38c1.32-.57,2.48-1.14,3.59-1.53a3.06,3.06,0,0,0-.72-1l.58.19a1.5,1.5,0,0,1,.48-.52,1.31,1.31,0,0,1,.31-.17l.49-.14a7.71,7.71,0,0,0,1.67-.49c-.09.47.61.52,1.23.56l-.32-.29a8.31,8.31,0,0,0,5.9-2.23.82.82,0,0,1,.64-.19,6.89,6.89,0,0,0,.72-1.73c.46.53,1.05-1.07,1,0a14.6,14.6,0,0,1,.17-2.28,5.47,5.47,0,0,0-.18-2.26c.05-.6.1-1.2.14-1.81s0-1,0-1.45c0-.88-.06-1.77-.17-2.67a18.7,18.7,0,0,0-1.42-5.39l-.21.12c-.57-1.22-2-2-2-3.49-1.11-.75-2.12-1.86-3.44-1.49a2.09,2.09,0,0,0-1.08-.71l-.56-.21a3.17,3.17,0,0,1-.62-.24c-.16.3-.45.28-.69.27s-.53-.07-.49.31c-.32,1,.27.49,0,1.26l.16-.15a31.91,31.91,0,0,1,.3,6.12c.69,1.46.24,3.33.28,5.18l0,.77c0,.11,0,.3,0,.35a.39.39,0,0,0,.05.13l.21.53a6.62,6.62,0,0,1,.44,1.42c.09.3-.46,0-.78-.22-.09.3-.41.4-.72.44a2.73,2.73,0,0,0-1,.27l0,0h-.13a2.21,2.21,0,0,1-.37,0c-.23,0-.46-.1-.69-.16a3.45,3.45,0,0,0-1.4-.2c0,.18-.15.2-.23.29-.09-.42-1.55,0-3,.51s-3,.93-3.17.67a1.68,1.68,0,0,1-.32.09c-2.08-.49-3.94-2.35-5.56-2.48a15.9,15.9,0,0,0-1.27,1c-.22-.41-.42.27-.75.1-.52-1.85-1.15-1.29-.86-.59a7.45,7.45,0,0,1-2.09-.42l-1,.09c-.29.05-.35-.23-.33-.65-.7,0-.37-.33-.93-.73.07-.59-1.91.21-2-.06l.13,0c-.64-.44-.52-1.68-1-2.07-1.35-1.32-3-2.24-3.52-3.49-.53.33.28.16-.38.65a2.35,2.35,0,0,1-.21-1.28,4.36,4.36,0,0,0,.09-1.1,2.14,2.14,0,0,1,.58-.46c.18-.22-.31,0-.26-.19l.55-.12c-.5-.12.58-.35.33-.46s-.27-.05-.24-.1c.59,0-.05-.17.49-.17h0s0-.05.07-.08a8.66,8.66,0,0,1-1-.39c-.46-.22-.86-.49-1-.56h.1c0-.1-.4-.25-.53-.22l.07-.12,0,0,.06-.12a1.64,1.64,0,0,1,.57.16c-.17-.12-.25-.23-.13-.25a8.84,8.84,0,0,0-1.63.32c-.19-.17.18-.3.15-.43.41-.05.82-.18,1.14-.22,0,0-.61-.35-.31-.31s0-.11.36,0c.17.18.05.19,0,.26.5.21.4,0,.57,0-.13-.1.07-.13,0-.26.41.32.31.15.55.28.06,0-.08-.13-.24-.24-.43-.37-.37,0-.82-.44.24.14.22,0,.25-.07-.24-.2-.22-.12-.41-.34.1,0-.12-.33.14-.15.06.07,0,.06,0,.07s.32.43.64.78a2.64,2.64,0,0,0,.61.6,3.45,3.45,0,0,1-.72-.75c-.26-.34-.46-.73-.49-.71s-.37-.43-.49-.44l.22.32a1.68,1.68,0,0,1-.73-.48c.09-.06.38.4.69.78s.63.7.53.57l-.15-.05c-.13-.14-.19-.38.09-.21a.8.8,0,0,1-.31-.43l0,0c-.07-.15,0-.18-.28-.42-.11.18-.67-.37-1.2-1s-1-1.31-1.36-1.06c.71.21.45.53.32.82a1.08,1.08,0,0,0-.84-.1c-.08.21.14.24.26.36-.19,0-.41.15-.7-.05.29.35-.38.1-.34.37s.16.07.3.27c-.16.22-.36.55-.51.73-.33,0-1,.06-1.41-.3.23-.43.73.43.79-.05-.78-.07-.06-.48-.53-.78-.39,0-.51.34-.52.63l.12,0c0,.27,0,.77-.43.93-.25-.12-.47-.05-.49-.25l-.13.34c.07.06.15.12.22,0,.18.21,0,.35-.15.45s.06.52.34,1,.59.88.49.85c0,.23-.43.29-.13.52.1,0-.13-.54-.36-1.1a5.89,5.89,0,0,0-.38-1c-.17.09.07.87.39,1.55s.65,1.3.4,1.39c0,.18.12.38.4.3-.11.31-.55,0-.8.22.05,0,.14,0,.14,0l-.32.26c.5.39.09,1.2.8,1.52a2.61,2.61,0,0,1-1.26-.33l.13-.09c-.1,0-.26-.28-.54-.22a.76.76,0,0,0,.37.9,1.56,1.56,0,0,1-.17.25l.11,0c-.14.16-.17.16-.29.15h-.07c-.36.22-.14.52.17.82s.67.61.62,1c.18.11.13,0,.38.09a5.35,5.35,0,0,0,.15,1.88.66.66,0,0,0,.73-.49l.16.46c-1.06.16-.22,1.29-1.29,1.43a.57.57,0,0,0,.37.68c.21-.12.54-.32.77,0,.07.59.08.43.13.94-.17.29-.37.25-.55.43.75.23-.11.91.4,1.33.34.23.95.73,1.33.33C418.38,313.64,418.13,313.94,417.79,314.25Z" transform="translate(7.86 80.64)"/><path class="cls-1" d="M543.27,156.05l.61,1.06c-2.15-3.31-4.32-6.83-6.47-10.31,3.62,8.36,7.65,17.93,14.5,21.9-1.4,1.69,1.84,9.66,2.37,9.56,1.18,1.39,2.28,2.85,3.35,4.35-.71-1-1.44-2.07-2.18-3.08.74,1,1.47,2,2.18,3.08a77.38,77.38,0,0,1,4.66,7.57c1.38,2.68,2.73,5.44,3.92,8.3a121.75,121.75,0,0,1,5.89,18,132.67,132.67,0,0,1,3.28,16.1,71.07,71.07,0,0,1,.39,16.11c-.11,1-.22,2-.34,3,.26-1.67.29-1.67.51-3.35a80.71,80.71,0,0,1,.51,12.08,7.31,7.31,0,0,0,1.31-2.27c-.15.65-.27,1.29-.44,1.94.65,1.9,0,6.06-.05,8.09-.37-.51-.75,1-1.07,2.36l.4-.48c-1.16,5.13-2.16,11.24-3.25,15.92a3.12,3.12,0,0,1-.64,1.37l-.63,4.6c-.54-.48-1.31,3.67-1.24,1.41,0,3.55-1.09,7-.9,10.41a156.52,156.52,0,0,0-1.06,36.81l.23-.3c.41,4.27,1.67,8,1.41,13.16.93,3.66,1.57,8.87,2.93,10.28.36,4.23,1.1,5.88,1.63,10,.59-1.1,1,4,1.37,1.93.75-2.8,0-2.91.59-5.29l-.21.08c.42-10.95.53-21.81.94-32.68-.49-7.27.32-15.08.94-22.5.31-4,.7-8.15,1.21-12.16s1.07-7.94,1.56-11.44a12.81,12.81,0,0,1,1.56-4.1c1.13-6.42,3.21-14.6,4-22.19l-.08.37c.5-4,1.57-7,1.76-11-.18,0-.15-.61-.22-.92.46-.3.45-6.3-.39-12.3s-2.42-11.82-2.32-12.55c-.11-.4-.22-.81-.33-1.24-1.2-8.25-2.3-17-5-23.67-.92-1.31-1.88-2.81-2.78-3.83-.13-1.3-.87-1.26-1.37-2.68.09-4.19-1.5-6-1.25-3.91-1.48-2.77-2.65-5.69-3.88-8.19-.69-1.1-1.37-2.19-2.06-3.31a2.89,2.89,0,0,1-.54-2.27c-1.49-2.42-.75-1.86-1.95-4.58.23-.94-4.34-6.12-4.59-6.93l.31.38c-1.54-3.06-1.75-5.57-3.38-8.52-4.38-8.28-10.4-16.57-15.34-23.68-.55.29,1.22,1.47.61,2-1.42-2.12-2.77-4.3-4.15-6.48a75.93,75.93,0,0,0-4.35-6.41,15.24,15.24,0,0,1-1-2.39c-.87-1.42-.85-.56-1.56-1.54l.33-.49c-1.48-1.07-1.17-2.39-2.42-3.53-.23.08-.63-.37-1-.83.43-.41-1.23-1.35-.76-1.64l0,0a4.18,4.18,0,0,1-.63-.84l-3.31-2.23c-1.53-1-3.07-2-3.39-2.14l-.14-.3c-.66-.69-1.25-.69-1-.21l-.76-.88.12.07-.76-.88c-.1-.19-.07-.56.35-.5a4.66,4.66,0,0,1-1.58-1.33,45.78,45.78,0,0,1,3,5.41c-.68-.44-1.39-1.7-2-2.28a26.76,26.76,0,0,0-2.52-4.11c-.27-.24-.92,0-1.27-.74,0-.61-.65-.65-.87-1.37a6.72,6.72,0,0,1,1.68,1.6c.29-.48-1.06-1.64-1.38-2.19-.32-.1-1.28-1.29-2.06-1.86.66-.07-.31-.77-.52-1.37-.41-.5-.85-.64-.79-.33-.54.26,1.58,2.05.52,1.84,0-.36-.93-1.18-1.43-1.64-.22.21.17.49-.35.39-.49-.58-1.31-.87-1.39-1.4.15,0,.34.29.49.45-.68-.72,5.18,2.31,4.16,1.55,0,.42-5.25-2.64-4.8-2.16s-.69.1-.33.61l.75.21c.51.68.38,1.31,0,1.25-1-1,4.33,1.33,3.25.7l.25.45a3.8,3.8,0,0,1-1.75-1.66c-.21.21-.78-.2-1.26-.52l-.11-.18c-.53-.31-1.06-.94-1.07-.38,2.48,2.4-3.77.63-1.53,3.1-.52-1.46.82-.16,1.91.81a3.13,3.13,0,0,0,.78,1.82c.69.61.56.21.8.21.25.46.85,1.23.5,1.39.8.21.59,1,1.29,1.51s.09-.16.61.08c.74.84,1.79,2,2.35,2.72,0,.48.29,1.64-.61,1.44-1.12-1.27,1.06-.1-.25-1.3,0,1.07-1.23-1-1.87-.82a5.11,5.11,0,0,0,1.66,2.08l-.06-.2a7.28,7.28,0,0,1,2.22,2.61c-.34,0-.22.45-.68,0l.74.88c.16,0,.32.11.14-.18a2.12,2.12,0,0,1,1,1.16,13.38,13.38,0,0,0,2.42,2,22.59,22.59,0,0,1,2.29,1.8c.55.62.37,1.05,1.12,1.47a24.86,24.86,0,0,0-2.8-2.62,20.39,20.39,0,0,0-2.39-1.94,6.44,6.44,0,0,0,1.26,1.26l2.47,2.17c1.78,1.54,3.52,3.1,3.47,3.49.41.46.93,1,1.06.7.56.89-.62.11-.35.85,0,0,.07-.14.21,0l.18.78c1.37,1,2.44,3.15,3.93,4.12a6.17,6.17,0,0,1-2.2-1v-.24c-.16-.06-.81-.69-1-.49a7.08,7.08,0,0,0,2,2.25c.07.2.15.44.19.61a.27.27,0,0,1,.07-.08c.08.38,0,.37-.13.34a.2.2,0,0,1-.1,0c-.27,1,2.95,2.83,3.72,4.61.43.37.15,0,.69.41.89,1.74,1.49,2.95,2.53,4.68.66.3.81.26.66-.59l.79,1.3c-1.58-.55.9,2.84-.76,2.17a4,4,0,0,0,1.18,1.84c.25-.07.64-.18,1.26.68.59,1.4.47,1.05.91,2.24-.09.41-.45.11-.63.3,1.4,1.33.36,1.75,1.41,3.18.72.86,1.95,2.68,2.43,2.43C544.07,155.71,543.73,155.93,543.27,156.05Z" transform="translate(7.86 80.64)"/><text class="cls-20" transform="translate(814.86 407.3)">Lana</text><text class="cls-21" transform="translate(980.88 495.26)">G<tspan class="cls-22" x="67.09" y="0">r</tspan><tspan x="99.08" y="0">ace</tspan></text></g></svg>