<svg xmlns="http://www.w3.org/2000/svg" viewBox="0 0 599 456"><defs><style>.cls-1{fill:#3d405d;}.cls-2{fill:#f5bd60;}</style></defs><title>photoicon</title><g id="Layer_1" data-name="Layer 1"><rect class="cls-1" width="599" height="456" rx="25.51"/></g><g id="Layer_2" data-name="Layer 2"><path class="cls-2" d="M98.17,378.74c-10.51-16.14-16.2-34-18-53.07-2-21.31-1.23-42.93-.93-64.31.16-10.72.53-21.44.81-32.16.33-12.54.28-25.09.81-37.63a315.6,315.6,0,0,1,3.79-38.45,142.93,142.93,0,0,1,5.13-21.8c1.81-5.45,4.12-11.28,8.18-15.48a41.71,41.71,0,0,1,9.9-7,70.76,70.76,0,0,1,14.53-6c10.38-3,21.62-6.24,32.51-6.12a35.31,35.31,0,0,1,21.42,7.58c6.89,5.34,11.54,13.66,7.24,22.15a31.18,31.18,0,0,1-14,13.22c-5.2,2.43-11.45,3.08-17.11,3.34-3.15.15-6.32.14-9.48.09a40.23,40.23,0,0,1-8-.48c-5.79-1.27-8.87-7.11-7.86-12.79,1-5.36,5.1-9.43,9.71-11.93,9.63-5.23,21.6-5.27,32.27-4.94,20.78.64,44,4.22,60.43-11.55,4.23-4,7.77-8.75,11.78-13a46.82,46.82,0,0,1,13.56-10.14c10.65-5.22,22.75-6.77,34.33-8.61,24.81-4,51-7.34,75.12,1.75,10,3.77,19.35,9.7,26.32,17.89,3.7,4.36,7.6,9.65,6.27,15.7-1,4.37-4.44,7-8.5,8.37-4.84,1.64-10,1.85-15.09,2.27-6.81.56-13.63,1.1-20.45,1.58-13.92,1-27.86,1.79-41.81,2.25-10.22.34-20.92,1.17-30.88-1.75a23.47,23.47,0,0,1-11.37-6.71c-3.5-4-5.52-10.49-2.11-15.18,2.77-3.82,8.05-4.44,12.4-4.76,6.94-.51,13.9-.87,20.84-1.3l41.21-2.56c13.53-.84,27.26-2.32,40.81-1.24A72.29,72.29,0,0,1,401,90c6.1,2.23,11.91,5.16,17.85,7.77a86,86,0,0,0,17.22,5.82A122.52,122.52,0,0,0,455,105.65c6.41.31,12.88.3,19.25,1.09,5.53.69,11.31,2.23,15.42,6.22,4.34,4.21,6.63,10.4,8.67,16a130.35,130.35,0,0,1,5.23,18.5,210.55,210.55,0,0,1,3.9,37.39c.36,12.88,0,25.77-.13,38.65q-.27,21.06,0,42.13.23,20.64.93,41.26c.24,7.08.57,14.16.84,21.23.25,6.37.33,13.06-2.28,19-4.73,10.76-16.7,16.3-27.3,19.51-12.2,3.69-25,4.7-37.64,5.45q-42,2.51-84.12,3.52-41.78,1.07-83.55.76c-13.12-.09-26.54.35-39.52-1.89a61.78,61.78,0,0,1-31-14.53c-18.65-16.53-26.47-41-31.9-64.54-2.95-12.78-6-26-4.2-39.2a68.94,68.94,0,0,1,12.12-29.57c12.62-18.17,31.82-31.35,52-39.82a153.85,153.85,0,0,1,66.08-11.57,146.17,146.17,0,0,1,64.33,17.84c10.23,5.7,19.93,13,26.65,22.69,7.08,10.23,10.53,22.55,13.46,34.5,5.71,23.34,7.85,49.86-6.46,70.68-12.28,17.86-33.62,28.18-54.88,30-24.85,2.08-50.35-5.87-71.61-18.43C250,321,233,302.49,234.06,278.64a37.29,37.29,0,0,1,14.74-28.48,65.39,65.39,0,0,1,33.46-12.7c11.44-1,23.58,1.49,32.43,9.17,7.44,6.45,12.65,16,12.52,26-.14,10.55-6.9,19.9-16.44,24.16a27,27,0,0,1-29.37-5.36c-6.23-5.87-12.73-19.17-3.24-25.26,5.28-3.39,11.94-1.39,17.52.06a109.13,109.13,0,0,1,14.74,5,104.83,104.83,0,0,1,14.8,7.68c9.74,6.1,17.68,14.74,24.52,23.87,1.15,1.53,3.75,0,2.6-1.51-7.3-9.74-15.71-18.89-26.16-25.29A109.86,109.86,0,0,0,292,262.29c-5.28-1.14-10.86-1.68-15.6,1.49-9,6-6.33,18-.85,25.51,6.22,8.47,16.86,13.8,27.45,12.66a31.16,31.16,0,0,0,24.4-17.14c4.5-9.41,3.26-20.32-1.67-29.3a40.61,40.61,0,0,0-24.46-19.34c-11.93-3.44-24.94-2-36.49,2.18-11.07,4-22.11,10.6-28.23,21-5.68,9.63-6.64,21.39-4.31,32.17,2.46,11.38,8.78,21.43,17,29.53,8.44,8.31,18.67,14.64,29.32,19.71a138,138,0,0,0,38.29,12.17c23.67,3.61,48.34-.7,67.49-15.65a64.63,64.63,0,0,0,20-25.92c4.9-11.8,6-24.82,4.92-37.45a173.79,173.79,0,0,0-8.07-38.51c-3.92-12.22-9.84-23.26-19.36-32-8.89-8.19-19.63-14.27-30.69-19a149.13,149.13,0,0,0-33.86-10,157.91,157.91,0,0,0-69.87,3.78c-22.33,6.4-43.84,17.89-60.12,34.64a86.86,86.86,0,0,0-18.65,27.91c-4.64,11.57-5.42,23.72-3.68,36a245,245,0,0,0,9.69,41c3.93,12,9.25,23.73,17,33.81,7,9,15.85,16.77,26.38,21.33,12.13,5.26,25.49,6.15,38.55,6.41,29.53.57,59.09.33,88.62-.28q44.79-.92,89.52-3.4c13.46-.75,27.09-1.38,40.25-4.54,11.36-2.73,23.72-7.43,31.12-17,8.27-10.67,5.94-25.1,5.45-37.65q-.89-22.35-1.2-44.7t-.09-44.71c.14-13.64.54-27.28.2-40.92a218.06,218.06,0,0,0-4.11-39.73A131.12,131.12,0,0,0,500.84,127c-2.13-5.62-4.48-11.61-8.79-16-8.64-8.71-22.9-7.84-34.19-8.31a131,131,0,0,1-21.37-2.19,92.84,92.84,0,0,1-19.24-6.85,177.26,177.26,0,0,0-17.95-7.53,77.66,77.66,0,0,0-19.84-3.5c-14.46-.79-29.09.84-43.51,1.73l-44.64,2.77c-6,.38-12.3.26-18.2,1.54-4.51,1-8.57,3.44-10.33,7.89-4,10,4.83,19.4,13.47,22.83,9.74,3.86,20.65,3.33,30.92,3,14.81-.43,29.6-1.24,44.37-2.28q11.08-.78,22.16-1.71c5.08-.42,10.32-.66,15.21-2.26,4-1.29,7.79-3.59,9.73-7.44,2.49-5,1.63-10.8-1.25-15.39-5.87-9.36-14.69-16.65-24.51-21.59-23.41-11.77-50.14-10.26-75.33-6.57-12.71,1.85-26,3.33-38.12,7.74a52,52,0,0,0-15.21,8.39c-4.73,3.86-8.49,8.71-12.52,13.25s-8.38,8.61-13.84,11.32a47.08,47.08,0,0,1-16.38,4.38c-11.59,1.14-23.24-.3-34.83-.52-10.91-.21-23.18.29-32.74,6.2-4.4,2.71-8.17,6.82-9.5,11.92s.07,11.43,4.35,14.94c3.88,3.19,9,3.07,13.76,3.14,6.68.1,13.42,0,20-1.25a34.55,34.55,0,0,0,19.16-10.69c6.18-6.64,8.79-15.71,4-24C182,103.91,175.53,99.25,169,96.46c-10.08-4.3-21.12-2.89-31.5-.59-11.26,2.48-22.56,5.27-32.59,11.15-6.2,3.63-11,7.89-14.28,14.3s-5.28,13.57-6.87,20.61c-3.3,14.63-4.82,29.68-5.66,44.63-.72,12.66-.64,25.34-.94,38-.27,11.5-.71,23-.89,34.5-.36,22.51-1.3,45.34,1,67.77,2,19.22,7.76,37.17,18.32,53.42,1.05,1.61,3.65.11,2.6-1.52Z" transform="translate(0 -1)"/></g></svg>