<svg xmlns="http://www.w3.org/2000/svg" viewBox="0 0 598 447"><defs><style>.cls-1{fill:#f08482;}.cls-2{fill:#f6cac4;}</style></defs><title>studnticon</title><g id="Layer_1" data-name="Layer 1"><rect class="cls-1" width="598" height="447" rx="24.5"/></g><g id="Layer_2" data-name="Layer 2"><path class="cls-2" d="M457.82,293.36c-7.77-11.53-21.06-15.63-34.25-17.37-17.42-2.3-35.23-2.4-52.75-1.32-36.46,2.25-72.3,10.22-107.36,20.16-20.39,5.78-40.57,12.25-60.74,18.76l5.53,3.14L188.3,259.15c-3.21-9.25-6.6-18.47-9.62-27.78-1.47-4.54-2.63-9.05-.58-13.58,1.7-3.75,4.76-6.73,7.81-9.4,23.58-20.6,53.86-34.43,83.88-42.48a268.19,268.19,0,0,1,95.42-7.37,276.11,276.11,0,0,1,47.17,8.9c8.06,2.26,16.15,6.06,24.43,7.31s15.67-2.33,23-5.64A442.69,442.69,0,0,0,509,142.92c15.1-9.31,30.53-19.28,43.92-31,5.28-4.6,9.74-11.52,6.48-18.62C556.44,87,549.3,84.43,543.2,82.16c-18.2-6.77-37.35-10.89-56.29-15A1150.29,1150.29,0,0,0,371.12,48.24q-29.34-3.29-58.84-5-15-.9-30-1.4c-9.1-.3-18.27-.73-27.3.71-17.86,2.86-33.45,15.64-48.15,25.37q-23.57,15.6-46.45,32.19-45.83,33.21-88.78,70.16-10.52,9.06-20.85,18.34c-2.35,2.11-1.34,7,2,7.52a410.75,410.75,0,0,0,66.44,5.1c15.46-.11,35.69.26,47.07-12.24,4.64-5.09,8.51-13.71,3.74-19.95-4.9-6.43-16.94-5-24-4.45-8.75.67-17.2,3.28-23.52,9.63-5.56,5.59-8.86,13.13-10.78,20.69-5,19.49-4,41-2.59,60.88,1.61,22.55,5.13,44.91,8.11,67.31,1.44,10.74,2.75,21.5,3.67,32.3s2,22.22,1.14,33.15c-.82,9.77-6.5,18.23-16.52,20.27-9.06,1.85-18.68-3.51-22.13-12-4.4-10.88,1.18-23.5,5.7-33.39,5.34-11.69,10.79-23.34,16.18-35l33.31-72.07c2.42-5.23-5.34-9.8-7.77-4.55L102.52,313,87.94,344.51c-4.3,9.3-9.12,18.56-12.29,28.33-5.45,16.8-2.2,36.08,15.79,43.27,15.63,6.25,33.53-3.05,38.17-19,2.79-9.62,1.7-20.44,1.14-30.29-.62-10.81-1.72-21.59-3-32.33-2.63-21.52-6.12-42.92-8.33-64.49-2.16-20.95-3.39-42.47-.73-63.44,1-7.84,2.9-16.19,7.52-22.76,5.64-8,14.68-10.24,24-10.4,2.79,0,5.62,0,8.41.16,2.56.16,4.87.13,4.38,3.27-.63,4-4.2,7.38-7.47,9.39-7.28,4.49-16.43,5.42-24.8,5.76a387.25,387.25,0,0,1-75.6-4.53l2,7.52c55-49.31,114-94.5,176.64-133.77,7.76-4.87,15.63-9,24.85-10.11,9.41-1.16,19.08-.43,28.52-.07q28.55,1.07,57,3.57A1130.25,1130.25,0,0,1,459.86,70.79c18.79,3.64,37.58,7.59,56.11,12.4a238.44,238.44,0,0,1,26.58,8.31c2.72,1.06,7.1,2.41,8.5,5.26,1.88,3.85-3.15,7.72-5.72,9.83-27.73,22.75-59.85,41.32-92.56,55.85-3.78,1.68-7.9,3.6-12.11,3.61-4.57,0-9-2-13.22-3.41Q416.34,159,405,156.21A291.53,291.53,0,0,0,359,149a274.17,274.17,0,0,0-92.32,8.45c-29.35,8-57.26,21.29-81.34,39.93-5.7,4.41-11.64,9.18-14.94,15.75-3.92,7.8-2.16,15.47.56,23.35q9.47,27.41,19,54.79l9.66,27.86c.77,2.22,3.09,3.93,5.53,3.15,65.12-21,132.51-42.66,201.83-38.76,14.18.8,34.22,1.21,43.11,14.4,3.22,4.77,11,.28,7.77-4.55Z" transform="translate(-1 -2)"/></g></svg>